<svg id="Layer_1" data-name="Layer 1" xmlns="http://www.w3.org/2000/svg" width="1200" height="1100" viewBox="0 0 1200 1100"><defs><style>.cls-1{fill:#fbc03b;}.cls-2{fill:#dbac99;}.cls-3{fill:#fff;}.cls-4{fill:#0071bc;}.cls-5{fill:#e1916d;}.cls-6{fill:#999;}.cls-7{fill:none;stroke:#000;stroke-miterlimit:10;}.cls-8{fill:#00b;}.cls-9{fill:#00e1f5;}.cls-10{fill:red;}.cls-11{fill:#006837;}</style></defs><path class="cls-1" d="M771.22,380.3l-19.35-61.85-20.36-65-20.35,65-16.6,53.05-8.23-.4-16.48-52.65-20.36-65-20.35,65-16,51H604.8l-16-51-20.36-65-20.35,65-16.5,52.71-7.81.38-16.62-53.09-20.35-65-20.36,65L447,380.62c-2.93,1.08-4.49,2.2-4.49,3.35,0,8,74.79,14.49,167.06,14.49S776.65,392,776.65,384C776.65,382.7,774.76,381.47,771.22,380.3Z"/><path class="cls-2" d="M831.51,520C839.67,642.9,747,855,611.23,855.35S392.42,667.61,387.36,549.12,467.48,307.94,597.8,304.58c14.58-.37,30.9,1.1,30.9,1.1s56.39,5.87,104.23,37.16C792.8,382,827.58,461,831.51,520Z"/><ellipse class="cls-3" cx="685.38" cy="521.21" rx="47.11" ry="44.84"/><ellipse class="cls-4" cx="685.24" cy="521.25" rx="25.69" ry="24.46"/><path class="cls-5" d="M638.5,515.1h94.21c0-22.52-21.09-40.77-47.1-40.77S638.5,492.58,638.5,515.1Z"/><circle cx="686.02" cy="526.66" r="4.5"/><ellipse class="cls-3" cx="530.48" cy="522.43" rx="47.11" ry="44.84"/><ellipse class="cls-4" cx="530.34" cy="522.46" rx="25.69" ry="24.46"/><path class="cls-5" d="M483.6,516.31h94.21c0-22.51-21.09-40.77-47.11-40.77S483.6,493.8,483.6,516.31Z"/><circle cx="531.12" cy="527.87" r="4.5"/><ellipse cx="577.61" cy="618.27" rx="10.17" ry="4.49" transform="translate(-99.35 110.72) rotate(-10.09)"/><ellipse class="cls-2" cx="385.4" cy="585.75" rx="19" ry="19.01"/><ellipse class="cls-2" cx="831.52" cy="585.75" rx="19" ry="19.01"/><path class="cls-6" d="M695,656c-2.34-8.13-10.48-14.35-18.18-13.9a10.82,10.82,0,0,0-7.45,3.39,15.32,15.32,0,0,0-10.2-3.71,11.94,11.94,0,0,0-8.49,3.76,15.3,15.3,0,0,0-10.26-3.76,12,12,0,0,0-8.23,3.5,15.24,15.24,0,0,0-9.65-3.26,11.94,11.94,0,0,0-8.49,3.76,15.29,15.29,0,0,0-10.26-3.76,12,12,0,0,0-8.28,3.55,13.46,13.46,0,0,0-18.6-.47,9.74,9.74,0,0,0-6.76-3.24,18.54,18.54,0,0,0-11.73,3.57,9.64,9.64,0,0,0-7-3.57c-7.63-.65-16.53,5.35-19.87,13.41s.14,15.11,7.77,15.75A18.44,18.44,0,0,0,551,667.48a9.63,9.63,0,0,0,7,3.57c5.44.47,11.52-2.47,15.78-7.11A13.93,13.93,0,0,0,586,671.31a13.7,13.7,0,0,0,10.49-5,15.75,15.75,0,0,0,11.9,5.33,12,12,0,0,0,8.48-3.76,15.35,15.35,0,0,0,10.26,3.76,12,12,0,0,0,8.24-3.51,15.15,15.15,0,0,0,9.65,3.27,12,12,0,0,0,8.48-3.76,15.35,15.35,0,0,0,10.26,3.76A12,12,0,0,0,673,666.8a17.41,17.41,0,0,0,12.34,4.76C693,671.11,697.34,664.15,695,656Z"/><path class="cls-7" d="M506.59,719.69a228.76,228.76,0,0,1,196.05,0"/><path class="cls-7" d="M495.47,716.06c.53-.07,7.81-.81,12.51,4.85a14.3,14.3,0,0,1,3,10.78"/><path class="cls-7" d="M715,715.22c-.53-.06-7.81-.8-12.51,4.86a14.34,14.34,0,0,0-3,10.78"/><path class="cls-6" d="M821.89,573.46c8-2.65,13.93-11,13.19-18.7a10.75,10.75,0,0,0-3.67-7.32,15.31,15.31,0,0,0,3.33-10.35,12,12,0,0,0-4.08-8.34,15.35,15.35,0,0,0,3.37-10.4,12.06,12.06,0,0,0-3.81-8.1,15.22,15.22,0,0,0,2.89-9.77,12,12,0,0,0-4.08-8.34,15.3,15.3,0,0,0,3.37-10.4,12,12,0,0,0-3.86-8.14A13.48,13.48,0,0,0,828.3,455a9.79,9.79,0,0,0,3-6.89,18.57,18.57,0,0,0-4-11.59,9.62,9.62,0,0,0,3.31-7.15c.35-7.66-6-16.32-14.15-19.36s-26.41-12.19-26.77-4.54c-.18,3.89,12.7,21,15.34,24.49a9.66,9.66,0,0,0-3.3,7.16c-.26,5.46,2.9,11.43,7.7,15.51A13.91,13.91,0,0,0,802.5,465a13.74,13.74,0,0,0,5.37,10.3,15.79,15.79,0,0,0-4.86,12.1,12,12,0,0,0,4.07,8.34,15.35,15.35,0,0,0-3.36,10.4,12,12,0,0,0,3.81,8.1,15.19,15.19,0,0,0-2.9,9.77,12,12,0,0,0,4.08,8.34,15.35,15.35,0,0,0-3.37,10.4,12,12,0,0,0,5,9A17.43,17.43,0,0,0,806,564.34C806.75,572,813.86,576.1,821.89,573.46Z"/><path class="cls-6" d="M392.64,571.33c-7.88-3.06-13.34-11.73-12.2-19.36a10.79,10.79,0,0,1,4-7.12,15.36,15.36,0,0,1-2.78-10.5,12,12,0,0,1,4.51-8.12,15.33,15.33,0,0,1-2.82-10.56,12,12,0,0,1,4.23-7.89,15.18,15.18,0,0,1-2.39-9.91,12,12,0,0,1,4.51-8.11,15.35,15.35,0,0,1-2.82-10.57,12,12,0,0,1,4.28-7.93,13.48,13.48,0,0,1,1.2-18.57,9.81,9.81,0,0,1-2.62-7,18.54,18.54,0,0,1,4.62-11.36,9.6,9.6,0,0,1-2.93-7.31c0-7.67,6.82-16,15.14-18.6s27-10.8,27-3.14c0,3.9-13.78,20.26-16.6,23.66a9.66,9.66,0,0,1,2.93,7.32c0,5.47-3.5,11.26-8.51,15.09a13.91,13.91,0,0,1,6.25,12.75,13.7,13.7,0,0,1-5.9,10A15.77,15.77,0,0,1,416,486.4a12,12,0,0,1-4.51,8.12,15.33,15.33,0,0,1,2.82,10.56,12,12,0,0,1-4.23,7.89,15.24,15.24,0,0,1,2.39,9.91,12,12,0,0,1-4.51,8.11,15.41,15.41,0,0,1,2.82,10.57,12,12,0,0,1-5.42,8.77A17.4,17.4,0,0,1,409,563.06C407.83,570.69,400.52,574.39,392.64,571.33Z"/><path class="cls-1" d="M815.33,401.71l-18.87-60.3-20.36-65-20.35,65-15.18,48.48c-3.49-.27-7.08-.54-10.74-.79L714.9,341.41l-20.35-65-20.36,65-14,44.59q-6.66-.15-13.49-.27l-13.87-44.32-20.35-65-20.36,65L578.3,385.73q-6.3.11-12.49.25l-13.95-44.57-20.35-65-20.36,65L496.25,389q-5.58.38-10.87.8l-15.16-48.43-20.35-65-20.36,65-18.75,59.95c-4,1.63-6.2,3.34-6.2,5.1,0,11.61,93.15,21,208.05,21s208.06-9.41,208.06-21C820.67,404.83,818.82,403.24,815.33,401.71Z"/><rect class="cls-2" x="580.57" y="831.59" width="56" height="106"/><path class="cls-8" d="M387.22,1061.35h458.3c0-75.67-102.59-137-229.15-137S387.22,985.68,387.22,1061.35Z"/><rect class="cls-9" x="588.52" y="925.35" width="40" height="136"/><path class="cls-9" d="M636.5,924.35h-56c0,22.64,12.54,41,28,41S636.5,947,636.5,924.35Z"/><path class="cls-2" d="M636.52,922.35h-56c0,18.23,12.54,33,28,33S636.52,940.58,636.52,922.35Z"/><rect class="cls-10" x="671.95" y="977.35" width="2.57" height="11.43"/><rect class="cls-3" x="674.52" y="977.35" width="2.57" height="11.43"/><rect class="cls-10" x="677.1" y="977.35" width="2.57" height="11.43"/><ellipse class="cls-1" cx="676.02" cy="991.35" rx="4.5" ry="6"/><rect class="cls-11" x="688.77" y="977.35" width="6.5" height="10"/><rect class="cls-3" x="690.4" y="977.35" width="3.25" height="10"/><polygon class="cls-1" points="692.02 983.35 694.03 987.96 698.52 988.7 695.27 992.28 696.04 997.35 692.02 994.96 688.01 997.35 688.77 992.28 685.52 988.7 690.02 987.96 692.02 983.35"/><circle class="cls-1" cx="609.52" cy="963.35" r="4"/><circle class="cls-1" cx="609.52" cy="981.35" r="4"/><circle class="cls-1" cx="609.52" cy="999.35" r="4"/><circle class="cls-1" cx="609.52" cy="1017.35" r="4"/><circle class="cls-1" cx="609.52" cy="1035.35" r="4"/><circle class="cls-1" cx="609.52" cy="1053.35" r="4"/><ellipse cx="638.25" cy="618.5" rx="4.49" ry="10.17" transform="translate(-82.47 1138.56) rotate(-79.91)"/><polyline class="cls-7" points="588.07 791.09 601.07 827.09 617.07 827.09 629.78 790.73"/><path class="cls-6" d="M659.82,459.56l1.58,2.85a5.42,5.42,0,0,0,9.37.2l1.7-2.8.46-.75.54,1,1.58,2.86a5.42,5.42,0,0,0,9.37.19l1.7-2.79,0,0,1.54,2.78a5.42,5.42,0,0,0,9.37.2l1.7-2.8.07-.11,1.53,2.78a5.42,5.42,0,0,0,9.37.19l1.7-2.79,2.15-2.93c2.17-3.57-.84-7.92-5-8l-3.23-.06-12.65-.26.11.19h-.13L680,449.19l0,.1h0l-1.12,0,.12-.2-12.65-.26-3.24-.07a5.43,5.43,0,0,0-4.85,8.05Z"/><path class="cls-6" d="M504.75,459.11l1.58,2.86a5.42,5.42,0,0,0,9.37.19l1.7-2.79.46-.75.54,1,1.58,2.86a5.42,5.42,0,0,0,9.37.19l1.7-2.79,0,0,1.54,2.78a5.42,5.42,0,0,0,9.37.19l1.7-2.79.06-.11,1.54,2.77a5.42,5.42,0,0,0,9.37.2l1.7-2.8,2.15-2.93c2.17-3.56-.84-7.92-5-8l-3.23-.07-12.65-.26.11.19h-.13l-12.65-.26.05.11h0l-1.12,0,.12-.2-12.65-.26-3.24-.06a5.42,5.42,0,0,0-4.85,8Z"/></svg>