<svg id="Layer_1" data-name="Layer 1" xmlns="http://www.w3.org/2000/svg" width="130" height="120" viewBox="0 0 130 120"><defs><style>.cls-1{fill:#ed1c24;}.cls-2{fill:#ff3c24;}.cls-3{fill:#006837;}</style></defs><ellipse class="cls-1" cx="64.59" cy="65.38" rx="59.91" ry="49.12"/><path class="cls-2" d="M91.9,97.89C51.44,111.26,5.76,99.76,21.48,57.83c1.81-4.86,4.27-3.21,7.25-2.74h0c3,.47,6.07,1.39,4.18,5.44-16.34,35,23.49,38.29,54.94,28.73,3.64-1.1,6.18.53,7,3h0C95.57,94.65,96.58,96.34,91.9,97.89Z"/><path class="cls-3" d="M51.28,26.23c5.14.35,6.75,12.72,8.43,12.6s-.5-13.3,2.81-13.74S86,39.82,88.65,39.38C91.17,39,72.93,25.19,77.5,23.94c5.41-1.47,25.36,12.12,30.33,10.82,4-1-2.83-11.47-13.47-16.54-9-4.28-20.66-1.13-26.23-6.3-2.86-2.66-2.42-6-6.55-6.87-1.82-.4-4.53-.33-5.62.58-2.51,2.08,6.06,6.58,3.75,9.15-1.57,1.75-6.2.5-13.12,1.72-9,1.59-9,5.07-19.66,9.16S8.07,29.43,8.19,30.81,18,34.43,26,32.53c8.62-2.05,11.31-7.86,13.11-7.44,2.95.68-4.28,16.31-2.81,16.6S45.28,25.83,51.28,26.23Z"/><path class="cls-2" d="M115,62.55c-2.24-5.91-7.55-11.76-14.64-16.12-2.07-1.27-2.65-.38-3.67.64a2.07,2.07,0,0,0,.4,3.48c5.15,3.37,9.67,7.76,12.06,12.16A47.74,47.74,0,0,1,115,62.55Z"/></svg>