<svg id="Layer_1" data-name="Layer 1" xmlns="http://www.w3.org/2000/svg" width="130" height="120" viewBox="0 0 130 120"><defs><style>.cls-1{opacity:0.37;}.cls-2{fill:#ed1c24;}.cls-3{fill:#ff3c24;}.cls-4{fill:#006837;}</style></defs><g class="cls-1"><ellipse class="cls-2" cx="65" cy="65.72" rx="59.91" ry="49.12"/><path class="cls-3" d="M92.31,98.23C51.86,111.6,6.18,100.1,21.89,58.17c1.82-4.86,4.28-3.21,7.26-2.74h0c3,.47,6.06,1.39,4.17,5.44-16.33,35,23.5,38.29,55,28.73,3.64-1.1,6.17.53,6.94,3h0C96,95,97,96.68,92.31,98.23Z"/><path class="cls-4" d="M51.69,26.57c5.14.35,6.75,12.72,8.43,12.6s-.49-13.3,2.81-13.74S86.37,40.16,89.06,39.72c2.52-.41-15.71-14.19-11.14-15.44,5.4-1.47,25.36,12.12,30.33,10.82,4-1.05-2.84-11.47-13.48-16.54-9-4.28-20.66-1.13-26.22-6.3C65.69,9.6,66.12,6.3,62,5.39c-1.82-.4-4.53-.33-5.62.58-2.5,2.08,6.06,6.58,3.75,9.15-1.56,1.75-6.2.5-13.11,1.72-9,1.59-9,5.07-19.67,9.16S8.48,29.77,8.61,31.15s9.81,3.62,17.79,1.72c8.63-2,11.32-7.86,13.12-7.44,2.94.68-4.28,16.31-2.81,16.6S45.7,26.17,51.69,26.57Z"/><path class="cls-3" d="M115.39,62.89c-2.24-5.91-7.55-11.76-14.64-16.12-2.06-1.27-2.64-.38-3.66.64a2.07,2.07,0,0,0,.4,3.48c5.15,3.37,9.67,7.76,12.05,12.16A47.85,47.85,0,0,1,115.39,62.89Z"/></g></svg>