<svg id="Layer_1" data-name="Layer 1" xmlns="http://www.w3.org/2000/svg" width="1920" height="1080" viewBox="0 0 1920 1080"><defs><style>.cls-1{fill:#29abe2;}.cls-2{fill:#39b54a;}.cls-3{fill:#39a34a;}.cls-4{fill:#39a94a;}.cls-5{fill:#c69c6d;}.cls-6{fill:#fff;opacity:0.64;}.cls-7{fill:#ffdf00;}</style></defs><rect class="cls-1" y="-2" width="1920" height="820"/><rect class="cls-2" y="777" width="1920" height="305"/><path class="cls-3" d="M5,800H1060C1029.94,674.32,574,573.59,5,567Z"/><path class="cls-4" d="M1920,800H865c30.06-125.68,486-226.41,1055-233Z"/><path class="cls-5" d="M1860,806l-38,66"/><path class="cls-6" d="M1754.83,206.46a26,26,0,0,0,6.21-16.82c0-14.73-12.39-26.66-27.69-26.66a28.08,28.08,0,0,0-20.74,9,33.95,33.95,0,0,0-57.73,3.61c-1.21,0-2.43,0-3.66,0H1649c-6-16.07-22-27.57-40.71-27.57a43.35,43.35,0,0,0-39.65,25c-31.31,2.64-55.24,17-55.24,34.31a19.43,19.43,0,0,0,1.21,6.68c-10.54,2.73-16.77,6.12-16.77,9.79,0,5,11.56,9.48,29.81,12.5a16.44,16.44,0,0,0-1.19,6.07c0,14.4,19.23,26.06,42.94,26.06a64,64,0,0,0,23.82-4.37,25.38,25.38,0,0,0,26.75,2.13c7.79,6.91,18.9,11.23,31.26,11.23a47.82,47.82,0,0,0,28.94-9.33,37.36,37.36,0,0,0,25.5,9.93,36.86,36.86,0,0,0,32.78-19.44,30.08,30.08,0,0,0,3.94.27c15.8,0,28.62-12.34,28.62-27.56A27.49,27.49,0,0,0,1754.83,206.46Z"/><polygon class="cls-7" points="574.21 44 579.43 157.39 612.03 48.89 589.54 160.05 647.48 63.25 598.68 165.19 678.32 86.19 606.28 172.5 702.62 116.25 611.88 181.52 718.86 151.56 615.1 191.67 726 189.88 615.75 202.33 723.61 228.82 613.8 212.82 711.83 265.93 609.36 222.48 691.4 298.88 602.71 230.71 663.61 325.58 594.26 236.99 630.2 344.38 584.56 240.92 593.27 354.08 574.21 242.26 555.15 354.08 563.86 240.92 518.23 344.38 554.16 236.99 484.82 325.58 545.72 230.71 457.03 298.88 539.07 222.48 436.6 265.93 534.63 212.82 424.82 228.82 532.67 202.33 422.43 189.88 533.33 191.67 429.57 151.56 536.55 181.52 445.8 116.25 542.14 172.5 470.1 86.19 549.75 165.19 500.94 63.25 558.89 160.05 536.39 48.89 569 157.39 574.21 44"/><path class="cls-6" d="M543.71,219.27c5.41-5,8.77-11.48,9-18.66.51-16.56-15.87-30.5-36.6-31.14-11.19-.34-21.36,3.27-28.42,9.28-7.77-10-21.42-16.88-37.16-17.36-17.82-.55-33.49,7.24-41.18,19-1.65-.08-3.3-.15-5-.2l-3-.08c-7.57-18.32-28.8-31.92-54.22-32.7-24-.74-45,10.19-54.58,26.46-42.52,1.66-75.45,16.81-76.05,36.29a18.45,18.45,0,0,0,1.41,7.56c-14.37,2.64-22.93,6.19-23.06,10.32-.17,5.62,15.33,11.14,40,15.29a15.83,15.83,0,0,0-1.82,6.79c-.5,16.18,25.15,30.11,57.28,31.1a102.88,102.88,0,0,0,32.43-3.93A38.88,38.88,0,0,0,343,283.52a39.86,39.86,0,0,0,15.92-2.7c10.31,8.08,25.23,13.41,42,13.92,15.14.47,29-3.09,39.54-9.28,8.74,7.18,20.79,11.81,34.21,12.23,19.42.59,36.5-7.78,45.1-20.5a48.5,48.5,0,0,0,5.31.47c21.43.66,39.22-12.69,39.74-29.8C565.13,235.57,556.52,224.68,543.71,219.27Z"/></svg>