<svg id="Layer_1" data-name="Layer 1" xmlns="http://www.w3.org/2000/svg" width="1920" height="1080" viewBox="0 0 1920 1080"><defs><style>.cls-1{fill:#c69c6d;}.cls-2{fill:#006837;}.cls-3{fill:#ed1c24;}.cls-4{fill:#ff3c24;}.cls-5{fill:#dbac99;}.cls-6{fill:#42170b;}.cls-7{fill:#603813;}</style></defs><path class="cls-1" d="M1860,806l-38,66"/><ellipse class="cls-2" cx="1737.5" cy="891" rx="43.5" ry="55"/><ellipse class="cls-2" cx="1710.5" cy="832" rx="45.5" ry="40"/><circle class="cls-2" cx="1627.5" cy="904.5" r="47.5"/><ellipse class="cls-2" cx="1684" cy="909" rx="49" ry="42"/><ellipse class="cls-2" cx="1659.5" cy="863.5" rx="37.5" ry="31.5"/><ellipse class="cls-2" cx="1736" cy="794.5" rx="17" ry="23.5"/><ellipse class="cls-2" cx="1748.06" cy="830.46" rx="34.97" ry="13.63" transform="translate(507.33 2315.71) rotate(-75.54)"/><ellipse class="cls-2" cx="1586" cy="928" rx="42" ry="24"/><ellipse class="cls-2" cx="1770" cy="835.5" rx="19" ry="23.5"/><ellipse class="cls-2" cx="1777.66" cy="881.94" rx="31.5" ry="29.02" transform="translate(247.88 2145.93) rotate(-65.95)"/><ellipse class="cls-2" cx="1535" cy="928" rx="51" ry="24"/><ellipse class="cls-2" cx="1486.5" cy="928" rx="48.5" ry="24"/><ellipse class="cls-2" cx="1524.5" cy="904.5" rx="37.5" ry="21.5"/><ellipse class="cls-2" cx="1584.5" cy="891" rx="54.5" ry="21"/><ellipse class="cls-2" cx="1769.5" cy="924" rx="58.5" ry="24"/><ellipse class="cls-2" cx="290" cy="879.5" rx="180" ry="60.5"/><ellipse class="cls-2" cx="448.5" cy="911" rx="102.5" ry="29"/><ellipse class="cls-2" cx="166.5" cy="906.5" rx="102.5" ry="23.5"/><ellipse class="cls-2" cx="208.5" cy="830" rx="60.5" ry="29"/><ellipse class="cls-2" cx="623.5" cy="898.5" rx="90.5" ry="41.5"/><ellipse class="cls-2" cx="559.5" cy="898.5" rx="57.5" ry="41.5"/><ellipse class="cls-2" cx="499.5" cy="849.5" rx="79.5" ry="48.5"/><circle class="cls-2" cx="251" cy="824" r="39"/><ellipse class="cls-2" cx="319" cy="812.5" rx="65" ry="54.5"/><ellipse class="cls-2" cx="404.5" cy="829.5" rx="88.5" ry="50.5"/><ellipse class="cls-2" cx="568" cy="858.5" rx="70" ry="20.5"/><ellipse class="cls-2" cx="708" cy="918" rx="59" ry="22"/><ellipse class="cls-2" cx="196.5" cy="925.5" rx="71.5" ry="16.5"/><ellipse class="cls-2" cx="369.5" cy="930" rx="72.5" ry="16"/><ellipse class="cls-3" cx="616.5" cy="978.59" rx="20.22" ry="15.96"/><path class="cls-4" d="M625.72,989.15c-13.66,4.34-29.08.61-23.77-13,.61-1.58,1.44-1,2.45-.89h0c1,.16,2,.45,1.4,1.77-5.51,11.38,7.94,12.44,18.55,9.34a1.75,1.75,0,0,1,2.35,1h0C627,988.1,627.3,988.65,625.72,989.15Z"/><path class="cls-2" d="M612,965.87c1.73.11,2.27,4.13,2.84,4.09s-.17-4.32.95-4.47,7.91,4.79,8.82,4.65-5.3-4.61-3.76-5c1.82-.48,8.56,3.94,10.24,3.52,1.35-.34-1-3.73-4.55-5.38-3-1.39-7-.36-8.85-2-1-.87-.82-1.94-2.22-2.24a2.84,2.84,0,0,0-1.89.19c-.85.68,2,2.14,1.26,3-.53.56-2.09.16-4.43.55-3,.52-3,1.65-6.63,3s-6.37,1.22-6.33,1.67,3.31,1.18,6,.56c2.91-.66,3.82-2.55,4.43-2.42,1,.23-1.45,5.31-.95,5.4S610,965.73,612,965.87Z"/><path class="cls-4" d="M633.51,977.67a11.48,11.48,0,0,0-4.94-5.24c-.7-.41-.9-.12-1.24.21a.66.66,0,0,0,.13,1.13,12.06,12.06,0,0,1,4.07,4A16.47,16.47,0,0,1,633.51,977.67Z"/><path class="cls-5" d="M353.38,1066l-32.88-37.5A3.8,3.8,0,0,1,321,1023l3.87-3.14a4.17,4.17,0,0,1,5.71.46l32.88,37.49a3.82,3.82,0,0,1-.49,5.5l-3.87,3.14A4.17,4.17,0,0,1,353.38,1066Z"/><path class="cls-5" d="M369.15,1001.85l-40.52,29.77a4.17,4.17,0,0,1-5.68-.74l-3.07-3.87a3.82,3.82,0,0,1,.76-5.47l40.52-29.76a4.18,4.18,0,0,1,5.68.73l3.07,3.88A3.81,3.81,0,0,1,369.15,1001.85Z"/><path class="cls-5" d="M518.92,1000.55a7.66,7.66,0,0,1,9.82-.6L562.87,1026l46.61-41.58s0,0,0-.07a8,8,0,0,1,3-6.21l.27-7.81a2,2,0,0,1,4,.12l-.2,5.69a11.2,11.2,0,0,1,1.31-.23l3.86-6a2.13,2.13,0,0,1,2.71-.65,1.65,1.65,0,0,1,.75,2.39l-3,4.64a10.39,10.39,0,0,1,2.44,1.1l4.68-4.17a2.19,2.19,0,0,1,2.82,0h0a1.61,1.61,0,0,1,0,2.48l-4.8,4.28a8,8,0,0,1,1.06,2.25l5.87-2a2.11,2.11,0,0,1,2.59,1,1.68,1.68,0,0,1-1.11,2.27L628.54,986a7.49,7.49,0,0,1-.61,1.74l3.71.11a1.77,1.77,0,1,1-.12,3.51l-6.66-.21a10.31,10.31,0,0,1-5.59,1.67l-51.65,46.08a6.54,6.54,0,0,1-6.18,1.25,7.26,7.26,0,0,1-3.07-1.36l-38.72-29.55A5.68,5.68,0,0,1,518.92,1000.55Z"/><rect class="cls-5" x="433.17" y="948.5" width="18.23" height="28.27"/><path class="cls-6" d="M339.69,1074.24H545c0-61.58-46-111.5-102.65-111.5S339.69,1012.66,339.69,1074.24Z"/><path class="cls-5" d="M517.17,842.56c2.75,39.89-28.51,108.76-74.34,108.87S369,890.47,367.28,852s27-78.31,71-79.39c4.92-.13,10.43.35,10.43.35s19,1.91,35.17,12.07C504.11,797.74,515.84,823.38,517.17,842.56Z"/><ellipse class="cls-7" cx="476.37" cy="798.72" rx="27.68" ry="24.37"/><ellipse class="cls-7" cx="386.41" cy="879.78" rx="22.11" ry="21.28"/><ellipse class="cls-7" cx="442.11" cy="794.98" rx="36.63" ry="32.98"/><ellipse class="cls-7" cx="493.42" cy="845.34" rx="35.95" ry="23.56"/><ellipse class="cls-7" cx="492.92" cy="817.89" rx="27" ry="23.39"/><ellipse class="cls-7" cx="440.09" cy="919.75" rx="20.76" ry="23.56"/><ellipse class="cls-7" cx="418.15" cy="930.31" rx="15.36" ry="12.35"/><ellipse class="cls-7" cx="466.08" cy="928.84" rx="13.67" ry="13.16"/><ellipse class="cls-7" cx="424.73" cy="935.18" rx="9.11" ry="8.77"/><ellipse class="cls-7" cx="405.49" cy="802.94" rx="27.68" ry="24.37"/><ellipse class="cls-7" cx="442.28" cy="851.84" rx="63.8" ry="63.85"/><ellipse class="cls-7" cx="391.31" cy="821.78" rx="27" ry="23.39"/><ellipse class="cls-7" cx="391.48" cy="851.84" rx="35.95" ry="23.56"/><ellipse class="cls-7" cx="500.85" cy="879.78" rx="22.11" ry="21.28"/><ellipse class="cls-7" cx="476.39" cy="896.17" rx="23.81" ry="35.57" transform="translate(-537.43 848.85) rotate(-59.33)"/><ellipse class="cls-7" cx="408.54" cy="901.04" rx="35.68" ry="23.73" transform="translate(-344.88 259.84) rotate(-25.21)"/><ellipse class="cls-7" cx="454.1" cy="935.18" rx="9.11" ry="8.77"/><ellipse class="cls-7" cx="399.07" cy="926.73" rx="12.83" ry="12.35"/><ellipse class="cls-7" cx="484.31" cy="926.57" rx="11.98" ry="11.53"/><path class="cls-6" d="M524.32,1025.81l9-14.94,9.06-15c-15.58-8.74-32.26-9.14-37.26-.89S508.74,1017.07,524.32,1025.81Z"/><ellipse class="cls-7" cx="456.8" cy="918.28" rx="12.83" ry="12.35"/><path class="cls-6" d="M363.11,1025.89,354.06,1011,345,996c15.58-8.74,32.26-9.13,37.26-.88S378.69,1017.15,363.11,1025.89Z"/></svg>