<svg id="Layer_1" data-name="Layer 1" xmlns="http://www.w3.org/2000/svg" width="1920" height="1080" viewBox="0 0 1920 1080"><defs><style>.cls-1{fill:#29abe2;}.cls-2{fill:#39b54a;}.cls-3{fill:#39af4a;}.cls-4{fill:#c69c6d;}.cls-5{fill:#bb9c6d;}.cls-6{fill:#006837;}</style></defs><rect class="cls-1" y="-2" width="1920" height="820"/><rect class="cls-2" y="777" width="1920" height="305"/><path class="cls-3" d="M5,800H1060C1029.94,674.32,574,573.59,5,567Z"/><path class="cls-3" d="M1920,800H865c30.06-125.68,486-226.41,1055-233Z"/><polygon class="cls-4" points="1874.37 566.64 1851.6 801.18 1755.65 799.1 1796.61 568.39 1874.37 566.64"/><path class="cls-4" d="M1860,806l-38,66"/><rect class="cls-4" x="1665" y="799" width="187" height="40"/><rect class="cls-5" x="1756" y="792" width="96" height="7"/><ellipse class="cls-6" cx="1737.5" cy="891" rx="43.5" ry="55"/><ellipse class="cls-6" cx="1710.5" cy="832" rx="45.5" ry="40"/><circle class="cls-6" cx="1627.5" cy="904.5" r="47.5"/><ellipse class="cls-6" cx="1684" cy="909" rx="49" ry="42"/><ellipse class="cls-6" cx="1659.5" cy="863.5" rx="37.5" ry="31.5"/><ellipse class="cls-6" cx="1736" cy="794.5" rx="17" ry="23.5"/><ellipse class="cls-6" cx="1748.06" cy="830.46" rx="34.97" ry="13.63" transform="translate(507.33 2315.71) rotate(-75.54)"/><ellipse class="cls-6" cx="1586" cy="928" rx="42" ry="24"/><ellipse class="cls-6" cx="1770" cy="835.5" rx="19" ry="23.5"/><ellipse class="cls-6" cx="1777.66" cy="881.94" rx="31.5" ry="29.02" transform="translate(247.88 2145.93) rotate(-65.95)"/><ellipse class="cls-6" cx="1535" cy="928" rx="51" ry="24"/><ellipse class="cls-6" cx="1486.5" cy="928" rx="48.5" ry="24"/><ellipse class="cls-6" cx="1524.5" cy="904.5" rx="37.5" ry="21.5"/><ellipse class="cls-6" cx="1584.5" cy="891" rx="54.5" ry="21"/><ellipse class="cls-6" cx="1769.5" cy="924" rx="58.5" ry="24"/><ellipse class="cls-6" cx="290" cy="879.5" rx="180" ry="60.5"/><ellipse class="cls-6" cx="448.5" cy="911" rx="102.5" ry="29"/><ellipse class="cls-6" cx="166.5" cy="906.5" rx="102.5" ry="23.5"/><ellipse class="cls-6" cx="208.5" cy="830" rx="60.5" ry="29"/><ellipse class="cls-6" cx="623.5" cy="898.5" rx="90.5" ry="41.5"/><ellipse class="cls-6" cx="559.5" cy="898.5" rx="57.5" ry="41.5"/><ellipse class="cls-6" cx="499.5" cy="849.5" rx="79.5" ry="48.5"/><circle class="cls-6" cx="251" cy="824" r="39"/><ellipse class="cls-6" cx="319" cy="812.5" rx="65" ry="54.5"/><ellipse class="cls-6" cx="404.5" cy="829.5" rx="88.5" ry="50.5"/><ellipse class="cls-6" cx="568" cy="858.5" rx="70" ry="20.5"/><ellipse class="cls-6" cx="708" cy="918" rx="59" ry="22"/><ellipse class="cls-6" cx="196.5" cy="925.5" rx="71.5" ry="16.5"/><ellipse class="cls-6" cx="369.5" cy="930" rx="72.5" ry="16"/></svg>