<svg id="Layer_1" data-name="Layer 1" xmlns="http://www.w3.org/2000/svg" width="1200" height="1100" viewBox="0 0 1200 1100"><defs><style>.cls-1{fill:red;}.cls-2{fill:#f15a24;}.cls-3{fill:#dbac99;}.cls-4{fill:#fff;}.cls-5{fill:#8c6239;}.cls-6{fill:#e1916d;}.cls-7{fill:#754c24;}.cls-8{fill:none;stroke:#000;stroke-miterlimit:10;}.cls-9{fill:#ffd11e;}</style></defs><path d="M585,1084v-84c116,2.39,208.87,38.7,215,84Z"/><path class="cls-1" d="M585,1085v-84c-115.95,2.39-208.87,38.7-215,84Z"/><ellipse class="cls-2" cx="352.98" cy="698.6" rx="23" ry="31.5" transform="translate(-369.28 396.98) rotate(-40.53)"/><ellipse class="cls-2" cx="820" cy="694.48" rx="31.5" ry="23" transform="translate(-126.21 1203.79) rotate(-68.55)"/><ellipse class="cls-2" cx="821.5" cy="649.48" rx="33.5" ry="42.5"/><ellipse class="cls-2" cx="347.5" cy="662.48" rx="33.5" ry="42.5"/><path class="cls-3" d="M829.45,649C838.39,747.91,737,918.7,588.31,919S348.77,767.81,343.23,672.4s87.71-194.21,230.38-196.91c16-.3,33.82.88,33.82.88s61.74,4.73,114.11,29.93C787.09,537.83,825.16,601.41,829.45,649Z"/><ellipse class="cls-4" cx="668.19" cy="639.97" rx="47.09" ry="44.81"/><ellipse class="cls-5" cx="668.05" cy="640.01" rx="25.69" ry="24.44"/><path class="cls-6" d="M621.33,633.86h94.19c0-22.5-21.09-40.73-47.1-40.73S621.33,611.36,621.33,633.86Z"/><circle cx="668.84" cy="645.41" r="4.5"/><ellipse class="cls-4" cx="500.33" cy="638.18" rx="47.09" ry="44.81"/><ellipse class="cls-7" cx="500.19" cy="638.22" rx="25.69" ry="24.44"/><path class="cls-6" d="M453.46,632.07h94.19c0-22.49-21.08-40.73-47.09-40.73S453.46,609.58,453.46,632.07Z"/><circle cx="500.97" cy="643.62" r="4.5"/><path class="cls-8" d="M552.85,870.63c-3.64,8.2-.62,16.63,8.17,21.5s20.25,4.45,24.51,4.29c4-.14,14.11-.51,21.78-5.15,8.63-5.23,11.07-14,6.81-22.36"/><circle class="cls-3" cx="335" cy="678.98" r="19"/><circle class="cls-3" cx="836" cy="675.98" r="19"/><ellipse cx="563.1" cy="734.97" rx="8.05" ry="4.17" transform="translate(-207.04 221.03) rotate(-18.83)"/><ellipse cx="600.76" cy="734.67" rx="4.17" ry="8.05" transform="translate(-288.46 1066.22) rotate(-71.17)"/><line class="cls-8" x1="496.47" y1="807.26" x2="673.34" y2="807.26"/><path class="cls-8" d="M491.05,798.57c3.06,1.62,5.09,4.71,5.05,7.57-.05,3.59-3.34,6.31-7.61,5.65"/><path class="cls-8" d="M678.22,798.91c-3.06,1.61-5.09,4.71-5.05,7.57.05,3.59,3.34,6.31,7.61,5.65"/><circle cx="501.17" cy="640.92" r="7"/><circle cx="670.17" cy="643.92" r="7"/><ellipse class="cls-2" cx="577" cy="475.48" rx="87" ry="61.5"/><circle class="cls-2" cx="410.5" cy="519.48" r="49.5"/><circle class="cls-2" cx="755.5" cy="520.48" r="49.5"/><ellipse class="cls-2" cx="358.28" cy="585.04" rx="50.05" ry="33.26" transform="translate(-327.52 602.8) rotate(-60)"/><ellipse class="cls-2" cx="338" cy="619.98" rx="26" ry="32"/><ellipse class="cls-2" cx="738.18" cy="475.35" rx="20.47" ry="26.04" transform="translate(-72.1 813.46) rotate(-55.43)"/><ellipse class="cls-2" cx="379.5" cy="547.98" rx="36.5" ry="32"/><ellipse class="cls-2" cx="809.21" cy="584.04" rx="33.26" ry="50.05" transform="translate(-188.05 621.34) rotate(-37.96)"/><circle class="cls-2" cx="833.5" cy="623.48" r="25.5"/><ellipse class="cls-2" cx="821.5" cy="657.48" rx="9.5" ry="59.5"/><ellipse class="cls-2" cx="351.5" cy="659.48" rx="9.5" ry="59.5"/><path class="cls-3" d="M609,1004.89V917H562v89.45h.23a23.5,23.5,0,0,0,46.94-1.54Z"/><path class="cls-2" d="M521.76,566.07a32.31,32.31,0,0,0-8.6,0,32.25,32.25,0,0,0-8.35-2.09,33.38,33.38,0,0,0-7.51-.1,33,33,0,0,0-7.32-1.69c-8.19-1-22.21,0-22.61,3.31s13,7.61,21.18,8.6a32.77,32.77,0,0,0,7.51.09,33.52,33.52,0,0,0,7.32,1.7,32.31,32.31,0,0,0,8.6-.05,32.25,32.25,0,0,0,8.35,2.09c8.19,1,15.15-.87,15.55-4.16S530,567.06,521.76,566.07Z"/><ellipse class="cls-2" cx="670" cy="482.98" rx="68" ry="50"/><ellipse class="cls-2" cx="489" cy="482.98" rx="68" ry="50"/><ellipse class="cls-2" cx="787.5" cy="552.98" rx="36.5" ry="32"/><ellipse class="cls-2" cx="428.83" cy="474.23" rx="26.04" ry="20.47" transform="translate(-159.49 223.89) rotate(-24.83)"/><path class="cls-2" d="M648.47,568.47a32.32,32.32,0,0,1,8.6,0,32.27,32.27,0,0,1,8.34-2.09,32.86,32.86,0,0,1,7.52-.09,32.44,32.44,0,0,1,7.31-1.7c8.2-1,22.22,0,22.62,3.31s-13,7.61-21.18,8.6a32.77,32.77,0,0,1-7.51.09,33.52,33.52,0,0,1-7.32,1.7,32.31,32.31,0,0,1-8.6-.05,32.64,32.64,0,0,1-8.35,2.1c-8.19,1-15.15-.88-15.55-4.17S640.27,569.46,648.47,568.47Z"/><polygon class="cls-1" points="688 501.78 798.78 498.75 800.7 351.58 971.22 216.25 693.89 323.19 556.05 498.75 688 501.78"/><polygon class="cls-1" points="472.34 498.32 357.92 498.93 388.54 321.63 166.45 217.55 500.13 310.87 610.82 497.74 472.34 498.32"/><polygon points="556.05 498.75 424.52 498.76 609.58 282.01 606.32 88.34 709.89 323.16 671.81 501.78 556.05 498.75"/><rect x="349.42" y="489.65" width="94.6" height="29.33" rx="12"/><rect class="cls-1" x="424.11" y="489.65" width="255.17" height="29.33"/><rect x="664.35" y="489.65" width="131.94" height="29.33"/><rect x="716.62" y="489.65" width="94.6" height="29.33" rx="12"/><ellipse class="cls-9" cx="607.71" cy="88.59" rx="11.83" ry="9.61"/><ellipse class="cls-9" cx="165.83" cy="217.05" rx="11.83" ry="9.61"/><ellipse class="cls-9" cx="971.17" cy="218.06" rx="11.83" ry="9.61"/><circle class="cls-9" cx="585.5" cy="1041.48" r="5.5"/><circle class="cls-9" cx="585.5" cy="1077.48" r="5.5"/><circle class="cls-9" cx="585.5" cy="1059.48" r="5.5"/><path d="M562,1002v26h23C572.3,1028,562,1016.34,562,1002Z"/><path class="cls-1" d="M609,1002v26H586C598.7,1028,609,1016.34,609,1002Z"/></svg>