<svg id="Layer_1" data-name="Layer 1" xmlns="http://www.w3.org/2000/svg" width="1920" height="1080" viewBox="0 0 1920 1080"><defs><style>.cls-1{fill:#c69c6d;}.cls-2{fill:gray;}.cls-3{fill:#999;}.cls-4{fill:#42210b;}</style></defs><path class="cls-1" d="M1860,806l-38,66"/><path class="cls-2" d="M1004.49,24.83V87.77h-38V24.83h-60V87.77h-41V24.83h-60V362.66h7V299.72h60v62.94h44V299.72h60v62.94h44V299.72h44V24.83ZM857,279c0-88.92,35.14-161,78.5-161s78.5,72.08,78.5,161Z"/><path class="cls-3" d="M1673.49,24.83V87.77h-38V24.83h-60V87.77h-41V24.83h-60V930h259V24.83ZM1525.9,683c0-88.92,35.15-161,78.5-161s78.5,72.08,78.5,161Zm4.26-404c0-88.92,35.15-161,78.5-161s78.5,72.08,78.5,161Z"/><polygon class="cls-2" points="420.49 930.02 433.49 930.02 433.49 299.72 433.49 298.79 420.49 298.79 420.49 930.02"/><path class="cls-3" d="M360.49,24.83V87.77h-38V24.83h-60V87.77h-41V24.83h-60V930h259V24.83ZM211.54,683c0-88.92,35.15-161,78.5-161s78.5,72.08,78.5,161Zm1.39-404c0-88.92,35.14-161,78.5-161s78.5,72.08,78.5,161Z"/><path class="cls-3" d="M1414.49,298.79v63.87h-34V299.72h-60v62.94h-36V299.72h-60v62.94h-38V299.72h-60v62.94h-46V299.72h-60v62.94h-44V299.72h-60v62.94h-44V299.72h-60v62.94h-40V299.72h-60v62.94h-33V299.72h-60v62.94h-38V299.72h-60v62.94h-41V299.72h-47V930h392.7v0h199v0h437.3V298.79ZM532.56,683c0-88.92,35.15-161,78.5-161s78.5,72.08,78.5,161Zm324,0c0-88.92,35.15-161,78.5-161s78.5,72.08,78.5,161Zm334.26,0c0-88.92,35.14-161,78.5-161s78.5,72.08,78.5,161Z"/><polygon class="cls-2" points="1462.49 298.79 1462.49 930.02 1462.49 930.02 1474.49 930.02 1474.49 362.66 1474.49 298.79 1462.49 298.79 1462.49 298.79"/><path class="cls-4" d="M826.19,930v0h199v0Z"/></svg>