<svg id="Layer_1" data-name="Layer 1" xmlns="http://www.w3.org/2000/svg" width="1920" height="1080" viewBox="0 0 1920 1080"><defs><style>.cls-1{fill:#ccc;}</style></defs><polygon class="cls-1" points="812.47 299.49 872.47 299.49 872.47 362.42 916.47 362.42 916.47 299.49 976.47 299.49 976.47 362.42 1020.47 362.42 1020.47 299.49 1064.47 299.49 1064.47 88.46 1064.47 87.53 1064.47 24.6 1004.47 24.6 1004.47 87.53 966.47 87.53 966.47 24.6 906.47 24.6 906.47 87.53 865.47 87.53 865.47 24.6 805.47 24.6 805.47 87.53 805.47 88.46 805.47 362.42 812.47 362.42 812.47 299.49"/><polygon class="cls-1" points="1673.47 24.6 1673.47 87.53 1635.47 87.53 1635.47 24.6 1575.47 24.6 1575.47 87.53 1534.47 87.53 1534.47 24.6 1474.47 24.6 1474.47 87.53 1474.47 88.46 1474.47 298.56 1474.47 362.42 1474.47 929.79 1721.47 929.79 1733.47 929.79 1733.47 88.46 1733.47 87.53 1733.47 24.6 1673.47 24.6"/><polygon class="cls-1" points="433.47 299.49 433.47 298.56 420.47 298.56 420.47 299.49 420.47 362.42 420.47 363.35 420.47 929.79 433.47 929.79 433.47 299.49"/><polygon class="cls-1" points="420.47 362.42 420.47 299.49 420.47 298.56 420.47 88.46 420.47 87.53 420.47 24.6 360.47 24.6 360.47 87.53 322.47 87.53 322.47 24.6 262.47 24.6 262.47 87.53 221.47 87.53 221.47 24.6 161.47 24.6 161.47 87.53 161.47 88.46 161.47 929.79 174.47 929.79 420.47 929.79 420.47 363.35 420.47 362.42"/><polygon class="cls-1" points="1462.47 298.56 1414.47 298.56 1414.47 362.42 1380.47 362.42 1380.47 299.49 1320.47 299.49 1320.47 362.42 1284.47 362.42 1284.47 299.49 1224.47 299.49 1224.47 362.42 1186.47 362.42 1186.47 299.49 1126.47 299.49 1126.47 362.42 1080.47 362.42 1080.47 299.49 1064.47 299.49 1020.47 299.49 1020.47 362.42 976.47 362.42 976.47 299.49 916.47 299.49 916.47 362.42 872.47 362.42 872.47 299.49 812.47 299.49 812.47 362.42 805.47 362.42 772.47 362.42 772.47 299.49 712.47 299.49 712.47 362.42 679.47 362.42 679.47 299.49 619.47 299.49 619.47 362.42 581.47 362.42 581.47 299.49 521.47 299.49 521.47 362.42 480.47 362.42 480.47 299.49 433.47 299.49 433.47 929.79 805.47 929.79 1064.47 929.79 1462.47 929.79 1462.47 298.56"/><polygon class="cls-1" points="1474.47 298.56 1462.47 298.56 1462.47 929.79 1474.47 929.79 1474.47 362.42 1474.47 298.56"/></svg>