<svg id="Layer_1" data-name="Layer 1" xmlns="http://www.w3.org/2000/svg" width="1920" height="1080" viewBox="0 0 1920 1080"><defs><style>.cls-1{fill:#29abe2;}.cls-2{fill:#39994a;}.cls-3{fill:#39a34a;}.cls-4{fill:#39af4a;}.cls-5{fill:#39a94a;}.cls-6{fill:#39b54a;}.cls-10,.cls-17,.cls-33,.cls-7{fill:#fff;}.cls-7{opacity:0.64;}.cls-8{fill:#c69c6d;}.cls-9{fill:#ffdf00;}.cls-10{opacity:0.68;}.cls-11{fill:#dbac99;}.cls-12{fill:#42210b;}.cls-13{fill:#42170b;}.cls-14{fill:#ffffd5;}.cls-15{fill:#754c24;}.cls-16{fill:#603813;}.cls-18{fill:#22b573;}.cls-19{fill:#e1916d;}.cls-20{fill:none;stroke:#000;stroke-miterlimit:10;}.cls-21{fill:#f0f;}.cls-22{fill:#fbc03b;}.cls-23{fill:#999;}.cls-24{fill:#ccc;}.cls-25{fill:gray;}.cls-26{fill:#18670a;}.cls-27{fill:#a67c52;}.cls-28{fill:#8c6239;}.cls-29{fill:#ff3c24;}.cls-30{fill:#006837;}.cls-31{fill:#ed1c24;}.cls-32{fill:#d9e021;}.cls-33{opacity:0.73;}.cls-34{fill:#ffba00;}.cls-35{fill:#a6835b;}.cls-36{fill:#a68353;}</style></defs><rect class="cls-1" y="1" width="1923" height="641"/><path class="cls-2" d="M1920,738V513C1227.91,470.91,675.92,530.86,790,738Z"/><path class="cls-3" d="M480.58,558C257.59,475.39,80.39,506.93.32,595.8a7,7,0,0,1,.06.82c0,13.84,1.06,27.69,1,41.53A4.74,4.74,0,0,1,3.52,641c3.17,10.69,5.92,21.49,7,32.63s-.5,22.62.17,33.94c.35,5.8,1.49,11.53,1.46,17.35s-.54,11.33-.69,17C11.15,752,10.62,762,9.54,772H480.32L1302,763C1306.85,652.92,778.73,668.46,480.58,558Z"/><path class="cls-4" d="M0,862H1055C1024.94,736.32,569,635.59,0,629Z"/><path class="cls-5" d="M1920,830V689.22c-613.18,4-1104.6,64.86-1137,140.78Z"/><rect class="cls-6" y="830" width="1920" height="250"/><path class="cls-7" d="M1852.71,91a11.31,11.31,0,0,0,3.19-7.76c0-6.8-6.36-12.31-14.19-12.31a15.17,15.17,0,0,0-10.64,4.16,17.85,17.85,0,0,0-14.24-6.65c-6.74,0-12.57,3.4-15.34,8.32l-1.88,0h-1.14C1795.4,69.31,1787.22,64,1777.61,64c-9.1,0-16.9,4.75-20.32,11.54-16,1.22-28.32,7.84-28.32,15.83a8.09,8.09,0,0,0,.63,3.09c-5.4,1.26-8.6,2.82-8.6,4.52,0,2.3,5.92,4.37,15.28,5.76a6.87,6.87,0,0,0-.61,2.81c0,6.64,9.85,12,22,12a36.11,36.11,0,0,0,12.21-2,14.24,14.24,0,0,0,13.71,1,25.79,25.79,0,0,0,16,5.18,26.4,26.4,0,0,0,14.84-4.3,20.35,20.35,0,0,0,13.06,4.58c7.35,0,13.71-3.65,16.81-9a16.57,16.57,0,0,0,2,.12c8.1,0,14.67-5.69,14.67-12.72C1861,97.39,1857.62,93,1852.71,91Z"/><polygon class="cls-8" points="1620 694.37 1663.05 829 1797 829 1743.76 690 1620 694.37"/><polygon class="cls-8" points="1552 531 1583 697 1689 694 1638 531 1552 531"/><polygon class="cls-8" points="1815 830 1253 960 799.19 1080 233.4 1080 233.4 1015.57 1595.11 828 1815 830"/><polygon class="cls-9" points="1121 61 1124.85 141.1 1148.91 64.45 1132.3 142.97 1175.06 74.6 1139.05 146.61 1197.82 90.8 1144.66 151.77 1215.75 112.04 1148.79 158.14 1227.73 136.97 1151.17 165.31 1233 164.05 1151.65 172.84 1231.23 191.55 1150.21 180.25 1222.54 217.77 1146.93 187.07 1207.47 241.04 1142.02 192.89 1186.96 259.9 1135.79 197.32 1162.31 273.18 1128.63 200.1 1135.06 280.04 1121 201.04 1106.93 280.04 1113.36 200.1 1079.68 273.18 1106.2 197.32 1055.03 259.9 1099.97 192.89 1034.53 241.04 1095.06 187.07 1019.45 217.77 1091.79 180.25 1010.76 191.55 1090.34 172.84 1008.99 164.05 1090.83 165.31 1014.26 136.97 1093.2 158.14 1026.24 112.04 1097.33 151.77 1044.17 90.8 1102.94 146.61 1066.93 74.6 1109.69 142.97 1093.09 64.45 1117.15 141.1 1121 61"/><polygon class="cls-8" points="233.4 1015.57 79.19 1080 233.4 1080 233.4 1015.57"/><path class="cls-10" d="M1263.29,199.44a14.24,14.24,0,0,0,.64-4.22c0-11.4-13.57-20.63-30.31-20.63a41.21,41.21,0,0,0-16.09,3.14C1216.44,169,1199.15,162,1178,162c-19.17,0-35.16,5.7-38.83,13.28a12.39,12.39,0,0,0-2-.17c-5.6,0-10.13,3.84-10.13,8.57a7.45,7.45,0,0,0,.08,1.06c-13.36,2.94-23,11.65-23,21.93,0,12.69,14.77,23,33,23a44.8,44.8,0,0,0,14.64-2.39,19.11,19.11,0,0,0,11.53,3.61,20,20,0,0,0,9.59-2.34,49.37,49.37,0,0,0,25,6.36,55.33,55.33,0,0,0,8.94-.72A36.08,36.08,0,0,0,1221.1,237c13,0,23.59-6,23.59-13.46,0-.24,0-.47,0-.71a67.06,67.06,0,0,0,9.86.71c16.28,0,29.48-5.52,29.48-12.33C1284,205.68,1275.29,201,1263.29,199.44Zm-97.77-4.35q-.35-.41-.72-.81l1.32.18Z"/><path class="cls-11" d="M111.73,766.41l9.09-2.62a13.91,13.91,0,0,1,.68-1.46l-7.66-1.54a2.38,2.38,0,1,1,1-4.67l10.52,2.11a11.74,11.74,0,0,1,9.16-1.57l.09,0L210.69,711a7.3,7.3,0,0,1,9.93,2.4l1,1.71a7.13,7.13,0,0,1-2.43,9.82L143,770.7a11.47,11.47,0,0,1-3.82,6l-1.61,7.82a2.41,2.41,0,0,1-4.72-1l.9-4.36a12.13,12.13,0,0,1-2.49.17L125.83,787a2.43,2.43,0,0,1-3.35.58h0a2.38,2.38,0,0,1-.59-3.33L126.3,778a11.18,11.18,0,0,1-2.7-1.94l-7.1,4.26a2.43,2.43,0,0,1-3.31-.8h0a2.38,2.38,0,0,1,.81-3.27l6.91-4.15a11.48,11.48,0,0,1-.78-3.18l-7,2a2.39,2.39,0,1,1-1.35-4.58Z"/><path class="cls-11" d="M472.26,766.76l-9.09-2.62a10.78,10.78,0,0,0-.68-1.46l7.66-1.54a2.39,2.39,0,1,0-1-4.68l-10.52,2.13a11.74,11.74,0,0,0-9.16-1.57l-.09,0L373.26,711.4a7.29,7.29,0,0,0-9.92,2.42l-1,1.7a7.14,7.14,0,0,0,2.44,9.83L441,771.07a11.46,11.46,0,0,0,3.83,6l1.61,7.82a2.41,2.41,0,0,0,4.72-1l-.9-4.36a12.13,12.13,0,0,0,2.49.17l5.42,7.61a2.43,2.43,0,0,0,3.36.57h0a2.38,2.38,0,0,0,.58-3.32l-4.41-6.19a11.67,11.67,0,0,0,2.7-1.94l7.1,4.25a2.43,2.43,0,0,0,3.31-.8h0a2.39,2.39,0,0,0-.82-3.28l-6.91-4.14a11.48,11.48,0,0,0,.78-3.18l7.05,2a2.42,2.42,0,0,0,3-1.63A2.37,2.37,0,0,0,472.26,766.76Z"/><path class="cls-12" d="M384.06,1047c-3.46,13.62-27.67,4.59-50.25-1s-35-5.69-31.53-19.32-3.87-20.62,18.72-15S387.52,1033.39,384.06,1047Z"/><path class="cls-12" d="M195,1049.5c4.24,13.41,27.89,3,50.1-3.89s34.6-7.67,30.36-21.08,2.65-20.81-19.56-13.92S190.76,1036.1,195,1049.5Z"/><path d="M395.05,799.67c0-40.4-41.16,7.23-99,7.23s-110.56-47.63-110.56-7.23c0,26.06,19.54,48.94,48.94,61.89L221.69,1025h52.68V872a150.39,150.39,0,0,0,15.88.84q6,0,11.77-.46V1025h50.81L342,863.28C373.68,850.7,395.05,826.93,395.05,799.67Z"/><path class="cls-13" d="M371,742.12l8.06-14.32,8.08-14.33c-14.89-8.22-30.58-8.47-35-.56S356.1,733.89,371,742.12Z"/><path class="cls-13" d="M179,808.05H402.28c0-67.61-50-122.43-111.63-122.43S179,740.44,179,808.05Z"/><rect class="cls-14" x="279.68" y="686.04" width="19.82" height="122.01"/><ellipse class="cls-15" cx="305.01" cy="703.88" rx="2.94" ry="2.85"/><ellipse class="cls-15" cx="305.01" cy="720.29" rx="2.94" ry="2.85"/><ellipse class="cls-15" cx="305.01" cy="736.7" rx="2.94" ry="2.85"/><ellipse class="cls-15" cx="305.01" cy="753.11" rx="2.94" ry="2.85"/><ellipse class="cls-15" cx="305.01" cy="769.52" rx="2.94" ry="2.85"/><ellipse class="cls-15" cx="305.01" cy="785.93" rx="2.94" ry="2.85"/><ellipse class="cls-15" cx="305.01" cy="802.34" rx="2.94" ry="2.85"/><ellipse cx="271.98" cy="703.7" rx="4.04" ry="0.54"/><ellipse cx="271.98" cy="719.76" rx="4.04" ry="0.54"/><ellipse cx="271.98" cy="737.24" rx="4.04" ry="0.54"/><ellipse cx="271.98" cy="753.65" rx="4.04" ry="0.54"/><ellipse cx="271.98" cy="770.06" rx="4.04" ry="0.54"/><ellipse cx="271.98" cy="785.76" rx="4.04" ry="0.54"/><ellipse cx="271.98" cy="802.17" rx="4.04" ry="0.54"/><path class="cls-13" d="M207.32,744.62l-7.65-14.54L192,715.53c15.12-7.8,30.81-7.61,35,.42S222.45,736.82,207.32,744.62Z"/><ellipse class="cls-16" cx="372.24" cy="566.17" rx="11.08" ry="10.76"/><ellipse class="cls-16" cx="208.97" cy="566.17" rx="11.08" ry="10.76"/><ellipse class="cls-16" cx="210.64" cy="575.31" rx="5.36" ry="5.2"/><ellipse class="cls-16" cx="370.58" cy="575.31" rx="5.36" ry="5.2"/><ellipse class="cls-16" cx="366.89" cy="549.68" rx="17.92" ry="19.36"/><ellipse class="cls-16" cx="213.22" cy="552.9" rx="17.92" ry="19.36"/><path class="cls-11" d="M373,544.43c3,44-31.2,120-81.35,120.14S210.86,597.31,209,554.86s29.58-86.42,77.71-87.62c5.38-.13,11.41.39,11.41.39S319,469.74,336.61,481C358.72,495,371.57,523.27,373,544.43Z"/><ellipse class="cls-17" cx="319.05" cy="545.22" rx="17.4" ry="16.07"/><ellipse class="cls-18" cx="319" cy="545.23" rx="9.49" ry="8.76"/><path class="cls-19" d="M301.74,543h34.79c0-8.07-7.79-14.61-17.39-14.61S301.74,535,301.74,543Z"/><ellipse cx="319.29" cy="547.17" rx="1.66" ry="1.61"/><ellipse class="cls-17" cx="261.85" cy="545.65" rx="17.4" ry="16.07"/><ellipse class="cls-18" cx="261.8" cy="545.66" rx="9.49" ry="8.76"/><path class="cls-19" d="M244.54,543.46h34.79c0-8.07-7.79-14.61-17.4-14.61S244.54,535.39,244.54,543.46Z"/><ellipse cx="262.09" cy="547.6" rx="1.66" ry="1.61"/><ellipse cx="301.13" cy="579.99" rx="1.62" ry="2.44" transform="translate(-349.1 645.31) rotate(-68.3)"/><path class="cls-20" d="M282.53,636.71a6.76,6.76,0,0,0,2.29,7.85c2.47,1.78,5.68,1.63,6.87,1.57a10.68,10.68,0,0,0,6.1-1.88,6.9,6.9,0,0,0,1.9-8.16"/><ellipse cx="281.8" cy="580.05" rx="2.44" ry="1.62" transform="translate(-194.51 145.31) rotate(-21.7)"/><ellipse class="cls-11" cx="208.27" cy="568.34" rx="7.02" ry="6.81"/><ellipse class="cls-11" cx="373.02" cy="568.34" rx="7.02" ry="6.81"/><ellipse class="cls-16" cx="289.13" cy="465.06" rx="9.23" ry="7.89"/><ellipse class="cls-16" cx="360.61" cy="496.79" rx="11.64" ry="11.29"/><ellipse class="cls-16" cx="223.93" cy="496.61" rx="13.48" ry="15.06"/><ellipse class="cls-16" cx="229.66" cy="501.99" rx="12.56" ry="10.4"/><ellipse class="cls-16" cx="252.38" cy="490.87" rx="20.45" ry="3.95" transform="translate(-133.9 96.62) rotate(-17.21)"/><ellipse class="cls-16" cx="344.54" cy="493.38" rx="15.88" ry="15.42"/><ellipse class="cls-16" cx="288.95" cy="478.15" rx="33.06" ry="17.03"/><ellipse class="cls-16" cx="235.94" cy="479.22" rx="13.3" ry="11.29"/><ellipse class="cls-16" cx="306.31" cy="459.86" rx="7.94" ry="7.71"/><ellipse class="cls-16" cx="320.9" cy="485.5" rx="15.14" ry="10.4"/><ellipse class="cls-16" cx="338.81" cy="474.92" rx="12.74" ry="12.37"/><ellipse class="cls-16" cx="319.24" cy="467.93" rx="19.39" ry="12.91"/><ellipse class="cls-16" cx="274.72" cy="467.39" rx="12.93" ry="9.14"/><ellipse class="cls-16" cx="260.13" cy="477.97" rx="19.39" ry="12.91"/><ellipse class="cls-16" cx="241.11" cy="488.01" rx="15.88" ry="15.42"/><ellipse class="cls-16" cx="349.71" cy="485.5" rx="15.88" ry="15.42"/><ellipse class="cls-16" cx="356.17" cy="505.4" rx="12.74" ry="12.37"/><ellipse class="cls-16" cx="367.07" cy="516.69" rx="15.14" ry="16.13"/><ellipse class="cls-16" cx="219.87" cy="514" rx="17.07" ry="14.56" transform="translate(-335.6 577.18) rotate(-73.33)"/><ellipse class="cls-16" cx="254.78" cy="473.48" rx="18.84" ry="13.8"/><ellipse class="cls-16" cx="213.41" cy="533.54" rx="14.78" ry="16.85"/><ellipse class="cls-16" cx="210.64" cy="552.72" rx="9.05" ry="8.78"/><ellipse class="cls-16" cx="372.06" cy="553.08" rx="9.05" ry="8.78"/><ellipse class="cls-16" cx="373.35" cy="536.77" rx="14.78" ry="16.85"/><ellipse class="cls-16" cx="281.74" cy="465.24" rx="26.6" ry="15.24"/><ellipse class="cls-16" cx="261.98" cy="487.83" rx="10.53" ry="8.07"/><path class="cls-20" d="M250.54,594.09c7,14,23,23,40.42,23,18.06-.05,34.3-9.92,40.56-24.71"/><path class="cls-20" d="M244,593.44a6.1,6.1,0,0,0,7.47.09,5.57,5.57,0,0,0,1.81-5.67"/><path class="cls-20" d="M339,592.64a6.09,6.09,0,0,1-7.47-.31,5.57,5.57,0,0,1-1.48-5.76"/><rect class="cls-11" x="279.9" y="656.17" width="19.95" height="31.19"/><path class="cls-11" d="M299.84,687.36H279.9c0,6,4.46,10.82,10,10.82S299.84,693.33,299.84,687.36Z"/><path class="cls-15" d="M276.94,521.53c0,1.88-5.88.18-14,.18s-15.51,1.7-15.51-.18,6.61-3.41,14.78-3.41S276.94,519.65,276.94,521.53Z"/><path class="cls-15" d="M304.41,521.37c0,1.88,5.88.18,14,.18s15.51,1.7,15.51-.18-6.62-3.4-14.78-3.4S304.41,519.49,304.41,521.37Z"/><path class="cls-21" d="M1642.2,158.39l9.38-15.61L1623,143v0h-30.09a2.28,2.28,0,0,1,1.71,2.17v28.81h22.67l.12.16,34.56-.2Zm-24,3.85c-14.93,0-17,3.73-17,3.73,0-1.21,1.65-2.31,4.36-3.14l1.26-3.21,1.43-3.65,2.43,3.07,2,2.49.16,0,2.52-6.94,2.62-7.2,2.92,7.08,2.92,7.08.22,0,2.36-2.74,2.56-3,1.27,3.71,1.18,3.42c2.44.81,3.9,1.85,3.9,3C1635.26,166,1633.14,162.24,1618.21,162.24Z"/><path class="cls-22" d="M1631.36,163l-1.18-3.42-1.27-3.71-2.56,3-2.36,2.74-.22,0-2.92-7.08-2.92-7.08-2.62,7.2-2.52,6.94-.16,0-2-2.49-2.43-3.07-1.43,3.65-1.26,3.21c-2.71.83-4.36,1.93-4.36,3.14,0,0,2.1-3.73,17-3.73s17,3.73,17,3.73C1635.26,164.83,1633.8,163.79,1631.36,163Z"/><path class="cls-8" d="M1592.94,142.93a2.43,2.43,0,0,0-.61-.08,2.3,2.3,0,0,0-2.33,2.25v66.65a2.33,2.33,0,0,0,4.65,0V145.1A2.28,2.28,0,0,0,1592.94,142.93Z"/><polygon class="cls-23" points="1788 218 1788 237 1777 237 1777 218 1758 218 1758 237 1746 237 1746 218 1727 218 1727 237 1727 304 1635 304 1635 215 1635 196 1616 196 1616 215 1604 215 1604 196 1585 196 1585 215 1574 215 1574 196 1555 196 1555 215 1555 304 1463 304 1463 237 1463 218 1444 218 1444 237 1432 237 1432 218 1413 218 1413 237 1402 237 1402 218 1383 218 1383 237 1383 304 1383 531 1807 531 1807 304 1807 237 1807 218 1788 218"/><path class="cls-12" d="M1552,531h86c0-48.05-19.25-87-43-87S1552,483,1552,531Z"/><path class="cls-24" d="M1572.83,275H1618c0-24.85-10.11-45-22.59-45S1572.83,250.15,1572.83,275Z"/><path class="cls-24" d="M1746.07,305h45.18c0-24.85-10.12-45-22.59-45S1746.07,280.15,1746.07,305Z"/><path class="cls-24" d="M1398.07,305h45.18c0-24.85-10.12-45-22.59-45S1398.07,280.15,1398.07,305Z"/><path class="cls-24" d="M1398.07,401h45.18c0-24.85-10.12-45-22.59-45S1398.07,376.15,1398.07,401Z"/><path class="cls-24" d="M1398.07,497h45.18c0-24.85-10.12-45-22.59-45S1398.07,472.15,1398.07,497Z"/><path class="cls-24" d="M1573.07,401h45.18c0-24.85-10.12-45-22.59-45S1573.07,376.15,1573.07,401Z"/><path class="cls-24" d="M1746.07,401h45.18c0-24.85-10.12-45-22.59-45S1746.07,376.15,1746.07,401Z"/><path class="cls-24" d="M1746.07,498h45.18c0-24.85-10.12-45-22.59-45S1746.07,473.15,1746.07,498Z"/><path class="cls-24" d="M1657.07,401h45.18c0-24.85-10.12-45-22.59-45S1657.07,376.15,1657.07,401Z"/><path class="cls-24" d="M1485.07,401h45.18c0-24.85-10.12-45-22.59-45S1485.07,376.15,1485.07,401Z"/><path class="cls-24" d="M1657.07,498h45.18c0-24.85-10.12-45-22.59-45S1657.07,473.15,1657.07,498Z"/><path class="cls-24" d="M1485.07,498h45.18c0-24.85-10.12-45-22.59-45S1485.07,473.15,1485.07,498Z"/><rect class="cls-23" x="1463" y="285" width="19" height="19"/><rect class="cls-23" x="1504" y="285" width="19" height="19"/><rect class="cls-25" x="1544" y="285" width="19" height="19"/><rect class="cls-25" x="1583" y="285" width="19" height="19"/><rect class="cls-25" x="1624" y="285" width="19" height="19"/><rect class="cls-23" x="1708" y="285" width="19" height="19"/><rect class="cls-23" x="1666" y="285" width="19" height="19"/><path class="cls-26" d="M1867.63,528.13c-2.35-2.92-7.55-5.11-13.89-5.72v-.17a3.53,3.53,0,0,0-3.59-3.46,4.21,4.21,0,0,0-.5,0,18.54,18.54,0,0,0-11.48-7.6,4.94,4.94,0,0,0,.17-1.28c0-3.69-4-6.69-8.91-6.69a11.47,11.47,0,0,0-3.15.44c-1.51-3.89-5.73-6.69-10.71-6.69s-9.22,2.81-10.72,6.71a5.62,5.62,0,0,0-.58,0,8.33,8.33,0,0,0-8.56,8.08,7.73,7.73,0,0,0,.37,2.37,15.19,15.19,0,0,0-6.66,7,1.33,1.33,0,0,0-.9-.41c-1.08,0-2,1.67-2.19,3.9-5.49.26-9.8,2.61-9.8,5.48a3.19,3.19,0,0,0,.55,1.73c-4.77.57-8.08,1.8-8.08,3.23,0,2,6.25,3.56,14,3.56.94,0,1.85,0,2.73-.07a14.63,14.63,0,0,0,7,1.58,14.41,14.41,0,0,0,7.15-1.7,25.33,25.33,0,0,0,12.46.86,36.78,36.78,0,0,0,8.21.84,41.5,41.5,0,0,0,6-.41,23.77,23.77,0,0,0,6.29.84,23.38,23.38,0,0,0,7.15-1.1,33.52,33.52,0,0,0,10.31,1.53,31.58,31.58,0,0,0,12.36-2.31,16.9,16.9,0,0,0,3.56.37c5.48,0,9.93-2.46,9.93-5.5C1876,530.82,1872.37,528.54,1867.63,528.13Z"/><path class="cls-26" d="M1452.63,534.87a6.08,6.08,0,0,0-3.25-1.9,2.1,2.1,0,0,0,1.3-1.68c0-1.14-1.56-2.11-3.75-2.49a2.61,2.61,0,0,0,.12-.79c0-2.11-2.33-3.82-5.21-3.82a7.14,7.14,0,0,0-1.82.24,11,11,0,0,0-8-3.09,13.74,13.74,0,0,0-1.84.13c-3-1.4-7.73-2.4-13.26-2.7a11.67,11.67,0,0,0-8.49-3.29,12.71,12.71,0,0,0-6.5,1.7,19.74,19.74,0,0,0-7.57-2.75,2.29,2.29,0,0,0,.15-.82c0-2.79-5.2-5.06-11.61-5.06h0c0-.06,0-.12,0-.18,0-3.77-5.73-6.83-12.86-6.92a24,24,0,0,0-13.52-3.92,26.63,26.63,0,0,0-6.15.72A22.06,22.06,0,0,0,1343,497c-6.81,0-12.68,3-15.37,7.22a15.3,15.3,0,0,0-1.81-.11c-5,0-9.2,2.47-10.48,5.83-6,.86-10.09,2.74-10.09,4.92a2.48,2.48,0,0,0,1,1.79c-5.34.92-9.54,4.26-10.09,8.49a6.89,6.89,0,0,0,0,1.87,7.45,7.45,0,0,0-2.26-.34c-2.27,0-4.12.92-4.12,2.05a1.42,1.42,0,0,0,.59,1c-2.93.89-4.7,2-4.7,3.3,0,.95,1,1.85,2.79,2.61-3.86.35-6.42,1-6.42,1.65,0,1.08,6.18,2,13.79,2a54.37,54.37,0,0,0,12.29-1.07,9.7,9.7,0,0,0,3.69.71,9.6,9.6,0,0,0,3.79-.75c6.16,1,18,1.64,31.54,1.64a275.49,275.49,0,0,0,28.42-1.23,86,86,0,0,0,14.17,1c1.6,0,3.16,0,4.66-.1,3.18.3,6.57.46,10.1.46a108.24,108.24,0,0,0,11.45-.59,22.36,22.36,0,0,0,9.45-.2,37.24,37.24,0,0,0,12,.23c.51,0,1,0,1.57,0a40.85,40.85,0,0,0,8.84-.89h.23c4.41,0,8-.92,8-2C1456,535.85,1454.67,535.24,1452.63,534.87Z"/><path class="cls-27" d="M635.4,857.86a2.92,2.92,0,0,0-1.57,1.25,16,16,0,0,1-.7,2.87,9.5,9.5,0,0,0,.29,2.42c.89,3.48,3.46,6.31,4.17,9.89a10.63,10.63,0,0,1-.36,5.45c-.63,1.9-1.64,3.64-2.16,5.57a10.26,10.26,0,0,0,2.55,9.62,1.37,1.37,0,0,1,.41,1,65.82,65.82,0,0,0-2-38.47A1.42,1.42,0,0,1,635.4,857.86Z"/><path class="cls-27" d="M635.5,897.05A13.35,13.35,0,0,1,631.89,886c.32-2.22,1.36-4.16,2.16-6.24a8.51,8.51,0,0,0,.22-6.2c-.88-2.56-2.38-4.81-3.31-7.28-7.9,11.72-30.38,20.18-56.9,20.18-31.29,0-57-11.78-59.68-26.8a65.51,65.51,0,0,0-3.21,20.26c0,36,28.84,65.1,64.42,65.1a64.55,64.55,0,0,0,62.24-48.33A1.43,1.43,0,0,1,635.5,897.05Z"/><path class="cls-27" d="M574.09,880.36c35.12,0,50-10.44,56.1-17.37a3.31,3.31,0,0,1,0-.33c-.16-3.17,1.09-6.38,4.17-7.57a1.44,1.44,0,0,1,.23-.88,2.43,2.43,0,0,1,.14-.2c-.14-.32-.27-.65-.41-1C624,868.87,601.13,879.9,574.5,879.9c-25.52,0-47.63-10.13-58.44-24.91q-.69,1.71-1.29,3.45C517.41,863.54,529.53,880.36,574.09,880.36Z"/><path class="cls-28" d="M574.5,879.9c26.63,0,49.54-11,59.78-26.86A33.92,33.92,0,0,0,640,834.45c0-25.1-29.33-45.45-65.5-45.45S509,809.35,509,834.45A34.6,34.6,0,0,0,516.06,855C526.87,869.77,549,879.9,574.5,879.9Zm-11.85-84.49a1.18,1.18,0,0,1,.39-.08h0a78,78,0,0,1,11.15-.8A75.5,75.5,0,0,1,589.09,796c-.15-.36-.19-.67.08-.81a2.22,2.22,0,0,1,1.64.26,1.66,1.66,0,0,1,.89,1.12c22.06,5.28,38,20.24,38,37.89,0,22-24.82,39.92-55.44,39.92s-55.45-17.87-55.45-39.92C518.78,815.26,537.59,799.24,562.65,795.41Z"/><path class="cls-27" d="M565,797.13c1.61,1.3,3.66-.68,5.87,0a8.18,8.18,0,0,1,3.12,2,.23.23,0,0,1,0-.11c0-.42,2.36.3,5.66-.12s3.52-1.46,6.18-1.25c2,.16,3.29.89,3.84.48s-.25-1.46-.57-2.23a75.5,75.5,0,0,0-14.86-1.46,78,78,0,0,0-11.15.8C564,795.35,564.2,796.47,565,797.13Z"/><path class="cls-27" d="M574.23,874.37c30.62,0,55.44-17.87,55.44-39.92,0-17.65-15.91-32.61-38-37.89a5.54,5.54,0,0,0,.54,1.45c1.26,2,4.79,1.92,7.07,3.89,2,1.75,3.26,4.24,3.25,5.38a15.72,15.72,0,0,1,2.51,6.49c.55.28,1.09.58,1.62.89,2.2,0,2.88-.86,4.79-.19,1.65.57,2.41,1.61,3,1.28.91-.5-.13-3.13.74-3.44.38-.14,1,.21,1.27.6.72.86.07,1.85.23,3.1.3,2.42,3.27,3,4.43,5.66a10.63,10.63,0,0,1,.68,6.56,21.18,21.18,0,0,1-1.58,11.3c-2.47,8.58-11.47,15.82-23.84,19.82a16.16,16.16,0,0,1-1.91,1.26,15.11,15.11,0,0,1-11,1.53q-3.56.43-7.29.53a15.7,15.7,0,0,1-2,.14,15.54,15.54,0,0,1-1.94-.14c-2.55-.06-5-.23-7.47-.53a15,15,0,0,1-6.41-.29,16.28,16.28,0,0,1-4.12-1.79,59.43,59.43,0,0,1-8.44-3.07,15.72,15.72,0,0,1-3.52-1.68c-.22-.14-.42-.3-.63-.45-8.81-5.08-14.3-12.21-14.3-20.1a17.57,17.57,0,0,1,.37-3.48,21.92,21.92,0,0,1,.27-5.22c-1.64,1.39-3.38,2.17-3.62,1.86s2-2.23,4.23-6,1.48-4.85,3.68-7.45c1.7-2,3.26-2.71,3.34-3.62.13-1.34-3.18-.7-2.9-1.93a3.08,3.08,0,0,1,1.47-1.5c1.34-.69,1.89.42,3.23.57,2.6.27,5.26-3.45,8.64-4.25,3-.71,6,0,7,.93a15.76,15.76,0,0,1,4.34,1c.17-.2.36-.4.54-.64,1.76-2.22,1.43-3.4,3.09-4.64,1.27-1,2.32-.91,2.47-1.62.22-1-1.93-1.89-1.62-2.79a1,1,0,0,1,.68-.56c-25.06,3.83-43.87,19.85-43.87,39C518.78,856.5,543.61,874.37,574.23,874.37Z"/><path class="cls-27" d="M577,800.7a8,8,0,0,1-2.72-1.2,5.25,5.25,0,0,1,.9,1.32c.25.2.5.4.74.61C576.26,801.18,576.62,800.93,577,800.7Z"/><path class="cls-28" d="M534.35,843.33a14.19,14.19,0,0,1-3.87-4,16.86,16.86,0,0,1-2.63-8.09,17.57,17.57,0,0,0-.37,3.48c0,7.89,5.49,15,14.3,20.1A19,19,0,0,1,534.35,843.33Z"/><path class="cls-28" d="M611.85,848.81a17.75,17.75,0,0,1-6.48,6.68,15.31,15.31,0,0,1-6.92,2.1,16.89,16.89,0,0,1-2,1.76c12.37-4,21.37-11.24,23.84-19.82-.2.47-.41.93-.65,1.38A18,18,0,0,1,611.85,848.81Z"/><path class="cls-28" d="M576.26,862.67q3.74-.09,7.29-.53a15.17,15.17,0,0,1-2.59-.87A15.21,15.21,0,0,1,576.26,862.67Z"/><path class="cls-28" d="M605.85,814.64c.31,0,.58,0,.84,0-.53-.31-1.07-.61-1.62-.89,0,.26,0,.53.07.8C605.37,814.6,605.6,814.63,605.85,814.64Z"/><path class="cls-28" d="M564.9,862.14c2.43.3,4.92.47,7.47.53a15.17,15.17,0,0,1-4.56-1.33A15.29,15.29,0,0,1,564.9,862.14Z"/><path class="cls-28" d="M545.93,857a59.43,59.43,0,0,0,8.44,3.07,16.84,16.84,0,0,1-3-2.29A15,15,0,0,1,545.93,857Z"/><path class="cls-29" d="M535.17,830.54Z"/><path class="cls-29" d="M545.48,842.37a21.87,21.87,0,0,1,.43-3.57l4.8,1.28a27,27,0,0,0,3.17-2.33c0-.34,0-.67,0-1a15.86,15.86,0,0,1,.56-4.18c-6.72,7.22-14.94,10.54-16.95-1.34-.28-1.69-1.34-1.24-2.27-.68s-2,.63-1.49,2.55C535.65,841.17,540.26,843.59,545.48,842.37Z"/><path class="cls-30" d="M529.85,824.25c2-2.66,1.6-5.08,2.19-5.37,1-.49,2.08,6,2.55,5.76s-.67-7,1.1-8.28c1.52-1.11,4.46,2.31,4.91,1.88s-2.82-4-2-4.89,9.57-1,10.24-1.76-7.29-.66-6.25-2.12c1.22-1.73,9.58-2.26,10.71-3.83a.69.69,0,0,0-.17-1c-.94-.93-3.95-1.64-7-.93-3.38.8-6,4.52-8.64,4.25-1.34-.15-1.89-1.26-3.23-.57a3.08,3.08,0,0,0-1.47,1.5c-.28,1.23,3,.59,2.9,1.93-.08.91-1.64,1.61-3.34,3.62-2.2,2.6-1.51,3.68-3.68,7.45s-4.55,5.6-4.23,6,2-.47,3.62-1.86A11.44,11.44,0,0,0,529.85,824.25Z"/><path class="cls-29" d="M553.57,811c-.84.1-.82.51-.91,1.07s.18,1,.82,1a14.16,14.16,0,0,1,3,.07c0-.72.1-1.42.19-2.12A13.89,13.89,0,0,0,553.57,811Z"/><path class="cls-29" d="M601.34,824.92c.18.25.37.51.54.78a1.22,1.22,0,0,0-.26-1.08Z"/><path class="cls-29" d="M608,843.41a18.91,18.91,0,0,1-4-1.11,22.86,22.86,0,0,1-.12,3.61,18.37,18.37,0,0,0,3.55.82c1.23.16,1.3-.52,1.55-1.41S608.94,843.57,608,843.41Z"/><path class="cls-29" d="M609,845.33Z"/><path class="cls-29" d="M609,845.33h0Z"/><path class="cls-30" d="M605.14,814.57a12.77,12.77,0,0,1,0,2.23c1.8.15,3.06-1,3.34-.64.5.63-3.61,4.6-3.35,4.9s4.52-3.8,5.7-2.84c1,.83-.7,5-.33,5.19s2.11-4.31,2.87-4,2.45,8,3.09,8.2-.93-6.71.24-6.47c1.37.28,3.28,7.4,4.54,7.68.25,0,.46-.18.61-.6a10.63,10.63,0,0,0-.68-6.56c-1.16-2.61-4.13-3.24-4.43-5.66-.16-1.25.49-2.24-.23-3.1-.31-.39-.89-.74-1.27-.6-.87.31.17,2.94-.74,3.44-.62.33-1.38-.71-3-1.28-1.91-.67-2.59.14-4.79.19-.26,0-.53,0-.84,0S605.37,814.6,605.14,814.57Z"/><path class="cls-29" d="M616.87,837.91a9.87,9.87,0,0,1,1.24.77,13.92,13.92,0,0,0-.37-7.18c-.22-.69-.49-.49-.88-.31a1,1,0,0,0-.49,1.17A14.28,14.28,0,0,1,616.87,837.91Z"/><path class="cls-31" d="M602.11,807.9c-1.5,0-6.33-5.59-8-5.56-1.38,0,3,5.56,2.2,5.49s-5.54-6.17-6.54-6.29-1.16,4-1.67,3.92-.16-3.94-1.6-4.44c-1.68-.58-4.84,3.71-5.24,3.51s2.64-4.35,1.84-4.78c-.48-.26-1.61,1.28-4.2,1.24a8.07,8.07,0,0,1-2-.29c-.37.23-.73.48-1.08.73-.24-.21-.49-.41-.74-.61.16.39.18.71,0,.87-.87.84-6.18-2.17-7.13-1.25-.8.79,4.18,4,3.71,4.33s-6-3.18-6.61-2.75,1.08,4.68.74,4.85-1.83-3.87-2.9-3.58c-1.24.34-1.21,6.38-1.54,6.4s-.36-5.82-1-5.82c-.41,0-.4,2.17-1.94,3.55s-3.57,1.32-3.74.82,1.19-.89,2.74-2.58a15.76,15.76,0,0,0-4.34-1,.69.69,0,0,1,.17,1c-1.13,1.57-9.49,2.1-10.71,3.83-1,1.46,6.87,1.39,6.25,2.12s-9.37.82-10.24,1.76,2.45,4.44,2,4.89-3.39-3-4.91-1.88c-1.77,1.28-.62,8-1.1,8.28s-1.59-6.25-2.55-5.76c-.59.29-.18,2.71-2.19,5.37a11.44,11.44,0,0,1-1.73,1.81,21.92,21.92,0,0,0-.27,5.22,16.86,16.86,0,0,0,2.63,8.09,14.19,14.19,0,0,0,3.87,4,19,19,0,0,0,7.43,11.53c.21.15.41.31.63.45a15.72,15.72,0,0,0,3.52,1.68,15,15,0,0,0,5.48.78,16.84,16.84,0,0,0,3,2.29,16.28,16.28,0,0,0,4.12,1.79,15,15,0,0,0,6.41.29,15.29,15.29,0,0,0,2.91-.8,15.17,15.17,0,0,0,4.56,1.33,15.54,15.54,0,0,0,1.94.14,15.7,15.7,0,0,0,2-.14,15.21,15.21,0,0,0,4.7-1.4,15.22,15.22,0,0,0,13.57-.66,16.16,16.16,0,0,0,1.91-1.26,16.89,16.89,0,0,0,2-1.76,15.31,15.31,0,0,0,6.92-2.1,17.75,17.75,0,0,0,6.48-6.68,18,18,0,0,0,7.78-7.9c.24-.45.45-.91.65-1.38a21.18,21.18,0,0,0,1.58-11.3c-.15.42-.36.65-.61.6-1.26-.28-3.17-7.4-4.54-7.68-1.17-.24.35,6.69-.24,6.47s-2.3-7.87-3.09-8.2-2.49,4.19-2.87,4,1.35-4.36.33-5.19c-1.18-1-5.44,3.14-5.7,2.84s3.85-4.27,3.35-4.9c-.28-.34-1.54.79-3.34.64a12.77,12.77,0,0,0,0-2.23c0-.27,0-.54-.07-.8a15.72,15.72,0,0,0-2.51-6.49C602.56,807.67,602.41,807.9,602.11,807.9ZM609,845.33h0c-.25.89-.32,1.57-1.55,1.41a18.37,18.37,0,0,1-3.55-.82,22.86,22.86,0,0,0,.12-3.61,18.91,18.91,0,0,0,4,1.11c1,.16,1.21,1,1,1.91Zm-15,7.39a2,2,0,0,1-1.48.61c-1.18,0-1.29-1-2.26-1.61-1.87-1.17-4.81.72-7.55.1-3.24-.74-5.82-3.43-4.81-4.07,1.26-.8,7.62,1.86,9,1,1.15-.75-4.76-3.59-4.1-3.92s7.19,2.8,8.08,2.39-.66-4.31-.2-4.48,1.75,3.54,3.17,3.24c1.65-.34,2.55-5.94,3-6s-.45,5.38.4,5.36c.51,0,.84-2,3-3.33,2-1.22,4.8-1.31,4.94-.86s-2.11,1-4.71,3.06-2.37,3.19-4.69,4.38c-1.79.92-3.13.9-3.43,1.56C591.93,851.15,594.57,851.87,594,852.72Zm-36.88-18.11c.36-1.36.84-.9,1.43-.77v0h0v0c.59.13,1.2.39.83,1.53-3.23,9.85,4.64,10.77,10.84,8.08.72-.31,1.22.15,1.38.83h0c.15.68.35,1.16-.58,1.59C563.07,849.63,554.05,846.4,557.15,834.61Zm17.63-28.38a10.68,10.68,0,0,1,4.48,4.28,6.69,6.69,0,0,0-1.17.51,10.37,10.37,0,0,0-3.58-3.14,1,1,0,0,1-.41-1.15C574.21,806.31,574.24,806,574.78,806.23Zm5,35.78a.7.7,0,0,1,.35,1c-.2.39-.3.72-1,.48a11.34,11.34,0,0,1-2.62-1.34,13.89,13.89,0,0,0,.51-1.7A11.72,11.72,0,0,0,579.74,842Zm-1.92-15.08c10-7.31,23.22-7.33,21.9,6.9-.15,1.65-.94,1.33-1.78,1.42v0h0v0c-.84.09-1.74,0-1.51-1.36,2-12.14-9-10-16.91-4.6a1.33,1.33,0,0,1-2.09-.38l0,0s0,0,0,0l0,0C577.05,828.22,576.66,827.78,577.82,826.93Zm-2.21,9a7.54,7.54,0,0,0-1.16,0,9.46,9.46,0,0,0-2.38-3.41.73.73,0,0,1-.07-1c.2-.29.31-.54.72-.18A9.39,9.39,0,0,1,575.61,835.94Zm-25.55,14.64c.67-.76,1.08-1.38,2.08-1a10,10,0,0,1,6.1,5.92q-1.66.47-3.42,1.11a10.56,10.56,0,0,0-4.9-4.11C549.17,852.19,549.39,851.34,550.06,850.58Zm51.82-24.88c-.17-.27-.36-.53-.54-.78l.28-.3A1.22,1.22,0,0,1,601.88,825.7Zm-40.69-10.89c.65-.07,1.35,0,1.36,1.51a16.56,16.56,0,0,0,1.08,6.49c.53,0,.89,0,1.07-.3.45-.72-1.24-2-.74-2.57a1.15,1.15,0,0,1,1.11-.17c.81.26.73,1.19,1.29,1.94,1.1,1.45,3.41.56,5.18,1.77a6.89,6.89,0,0,1,1.25,1.1,18.06,18.06,0,0,0,3.55-2.91c.62-.66,1.29-.31,1.68.45l0,0h0l0,0,.2.4a18.4,18.4,0,0,0-4.07,4.1c.33.77.39,1.38.05,1.51-1,.36-4.92-3.46-6-3-.9.36,2.7,4.23,2.2,4.35s-4.48-4.15-5.16-4-.21,3.82-.55,3.86-.65-3.44-1.67-3.54c-1.18-.12-2.66,4.43-2.95,4.34s1.13-4.47.55-4.66c-.35-.12-.89,1.51-2.59,2.09s-3.48-.06-3.51-.48,1.59-.3,3.7-1.45c1.73-1,2-1.77,3.09-2.29a22.82,22.82,0,0,1-1.33-7c-.09-1.78.56-1.42,1.2-1.5Zm-4.72-1.71a14.16,14.16,0,0,0-3-.07c-.64.06-.9-.42-.82-1s.07-1,.91-1.07a13.89,13.89,0,0,1,3.09,0C556.57,811.68,556.5,812.38,556.47,813.1Zm-21.3,17.44h0c.93-.56,2-1,2.27.68,2,11.88,10.23,8.56,16.95,1.34a15.86,15.86,0,0,0-.56,4.18c0,.34,0,.67,0,1a27,27,0,0,1-3.17,2.33l-4.8-1.28a21.87,21.87,0,0,0-.43,3.57c-5.22,1.22-9.83-1.2-11.8-9.28C533.21,831.17,534.24,831.09,535.17,830.54Zm37.51,26.8c.14-1.13,1.07-1.77,2.05-2.72s2-1.88,1.81-.81c-.69,3.07.29,3.68,2.22,2.71q-.09.3-.15.6c-.33.71-.61,1.4-.85,2.06C574.3,861.34,572.18,861.2,572.68,857.34Zm44.18-26.15c.39-.18.66-.38.88.31a13.92,13.92,0,0,1,.37,7.18,9.87,9.87,0,0,0-1.24-.77,14.28,14.28,0,0,0-.5-5.55A1,1,0,0,1,616.86,831.19Zm-14.47-14.38a13.68,13.68,0,0,0-1.68-.4,12.1,12.1,0,0,0-2.66-4.58.65.65,0,0,1,.1-1.07c.36-.23.58-.46,1.09.08A11.48,11.48,0,0,1,602.39,816.81Z"/><path class="cls-29" d="M598.15,810.76a.65.65,0,0,0-.1,1.07,12.1,12.1,0,0,1,2.66,4.58,13.68,13.68,0,0,1,1.68.4,11.48,11.48,0,0,0-3.15-6C598.73,810.3,598.51,810.53,598.15,810.76Z"/><path class="cls-29" d="M578.22,822.52l-.2-.4c-.39-.76-1.06-1.11-1.68-.45a18.06,18.06,0,0,1-3.55,2.91,8.22,8.22,0,0,1,1.36,2A18.4,18.4,0,0,1,578.22,822.52Z"/><path class="cls-29" d="M560,816.31a22.82,22.82,0,0,0,1.33,7,4,4,0,0,1,.79-.29,6.65,6.65,0,0,1,1.52-.18,16.56,16.56,0,0,1-1.08-6.49c0-1.52-.71-1.58-1.36-1.51S559.9,814.53,560,816.31Z"/><path class="cls-29" d="M561.19,814.81Z"/><path class="cls-29" d="M578,822.09Z"/><path class="cls-29" d="M578,822.12l0,0Z"/><path class="cls-30" d="M562,796c-.31.9,1.84,1.74,1.62,2.79-.15.71-1.2.66-2.47,1.62-1.66,1.24-1.33,2.42-3.09,4.64-.18.24-.37.44-.54.64-1.55,1.69-2.88,2.17-2.74,2.58s2.32.45,3.74-.82,1.53-3.55,1.94-3.55c.65,0,.69,5.84,1,5.82s.3-6.06,1.54-6.4c1.07-.29,2.57,3.76,2.9,3.58s-1.37-4.44-.74-4.85,6.11,3.11,6.61,2.75-4.51-3.54-3.71-4.33c1-.92,6.26,2.09,7.13,1.25.18-.16.16-.48,0-.87a5.25,5.25,0,0,0-.9-1.32,8,8,0,0,0,2.72,1.2,8.07,8.07,0,0,0,2,.29c2.59,0,3.72-1.5,4.2-1.24.8.43-2.24,4.58-1.84,4.78s3.56-4.09,5.24-3.51c1.44.5,1.12,4.34,1.6,4.44s.7-4,1.67-3.92,5.75,6.22,6.54,6.29-3.58-5.47-2.2-5.49c1.63,0,6.46,5.58,8,5.56.3,0,.45-.23.45-.62,0-1.14-1.22-3.63-3.25-5.38-2.28-2-5.81-1.92-7.07-3.89a5.54,5.54,0,0,1-.54-1.45,1.66,1.66,0,0,0-.89-1.12,2.22,2.22,0,0,0-1.64-.26c-.27.14-.23.45-.08.81.32.77,1.13,1.83.57,2.23s-1.79-.32-3.84-.48c-2.66-.21-2.89.84-6.18,1.25s-5.61-.3-5.66.12a.23.23,0,0,0,0,.11,8.18,8.18,0,0,0-3.12-2c-2.21-.73-4.26,1.25-5.87,0-.82-.66-1.06-1.78-1.94-1.8h0a1.18,1.18,0,0,0-.39.08A1,1,0,0,0,562,796Z"/><path class="cls-29" d="M574.51,807.88a10.37,10.37,0,0,1,3.58,3.14,6.69,6.69,0,0,1,1.17-.51,10.68,10.68,0,0,0-4.48-4.28c-.54-.27-.57.08-.68.5A1,1,0,0,0,574.51,807.88Z"/><path class="cls-29" d="M597.94,835.25v0Z"/><path class="cls-29" d="M597.94,835.3Z"/><path class="cls-29" d="M577.43,828.91l0,0Z"/><path class="cls-29" d="M577.41,828.93Z"/><path class="cls-29" d="M579.52,829.29c7.86-5.43,18.88-7.54,16.91,4.6-.23,1.41.67,1.45,1.51,1.36s1.63.23,1.78-1.42c1.32-14.23-11.87-14.21-21.9-6.9-1.16.85-.77,1.29-.39,2A1.33,1.33,0,0,0,579.52,829.29Z"/><path class="cls-30" d="M595.81,848.61c2.32-1.19,2.09-2.27,4.69-4.38s4.85-2.64,4.71-3.06-2.91-.36-4.94.86c-2.19,1.31-2.52,3.32-3,3.33-.85,0,0-5.39-.4-5.36s-1.33,5.62-3,6c-1.42.3-2.72-3.41-3.17-3.24s1.07,4.08.2,4.48-7.39-2.74-8.08-2.39,5.25,3.17,4.1,3.92c-1.36.88-7.72-1.78-9-1-1,.64,1.57,3.33,4.81,4.07,2.74.62,5.68-1.27,7.55-.1,1,.6,1.08,1.66,2.26,1.61a2,2,0,0,0,1.48-.61c.54-.85-2.1-1.57-1.65-2.55C592.68,849.51,594,849.53,595.81,848.61Z"/><path class="cls-29" d="M579.14,843.54c.65.24.75-.09,1-.48a.7.7,0,0,0-.35-1A11.72,11.72,0,0,1,577,840.5a13.89,13.89,0,0,1-.51,1.7A11.34,11.34,0,0,0,579.14,843.54Z"/><path class="cls-29" d="M571.63,844.28Z"/><path class="cls-29" d="M558.59,833.81Z"/><path class="cls-29" d="M558.58,833.84v0Z"/><path class="cls-29" d="M571.05,845.87c.93-.43.73-.91.58-1.59s-.66-1.14-1.38-.83c-6.2,2.69-14.07,1.77-10.84-8.08.37-1.14-.24-1.4-.83-1.53s-1.07-.59-1.43.77C554.05,846.4,563.07,849.63,571.05,845.87Z"/><path class="cls-30" d="M561.32,823.28c-1,.52-1.36,1.34-3.09,2.29-2.11,1.15-3.73,1.06-3.7,1.45s1.93,1,3.51.48,2.24-2.21,2.59-2.09c.58.19-.84,4.58-.55,4.66s1.77-4.46,2.95-4.34c1,.1,1.34,3.57,1.67,3.54s-.1-3.74.55-3.86,4.63,4.14,5.16,4-3.1-4-2.2-4.35c1.07-.41,5,3.41,6,3,.34-.13.28-.74-.05-1.51a8.22,8.22,0,0,0-1.36-2,6.89,6.89,0,0,0-1.25-1.1c-1.77-1.21-4.08-.32-5.18-1.77-.56-.75-.48-1.68-1.29-1.94a1.15,1.15,0,0,0-1.11.17c-.5.58,1.19,1.85.74,2.57-.18.27-.54.29-1.07.3a6.65,6.65,0,0,0-1.52.18A4,4,0,0,0,561.32,823.28Z"/><path class="cls-29" d="M572.72,831.41c-.41-.36-.52-.11-.72.18a.73.73,0,0,0,.07,1,9.46,9.46,0,0,1,2.38,3.41,7.54,7.54,0,0,1,1.16,0A9.39,9.39,0,0,0,572.72,831.41Z"/><path class="cls-29" d="M554.82,856.63q1.75-.64,3.42-1.11a10,10,0,0,0-6.1-5.92c-1-.4-1.41.22-2.08,1s-.89,1.61-.14,1.94A10.56,10.56,0,0,1,554.82,856.63Z"/><path class="cls-29" d="M578.61,857.12q.06-.3.15-.6c-1.93,1-2.91.36-2.22-2.71.24-1.07-.82-.14-1.81.81s-1.91,1.59-2.05,2.72c-.5,3.86,1.62,4,5.08,1.84C578,858.52,578.28,857.83,578.61,857.12Z"/><path class="cls-32" d="M652.15,884.28a15.75,15.75,0,0,1-3.28-4,11.54,11.54,0,0,1-.69-5.56c.35-7,.79-15.1-4.41-20.61-2.43-2.57-6.88-3.38-9.08-.14a2.43,2.43,0,0,0-.14.2,1.44,1.44,0,0,0-.23.88c-3.08,1.19-4.33,4.4-4.17,7.57a3.31,3.31,0,0,0,0,.33c-6.05,6.93-21,17.37-56.1,17.37-44.56,0-56.68-16.82-59.32-21.92a11,11,0,0,1-.65-1.44,14.58,14.58,0,0,0,.26,2.64c2.72,15,28.39,26.8,59.68,26.8,26.52,0,49-8.46,56.9-20.18.93,2.47,2.43,4.72,3.31,7.28a8.51,8.51,0,0,1-.22,6.2c-.8,2.08-1.84,4-2.16,6.24a13.35,13.35,0,0,0,3.61,11.07,1.43,1.43,0,0,0,2.33-.38,1.39,1.39,0,0,0,.2-.77,1.37,1.37,0,0,0-.41-1,10.26,10.26,0,0,1-2.55-9.62c.52-1.93,1.53-3.67,2.16-5.57a10.63,10.63,0,0,0,.36-5.45c-.71-3.58-3.28-6.41-4.17-9.89a9.5,9.5,0,0,1-.29-2.42,16,16,0,0,0,.7-2.87,2.92,2.92,0,0,1,1.57-1.25,1.42,1.42,0,0,0,.64-.43,1.59,1.59,0,0,0,.39-1.09,1.47,1.47,0,0,0,.71-.61c.9-1.48,2.87-.89,4,0a11.28,11.28,0,0,1,3,4.68,27.5,27.5,0,0,1,1.29,11.4c-.22,3.81-.73,7.89,1.62,11.2,1.08,1.52,2.5,2.71,3.72,4.11,1,1.16,2.23,3,1.53,4.66s1.82,3.28,2.59,1.51C656.31,889.91,654.52,886.73,652.15,884.28Z"/><path class="cls-10" d="M204.45,135.14a19.22,19.22,0,0,0,4.82-12.7c0-11.12-9.62-20.13-21.49-20.13a22.06,22.06,0,0,0-16.1,6.81,26.71,26.71,0,0,0-44.79,2.72q-1.42,0-2.85,0h-1.73C117.66,99.68,105.27,91,90.72,91,77,91,65.13,98.77,60,109.88c-24.3,2-42.88,12.83-42.88,25.91a14.12,14.12,0,0,0,.95,5c-8.18,2.07-13,4.63-13,7.4,0,3.77,9,7.15,23.13,9.44a12.23,12.23,0,0,0-.92,4.58c0,10.87,14.92,19.68,33.33,19.68A51,51,0,0,0,79,178.63a20.18,20.18,0,0,0,20.76,1.61c6,5.21,14.67,8.48,24.26,8.48a37.82,37.82,0,0,0,22.46-7.05,29.42,29.42,0,0,0,19.79,7.5,28.73,28.73,0,0,0,25.44-14.68,23.71,23.71,0,0,0,3.06.2c12.26,0,22.21-9.31,22.21-20.81A20.75,20.75,0,0,0,204.45,135.14Z"/><path class="cls-33" d="M781,274.68c0-13.72-37.71-23.78-56.08-24.2C721.23,235.41,704,224,683.3,224c-17.2,0-32,7.87-38.62,19.17a38.63,38.63,0,0,0-7.91-.8c-13.49,0-24.42,6.64-24.42,14.83q0,.39,0,.78a65,65,0,0,0-10.21-.78c-16.85,0-30.52,6.08-30.52,13.58,0,6.09,9,11.25,21.44,13a16.85,16.85,0,0,0-.66,4.65c0,12.56,14.05,22.73,31.38,22.73a40.5,40.5,0,0,0,16.66-3.46c1.12,9.65,19,17.33,41,17.33,19.85,0,36.4-6.29,40.2-14.64a11.27,11.27,0,0,0,2.11.19c5.8,0,10.5-4.22,10.5-9.43a7.72,7.72,0,0,0-.09-1.18C748,296.7,781,286,781,274.68Zm-87.3,14.55.62-.69.74.9Z"/><path class="cls-34" d="M177.89,200.16q0,35.47-13.56,63.87-14.78,31-36.58,31-20.73,0-34-28.28-12.26-26.22-12.25-62.46,0-29.29,6.78-51.28,6.53-21.21,17.55-30.2a4.72,4.72,0,0,1,2-1c.49,0,.74.3.74.9a5.78,5.78,0,0,1-1.47,3.21,61.27,61.27,0,0,0-7.27,13,103.12,103.12,0,0,0-5.8,23q-2.28,15.93-2.28,39.84,0,30.72,11.84,54.62,12.24,24.81,29,24.81,15.43,0,25.07-17.35,10.53-19,10.53-53.6,0-36.88-12.24-65.8-11.76-27.76-25.32-27.76a10.31,10.31,0,0,0-8.69,4.31q-3.23,4.3-3.23,11.37a18,18,0,0,0,1.55,7.52q1.56,3.41,4.09,3.4a6,6,0,0,0,1.22-.13,3,3,0,0,0,1.51-1.09,6.38,6.38,0,0,0,1.23-1.93,17.76,17.76,0,0,0,.61-1.92c.16-.65.3-1.22.41-1.74s.11-.77.32-.77.55.26.82.77a19.12,19.12,0,0,1,.82,6.17v1.29a8.3,8.3,0,0,0-.17,1.28,16.28,16.28,0,0,1-2.94,8.23,7.13,7.13,0,0,1-5.87,3.34q-5.24,0-8.58-6.17a30.87,30.87,0,0,1-3.35-14.91q0-13,7.11-21.08,6.36-7.19,14.94-7.19,20.32,0,33.23,28.27Q177.89,162.25,177.89,200.16Z"/><path class="cls-34" d="M257.42,178.57a109.27,109.27,0,0,1-1.55,17.73q-1.23,7.45-4,17.74-2,7.32-4.94,16.83t-6.33,19.67q-1.47,4.5-6.53,19l-6.54,18.76q-.89,3-1.79,5.91c-.33.69-.68,1-1.06,1s-.74-.34-1.06-1a43.9,43.9,0,0,1-2.13-5.39q-2.2-6.81-4.9-14.4-3.18-8.73-4.24-12.08-2.29-6.94-5.88-20.05-3.27-11.82-5.72-25.19-1.8-9.51-3.26-21.59-1.06-8.43-1.64-15.07a9,9,0,0,0-2.45-5.11L190,171.16a3.24,3.24,0,0,1-.57-1.7c0-.78.46-1.18,1.39-1.18a23.31,23.31,0,0,1,4.36.33,46.36,46.36,0,0,0,5.76.45,47.64,47.64,0,0,0,5.87-.45,23,23,0,0,1,4.25-.33c.76,0,1.14.48,1.14,1.42a3,3,0,0,1-.49,1.67c-1.36,1.63-2.4,3-3.1,4a8.74,8.74,0,0,0-1.8,5.53q.74,12.85,2.22,23.9a239.32,239.32,0,0,0,5.14,27q3.66,15,6.43,23.54,2.2,6.69,6.77,18.14,3.36-10.41,7-22.64,4.26-14.16,7.2-25,3.77-13.51,5.81-23.8a123.77,123.77,0,0,0,2.66-23,23.82,23.82,0,0,0-1.63-8.87q-1.95-4.87-4.88-4.88a4,4,0,0,1-.82.13c-1.79.25-3.09,1.8-3.91,4.62a10.47,10.47,0,0,0-.32,1.8c-.06.6-.09,1.08-.09,1.42a10.83,10.83,0,0,0,.09,1.67c.11,1.37-.09,2.05-.58,2.05a1.62,1.62,0,0,1-.89-.51,9.31,9.31,0,0,1-2.29-3.73,18.56,18.56,0,0,1-1.31-6.81,17.16,17.16,0,0,1,2.86-10c1.91-2.74,4.11-4.12,6.62-4.12q7.1,0,11,8.49Q257.42,167.9,257.42,178.57Z"/><path class="cls-34" d="M346.75,263.9a44.47,44.47,0,0,1-10.21,20.44q-9.46,11.18-20.66,11.18a31.45,31.45,0,0,1-12.73-2.44,34.27,34.27,0,0,1-12.09-9.64,83.16,83.16,0,0,0-4.16,9.77q-2.37,6.56-2.37,9.51,0,3.6,1.22,5a3.5,3.5,0,0,0,2.7.9,2.78,2.78,0,0,0,1.14-.26l1-.51q.33-.27.57,0c.38.34.46,1,.25,2.05a16.62,16.62,0,0,1-2,5.66q-2,3.35-4.57,3.34c-1.86,0-3.38-1.07-4.58-3.21a17.13,17.13,0,0,1-1.79-8.36,35.76,35.76,0,0,1,1.79-10q.5-1.67,7-18.25a83.78,83.78,0,0,1-9.3-21.21,100.12,100.12,0,0,1-3.6-27.37q0-27,11.15-46.65t27.72-19.67q6.62,0,13.55,5c2.56,2,5.12,3.9,7.68,5.79a5.52,5.52,0,0,0,2.12.77,15.38,15.38,0,0,0,2.78.26l2.45-.26c.6,0,.9.38.9,1.16a1.79,1.79,0,0,1-.57,1.41,25.18,25.18,0,0,0-2.86,3.47,43.11,43.11,0,0,0-3.68,5.78q-7.92,13.89-18.37,36.37t-19.68,45.12a42.47,42.47,0,0,0,9.8,8.35,23.79,23.79,0,0,0,12.25,3.47q8.82,0,14.53-5.27,4.17-3.86,9.31-13.75c.33-.77.71-1.61,1.15-2.51s.92-1.26,1.46-1.09c.71.26,1.07,1.07,1.07,2.44A13.59,13.59,0,0,1,346.75,263.9Zm-22.37-75.82q0-7.59-5.23-11.83a16.31,16.31,0,0,0-10.62-3.6q-11.59,0-19.1,15.56-7,14.64-7,34.82a81,81,0,0,0,3.67,23.91,66.38,66.38,0,0,0,7.76,17.22q5.55-13,8.65-20.18,5-11.56,8.49-19.4,4.5-10,9-20.05Q324.38,193.73,324.38,188.08Z"/><path class="cls-34" d="M414.19,182.94q0,7.45-2.53,12.08t-6.77,4.62a9.94,9.94,0,0,1-5.19-1.28,6,6,0,0,1-2.82-3.6,1.68,1.68,0,0,1-.08-1.16.73.73,0,0,1,.74-.64,5.9,5.9,0,0,0,2.73-.64,5.72,5.72,0,0,0,2.25-2.32,12.1,12.1,0,0,0,1.38-6,10.35,10.35,0,0,0-2.12-6.81,8.59,8.59,0,0,0-7-3q-5.81,0-11.43,8.08a55.14,55.14,0,0,0-7.68,17.33v78.82a8,8,0,0,0,1.8,4.75c1,1.4,2.07,2.75,3.1,4.05a4.53,4.53,0,0,1,.82,2.35c0,1.05-.6,1.57-1.8,1.57a18.63,18.63,0,0,1-2.45-.13,66.68,66.68,0,0,0-6.69-.64,37.46,37.46,0,0,0-4.94.26c-1.23.17-2.63.34-4.21.51-1.2,0-1.79-.48-1.79-1.44a5.34,5.34,0,0,1,1-2.75c1-1.31,1.71-2.27,2.2-2.88q2.54-3.21,2.53-5.65v-76q0-8.85-3-14.63-2-3.86-8.74-8.48c-.21-.08-.32-.34-.32-.77a2.41,2.41,0,0,1,.32-1.28l3.76-5.65c.71-1.11,1.33-2.18,1.88-3.21.16-.26.51-1,1.06-2.18.33-.6.68-.9,1.06-.9a1.19,1.19,0,0,1,.74.38,61.08,61.08,0,0,1,6.77,8.62,36.13,36.13,0,0,1,5.64,16.06,48,48,0,0,1,9-17.86q6.93-8.35,15.35-8.36a13.49,13.49,0,0,1,11.39,5.46A21.47,21.47,0,0,1,414.19,182.94Z"/><path class="cls-34" d="M510.22,103.77q0,9.63-8.49,17.41T483.11,129a32.93,32.93,0,0,1-6.49-.58,74.3,74.3,0,0,1-7.23-2V278.68q0,2.44,2.45,5.4,3.27,3.92,3.43,4.29a1.94,1.94,0,0,1,.24.76,2.79,2.79,0,0,1,.09.63c0,.93-.49,1.39-1.47,1.39a29.53,29.53,0,0,1-4.86-.32q-4-.45-5.59-.45a69.7,69.7,0,0,0-7.84.64,11.59,11.59,0,0,1-2.78.13c-.93,0-1.39-.51-1.39-1.54a1.85,1.85,0,0,1,.25-1,54.82,54.82,0,0,1,3.51-4.5c1.68-2.05,2.53-3.9,2.53-5.52V123.82c-3.81-.95-6.86-1.67-9.15-2.19a57.27,57.27,0,0,0-12.41-1.41q-6.86,0-10,2.83t-3.1,9.25a8.21,8.21,0,0,0,1,4c.65,1.2,1.3,1.89,2,2.06a7.46,7.46,0,0,0,1.88.26,4.63,4.63,0,0,0,2.12-.39,3.59,3.59,0,0,0,1.22-1c.44-.43.77-.43,1,0a3,3,0,0,1,.17,1.8,16.3,16.3,0,0,1-2.11,6.17c-1.47,2.4-3.36,3.6-5.69,3.6-2.17,0-3.92-1.24-5.28-3.73a19.47,19.47,0,0,1-2-9.38q0-12.21,10.52-20.37a37.76,37.76,0,0,1,23.74-8.16,39.13,39.13,0,0,1,13.46,2.31q6.36,2.31,13,4.63a41.9,41.9,0,0,0,13.83,2.31q5.79,0,8.93-2.44t3.15-7.33c0-2.14-.43-3.48-1.27-4a5.91,5.91,0,0,0-3.31-.84c-.81,0-1.22-.26-1.22-.77a4.46,4.46,0,0,1,.24-1.28,9.33,9.33,0,0,1,1.88-3.73A4.62,4.62,0,0,1,504,94a5.16,5.16,0,0,1,4.62,2.51Q510.22,99,510.22,103.77Z"/><path class="cls-34" d="M583.05,212.29a153.66,153.66,0,0,1-4.24,36.48A126.44,126.44,0,0,1,566.23,281c.16,0,.45,0,.86.06a14.76,14.76,0,0,0,1.67.07,23.69,23.69,0,0,0,4.74-.45,8.57,8.57,0,0,0,4.33-2.64c1.41-1.8,2.3-2.91,2.65-3.34s.67-.64.94-.64c.43,0,.65.6.65,1.8q-.24,2.56-.45,5.07c-.13,1.67-.2,2.89-.2,3.67,0,1.62.08,3.47.24,5.52s.25,3.3.25,3.73c0,1.28-.22,1.93-.65,1.93-.22,0-.55-.22-1-.65a14.1,14.1,0,0,0-3.51-3,13,13,0,0,0-3.43-1.35,26.62,26.62,0,0,0-5.23-.38c-1.58,0-2.83,0-3.76.09a29.05,29.05,0,0,0-3.67.51,10,10,0,0,1-1.55.17,1,1,0,0,1-1.06-.51,2.7,2.7,0,0,1-.13-1.67,12.49,12.49,0,0,1,.62-1.92q4.41-10.77,6.85-17.83a155.78,155.78,0,0,0,5.72-20.77,126.07,126.07,0,0,0,2.29-24q0-20-5.72-32.7-6-13.2-16.17-13.2-6.78,0-12.33,6.29-4.73,5.4-8.08,14.78v79a8,8,0,0,0,1.72,4.5c1,1.35,2,2.66,3,3.92a5.09,5.09,0,0,1,1,2.53c0,1-.6,1.52-1.8,1.52a18.53,18.53,0,0,1-2.45-.13,67,67,0,0,0-6.7-.64,35.89,35.89,0,0,0-4.77.26c-1.23.17-2.63.34-4.21.51-1.3,0-2-.52-2-1.57a6,6,0,0,1,.82-2.35q2-2.61,3-4.05a8.25,8.25,0,0,0,1.88-4.75V141c0-2.48-.06-4.45-.16-5.91s-.77-2.05-2-1.79a9.65,9.65,0,0,0-3,2.5,16.23,16.23,0,0,1-2.85,2.64c-.82.43-1.23-.05-1.23-1.42a5.28,5.28,0,0,1,.49-1.81,83.82,83.82,0,0,1,4.49-7.22c2.13-3.27,3.81-5.89,5.07-7.87q2.78-4.38,6-10.45a41.52,41.52,0,0,1,2.94-5,1,1,0,0,1,.49-.39,1,1,0,0,1,.41-.13c.49,0,.73.69.73,2.06q-.4,4.13-.69,10.24t-.29,12.93v59.21a62.63,62.63,0,0,1,8.08-15.16q7-9.26,14.95-9.26,14.7,0,22.62,17.37A73.21,73.21,0,0,1,583.05,212.29Z"/><path class="cls-34" d="M661.28,182.94q0,7.45-2.54,12.08T652,199.64a9.94,9.94,0,0,1-5.19-1.28,6,6,0,0,1-2.81-3.6,1.63,1.63,0,0,1-.09-1.16.74.74,0,0,1,.74-.64,5.9,5.9,0,0,0,2.73-.64A5.66,5.66,0,0,0,649.6,190a12.1,12.1,0,0,0,1.39-6,10.35,10.35,0,0,0-2.13-6.81,8.59,8.59,0,0,0-7-3q-5.79,0-11.43,8.08a54.9,54.9,0,0,0-7.67,17.33v78.82a8,8,0,0,0,1.79,4.75q1.56,2.1,3.1,4.05a4.53,4.53,0,0,1,.82,2.35c0,1.05-.6,1.57-1.8,1.57a18.73,18.73,0,0,1-2.45-.13,66.68,66.68,0,0,0-6.69-.64,37.46,37.46,0,0,0-4.94.26c-1.22.17-2.63.34-4.21.51-1.19,0-1.79-.48-1.79-1.44a5.44,5.44,0,0,1,1-2.75c1-1.31,1.71-2.27,2.2-2.88q2.54-3.21,2.53-5.65v-76q0-8.85-3-14.63-2-3.86-8.73-8.48c-.22-.08-.33-.34-.33-.77a2.32,2.32,0,0,1,.33-1.28l3.75-5.65c.71-1.11,1.33-2.18,1.88-3.21.16-.26.52-1,1.06-2.18.33-.6.68-.9,1.06-.9a1.19,1.19,0,0,1,.74.38,60.34,60.34,0,0,1,6.77,8.62,36.13,36.13,0,0,1,5.64,16.06,48.12,48.12,0,0,1,9-17.86q6.95-8.35,15.35-8.36a13.47,13.47,0,0,1,11.39,5.46A21.47,21.47,0,0,1,661.28,182.94Z"/><path class="cls-34" d="M751.75,230.49q0,27-12.58,46.14-12.24,18.63-28.9,18.63-17.57,0-29.6-19.21t-12-46.85q0-26.85,12.29-45.94t29.52-19.09q17.31,0,29.31,19.41T751.75,230.49Zm-7,5.65q0-21.19-12.41-40.35Q719.5,176,704.23,176q-11.93,0-20.25,12.85t-8.33,30.33q0,25.32,12.65,45,12.42,19.27,27.36,19.28,11.83,0,20.08-12.08Q744.73,258.11,744.72,236.14Z"/><path class="cls-34" d="M861,176.23a115.89,115.89,0,0,1-2.86,22.87q-2.11,10.14-6.61,26.19-2.94,10.53-6.62,23.24-4.41,15.27-6,20.93-3.18,11.3-5.55,20.54l-1,4.11c-.32.77-.65,1.15-1,1.15s-.65-.38-1-1.15l-1.14-3.6q-4.17-12.83-6.13-19.63-2.52-8.6-5.14-19.63-.9-3.58-2.45-10.77-2.85-13.08-3.76-16.42l-.49-1.86q-.24-1-.48-1c-.17,0-.49.85-1,2.56q-2.62,9.75-6.86,30.28-1.63,7.82-4.25,19.24-2,8.6-3.92,17.19a9.91,9.91,0,0,1-.45,2c-.24.79-.42,1.36-.53,1.72q-.4,1.05-.9,1.05t-.81-.72a8.33,8.33,0,0,1-.74-2.19c-.22-1-.38-1.67-.49-2.1q-2.54-11-4.9-20.28-4.15-16.31-4.73-18.74-2.62-11.05-5.72-26.71-1.71-8.6-4.08-22.21t-3.92-22.21a9,9,0,0,0-2.21-4.75q-1.64-1.8-3.18-3.72a3,3,0,0,1-.74-1.93c0-.94.63-1.42,1.88-1.42a20.42,20.42,0,0,1,2.45.13q5,.65,6.53.65a45.46,45.46,0,0,0,5.63-.39c2.07-.26,3.3-.39,3.68-.39,1.09,0,1.63.48,1.63,1.44a2.67,2.67,0,0,1-.65,1.71c-1.15,1.3-2.26,2.61-3.35,3.92a7.11,7.11,0,0,0-1.55,5.36q1.14,8.06,3.35,18.13,4.31,20.22,4.31,20.34,4.65,23.69,9.28,47.36,2-9.77,4.91-22.89,2.7-11.33,3.93-17,2.13-9,4.67-18.91,3.51-13.63,3.88-15c.25-.94.5-1.82.74-2.64a18.58,18.58,0,0,1,.78-2.12c.27-.6.52-.9.73-.9s.6.43.82,1.28l1,4.11q3,15.8,8.5,39.28,3.42,14.76,5.71,23.11,1.8,6.54,3.76,12.32,4.58-16.69,7.18-27,5.38-20.67,8-33.38,3.69-18,3.68-25.94a53.9,53.9,0,0,0-1.3-13.35c-1.08-4.11-2.82-6.17-5.2-6.17a3.34,3.34,0,0,0-2.76,1.1A10.42,10.42,0,0,0,842,166a13.47,13.47,0,0,0-.49,2.19,21.63,21.63,0,0,0-.16,3c-.06.86-.35,1.29-.89,1.29a1.09,1.09,0,0,1-.49-.13,1.71,1.71,0,0,1-.41-.39,12.35,12.35,0,0,1-2.48-4.37,16.91,16.91,0,0,1-1.1-5.91q0-6.42,3.47-10.15a10.78,10.78,0,0,1,8.13-3.73q7.18,0,10.61,9.12Q861,164.16,861,176.23Z"/><path class="cls-35" d="M936.17,553v-4.21a2.7,2.7,0,0,1-.55,1.57A6.78,6.78,0,0,1,936.17,553Z"/><path class="cls-35" d="M1202.46,561.25H1032.25c-15.07,0-30.58,0-45.73,0h-82v48.63h298V561.25Z"/><path class="cls-35" d="M1203.44,623.94H1033.23c-15.07,0-30.58,0-45.73,0h-82v48.63h298V623.94Z"/><path class="cls-35" d="M1200.13,685.49H1029.92c-15.07,0-30.58,0-45.73,0h-82v48.63h298V685.49Z"/><path class="cls-36" d="M935.17,554a9.87,9.87,0,0,0-.55-3.23,3.79,3.79,0,0,0,.55-1.92c0-4.6-9.08-8.33-20.29-8.33s-20.29,3.73-20.29,8.33a3.76,3.76,0,0,0,.46,1.76,9.71,9.71,0,0,0-.61,3.39V852a9.31,9.31,0,0,0,9,9.51h22.63a9.31,9.31,0,0,0,9-9.51Z"/><path class="cls-36" d="M1213,555.45a9.82,9.82,0,0,0-.55-3.23,3.8,3.8,0,0,0,.55-1.93c0-4.59-9.08-8.32-20.29-8.32s-20.29,3.73-20.29,8.32a3.7,3.7,0,0,0,.46,1.76,9.81,9.81,0,0,0-.61,3.4v298a9.31,9.31,0,0,0,9,9.51H1204a9.31,9.31,0,0,0,9-9.51Z"/><ellipse class="cls-35" cx="1192.06" cy="549.88" rx="19.86" ry="7.78"/><ellipse class="cls-35" cx="914.5" cy="548.5" rx="19.86" ry="7.78"/></svg>