<svg id="Layer_1" data-name="Layer 1" xmlns="http://www.w3.org/2000/svg" width="1200" height="1100" viewBox="0 0 1200 1100"><defs><style>.cls-1{fill:#fbde9f;}.cls-2{fill:#dbac99;}.cls-3{fill:#fff;}.cls-4{fill:#29abe2;}.cls-5{fill:#e1916d;}.cls-6{fill:#93278f;}.cls-7{fill:#df27f9;}.cls-8{fill:#fbc03b;}.cls-9{fill:none;stroke:#000;stroke-miterlimit:10;}.cls-10{fill:#e91a00;}</style></defs><polygon class="cls-1" points="718.62 998.68 696.8 960.89 675 923.11 718.63 923.11 762.26 923.12 740.44 960.9 718.62 998.68"/><polygon class="cls-1" points="791.21 998.79 769.4 961 747.59 923.21 791.22 923.22 834.85 923.22 813.03 961.01 791.21 998.79"/><polygon class="cls-1" points="652.17 985.17 630.36 947.38 608.55 909.6 652.18 909.6 695.81 909.61 673.99 947.39 652.17 985.17"/><polygon class="cls-1" points="509.96 994.68 488.15 956.89 466.34 919.11 509.97 919.11 553.6 919.12 531.78 956.9 509.96 994.68"/><polygon class="cls-1" points="443 998.55 421.19 960.77 399.38 922.98 443.01 922.98 486.64 922.99 464.82 960.77 443 998.55"/><polygon class="cls-1" points="391 1000.55 369.19 962.77 347.38 924.98 391.01 924.98 434.64 924.99 412.82 962.77 391 1000.55"/><polygon class="cls-1" points="904.88 926.85 295.88 926.85 369.88 572.85 810.88 572.85 904.88 926.85"/><path class="cls-2" d="M815.48,524.76C823.65,647.54,731,859.49,595.27,859.84s-218.76-187.6-223.82-306,80.1-241,210.39-244.36c14.57-.37,30.89,1.1,30.89,1.1s56.38,5.86,104.21,37.13C776.79,386.84,811.56,465.74,815.48,524.76Z"/><ellipse class="cls-3" cx="669.4" cy="526.95" rx="47.09" ry="44.81"/><ellipse class="cls-4" cx="669.26" cy="526.98" rx="25.69" ry="24.44"/><path class="cls-5" d="M622.53,520.83h94.19c0-22.49-21.09-40.73-47.1-40.73S622.53,498.34,622.53,520.83Z"/><circle cx="670.04" cy="532.38" r="4.5"/><ellipse class="cls-3" cx="514.53" cy="528.16" rx="47.09" ry="44.81"/><ellipse class="cls-4" cx="514.39" cy="528.19" rx="25.69" ry="24.44"/><path class="cls-5" d="M467.67,522.05h94.18c0-22.5-21.08-40.74-47.09-40.74S467.67,499.55,467.67,522.05Z"/><circle cx="515.18" cy="533.59" r="4.5"/><ellipse cx="574.65" cy="622.93" rx="10.17" ry="4.49" transform="translate(-168.92 1029.59) rotate(-75.98)"/><ellipse cx="609.2" cy="623.07" rx="4.49" ry="10.17" transform="translate(-132.77 166.1) rotate(-14.02)"/><circle class="cls-2" cx="369.5" cy="591.43" r="19"/><circle class="cls-2" cx="815.5" cy="591.43" r="19"/><path class="cls-1" d="M369.88,537.85s23-175,224-175,223,175,223,175c0-135.86-100.06-246-223.5-246S369.88,402,369.88,537.85Z"/><polygon class="cls-1" points="812.26 574.01 820.51 573.15 819.83 568.38 817.71 546.99 814.88 518.85 813.57 546.43 812.26 574.01"/><polygon class="cls-1" points="372.88 572.85 365.88 572.85 366.81 567.2 369.06 545.62 372.06 517.23 372.97 545.04 372.88 572.85"/><rect class="cls-2" x="565.88" y="845.85" width="53" height="113"/><path class="cls-6" d="M350.88,1075.85H821.2c0-83.49-105.28-151.17-235.16-151.17S350.88,992.36,350.88,1075.85Z"/><rect class="cls-7" x="575.88" y="926.85" width="33" height="149"/><path class="cls-2" d="M618.88,923.85h-53c0,16.11,11.87,29.18,26.51,29.18S618.88,940,618.88,923.85Z"/><ellipse class="cls-8" cx="593.24" cy="1051.87" rx="9.78" ry="19.32"/><ellipse class="cls-8" cx="593.37" cy="993.06" rx="9.78" ry="19.32"/><path class="cls-1" d="M473.2,466.6c-10.49-2.1,16.71-13,39.26-13,35.63,0,53,5.29,52.92,8.3-.08,1.64-25.29,5.43-38.63.88C520.31,460.62,481.85,468.33,473.2,466.6Z"/><path class="cls-1" d="M714.83,467c10.49-2.1-16.71-13-39.26-13-35.63,0-53.05,5.29-52.92,8.3.08,1.64,25.29,5.42,38.63.88C667.72,461,706.18,468.75,714.83,467Z"/><path class="cls-8" d="M680.77,341.92l-7.87-22.77-8.52-24.68L647.27,314.2l-15.79,18.2-1.47-.14-19.52-47.14-19.56-47.23-17.52,48-16.87,46.27-1,.09-13.24-16.62L526,295.24l-9.56,24.3L508,341c-18.13,5.54-29.16,12.86-29.16,20.89,0,0,14.07-24.83,113.94-24.83s114.06,24.83,114.06,24.83C706.88,354.28,697.08,347.34,680.77,341.92Z"/><polygon class="cls-1" points="339.26 1002.54 317.45 964.75 295.64 926.96 339.27 926.97 382.9 926.97 361.08 964.75 339.26 1002.54"/><polygon class="cls-1" points="861.17 1002.17 839.36 964.38 817.55 926.6 861.18 926.6 904.81 926.61 882.99 964.39 861.17 1002.17"/><path class="cls-9" d="M494.87,715.24a228.76,228.76,0,0,1,196,0"/><path class="cls-9" d="M483.75,711.61c.54-.07,7.81-.81,12.51,4.85a14.32,14.32,0,0,1,3,10.78"/><path class="cls-9" d="M703.33,710.77c-.54-.06-7.81-.8-12.51,4.86a14.36,14.36,0,0,0-3,10.78"/><polyline class="cls-9" points="569.38 789.8 573.58 810.35 610.38 810.35 613.41 789.8"/><rect class="cls-10" x="581.22" y="946.55" width="14.75" height="14.7" transform="translate(870.77 -130.88) rotate(46.26)"/><rect class="cls-10" x="602.22" y="947.01" width="14.75" height="14.7" transform="translate(877.58 -145.91) rotate(46.26)"/><rect class="cls-10" x="560.23" y="946.09" width="14.75" height="14.7" transform="translate(863.96 -115.86) rotate(46.26)"/><rect class="cls-10" x="546.47" y="934.78" width="14.75" height="14.7" transform="translate(1452.1 319.63) rotate(85.73)"/><rect class="cls-10" x="616.45" y="936.32" width="14.75" height="14.7" transform="translate(135.91 -76.92) rotate(7.92)"/><polygon class="cls-10" points="551.53 926.12 558.79 925.58 555.49 930.31 552.2 935.04 548.24 930.86 544.28 926.66 551.53 926.12"/><polygon class="cls-10" points="626.04 927.22 633.24 928.22 629.02 932.15 624.8 936.08 621.82 931.15 618.84 926.22 626.04 927.22"/></svg>