<svg id="Layer_1" data-name="Layer 1" xmlns="http://www.w3.org/2000/svg" width="1920" height="1080" viewBox="0 0 1920 1080"><defs><style>.cls-1{fill:#29abe2;}.cls-2{fill:#ffdf00;}.cls-19,.cls-3{fill:#fff;}.cls-3{opacity:0.64;}.cls-4{fill:#39994a;}.cls-5{fill:#39934a;}.cls-6{fill:#39a94a;}.cls-18,.cls-7{fill:none;}.cls-8{fill:#a6835b;}.cls-9{fill:#a67c52;}.cls-10{fill:#ed1c24;}.cls-11{opacity:0.2;}.cls-12{fill:#42210b;}.cls-13{fill:#dbac99;}.cls-14{fill:#42170b;}.cls-15{fill:#ffffd5;}.cls-16{fill:#754c24;}.cls-17{fill:#603813;}.cls-18{stroke:#000;stroke-miterlimit:10;}.cls-20{fill:#22b573;}.cls-21{fill:#e1916d;}.cls-22{fill:#ff3c24;}.cls-23{fill:#006837;}.cls-24{opacity:0.14;}</style></defs><rect class="cls-1" y="1" width="1920" height="712"/><polygon class="cls-2" points="429.21 20 434.43 133.39 467.04 24.89 444.54 136.05 502.48 39.25 453.68 141.19 533.32 62.19 461.29 148.5 557.62 92.25 466.88 157.52 573.86 127.56 470.1 167.67 581 165.88 470.75 178.33 578.61 204.82 468.8 188.82 566.83 241.93 464.36 198.48 546.4 274.88 457.71 206.71 518.61 301.58 449.26 212.99 485.2 320.38 439.56 216.92 448.27 330.08 429.21 218.26 410.15 330.08 418.86 216.92 373.23 320.38 409.16 212.99 339.82 301.58 400.72 206.71 312.03 274.88 394.07 198.48 291.6 241.93 389.63 188.82 279.82 204.82 387.67 178.33 277.43 165.88 388.33 167.67 284.57 127.56 391.55 157.52 300.8 92.25 397.14 148.5 325.1 62.19 404.75 141.19 355.94 39.25 413.89 136.05 391.39 24.89 424 133.39 429.21 20"/><path class="cls-3" d="M416.71,198.27c5.41-5,8.77-11.48,9-18.66.51-16.56-15.87-30.5-36.6-31.14-11.19-.34-21.36,3.27-28.42,9.28-7.77-10-21.42-16.88-37.16-17.36-17.82-.55-33.49,7.24-41.18,19-1.65-.08-3.3-.15-5-.2l-3-.08c-7.57-18.32-28.8-31.92-54.22-32.7-24-.74-45,10.19-54.58,26.46-42.52,1.66-75.45,16.81-76,36.29a18.45,18.45,0,0,0,1.41,7.56c-14.37,2.64-22.93,6.19-23.06,10.32-.17,5.62,15.33,11.14,40,15.29a15.83,15.83,0,0,0-1.82,6.79c-.5,16.18,25.15,30.11,57.28,31.1a102.88,102.88,0,0,0,32.43-3.93A38.88,38.88,0,0,0,216,262.52a39.86,39.86,0,0,0,15.92-2.7c10.31,8.08,25.23,13.41,42,13.92,15.14.47,29-3.09,39.54-9.28,8.74,7.18,20.79,11.81,34.21,12.23,19.42.59,36.5-7.78,45.1-20.5a48.5,48.5,0,0,0,5.31.47c21.43.66,39.22-12.69,39.74-29.8C438.13,214.57,429.52,203.68,416.71,198.27Z"/><path class="cls-4" d="M1920,847V543c-886.06,8.66-1596.18,140-1643,304Z"/><path class="cls-5" d="M0,856H1189C1155.12,738.43,641.22,644.21,0,638Z"/><path class="cls-3" d="M1552.83,64.46A26,26,0,0,0,1559,47.64c0-14.73-12.39-26.66-27.69-26.66a28.08,28.08,0,0,0-20.74,9,33.95,33.95,0,0,0-57.73,3.61c-1.21,0-2.43,0-3.66,0H1447C1441,17.5,1425,6,1406.28,6a43.35,43.35,0,0,0-39.65,25c-31.31,2.64-55.24,17-55.24,34.31A19.43,19.43,0,0,0,1312.6,72c-10.54,2.73-16.77,6.12-16.77,9.79,0,5,11.56,9.48,29.81,12.5a16.44,16.44,0,0,0-1.19,6.07c0,14.4,19.23,26.06,42.94,26.06a64,64,0,0,0,23.82-4.37,25.38,25.38,0,0,0,26.75,2.13c7.79,6.91,18.9,11.23,31.26,11.23a47.82,47.82,0,0,0,28.94-9.33,37.36,37.36,0,0,0,25.5,9.93,36.86,36.86,0,0,0,32.78-19.44,30.08,30.08,0,0,0,3.94.27c15.8,0,28.62-12.34,28.62-27.56A27.49,27.49,0,0,0,1552.83,64.46Z"/><rect class="cls-6" y="831" width="1920" height="249"/><path class="cls-7" d="M1147.5,349.07v-12.2a9.82,9.82,0,0,1-1.17,4.56A25.82,25.82,0,0,1,1147.5,349.07Z"/><polygon class="cls-8" points="1646.8 335.94 1147.5 335.94 1147.5 336.87 1147.5 349.07 1147.5 673.71 1646.8 673.71 1646.8 349.07 1646.8 335.94"/><path class="cls-9" d="M1146.33,341.43a9.82,9.82,0,0,0,1.17-4.56c0-10.88-19.21-19.7-42.91-19.7s-42.91,8.82-42.91,19.7a9.74,9.74,0,0,0,1,4.17,25.73,25.73,0,0,0-1.28,8v705.58c0,12.39,8.61,22.52,19.14,22.52h47.86c10.52,0,19.14-10.13,19.14-22.52V349.07A25.82,25.82,0,0,0,1146.33,341.43Z"/><path class="cls-9" d="M1732.94,349.07a25.5,25.5,0,0,0-1.17-7.64,9.82,9.82,0,0,0,1.17-4.56c0-10.88-19.21-19.7-42.91-19.7s-42.91,8.82-42.91,19.7a9.75,9.75,0,0,0,1,4.17,25.73,25.73,0,0,0-1.29,8v705.58c0,12.39,8.61,22.52,19.14,22.52h47.86c10.53,0,19.14-10.13,19.14-22.52Z"/><path class="cls-10" d="M674.08,960.56c-4.46,6.73-17.84,9-30.51,9.24-6.76.16-13.54-.17-20.29.07-2,.07-7.19.16-8.22,1.22-.88.89,1.56,2.42,2.84,3.11,6.84,3.7,18.59,3.74,25.54,7.62,8.57,4.8,6.85,13.62-3.76,17.31a32.42,32.42,0,0,1-19.52,0c-5.61-1.85-8.51-5-11.19-8s-5.19-5.89-11.85-6.67c-7.92-.92-5.67,3.77-4.11,6.17,4.08,6.29,7.08,14.3-4.28,19.27-8.12,3.56-19.93,2.36-25.85-2-3.47-2.54-4.66-5.81-4.19-8.87.62-3.94,5.14-7.67,5.15-11.58,0-2.09-2-5-6-6.05-2.37-.62-4.86-.2-7.25.2-6.57,1.11-12.5,2.75-19.44,3.27-5,.37-11.76.72-15.74-1.32-3.3-1.68-2.94-4.13-.87-6.09,4.19-4,12.38-6.92,19-9.78,4.56-2,12.78-5.28,6-8.26-3.42-1.5-8.49-1.89-12.24-3.14-11.79-3.94-5.8-12,3.74-15.63,11.78-4.46,23.76.1,35,2.49l.62-.17c1-2.65,3.45-5.17,7.37-7,7-3.33,19-4.38,25.92-.41,3.94,2.25,4.51,5.4,3.62,8.26a12.13,12.13,0,0,1-3.12,5.16,1.54,1.54,0,0,0-.48.75,17.37,17.37,0,0,0,2.75.24c6.34.32,12.8-.88,19-1.41,3.82-.34,7.73-.46,11.61-.52,9.67-.13,20.2.09,29.29,1.93C671.52,951.75,677.35,955.62,674.08,960.56Z"/><g class="cls-11"><ellipse cx="777.81" cy="903.75" rx="69.83" ry="29.32" transform="translate(-26.62 23.61) rotate(-1.71)"/><path d="M740.61,887c44.47-11.43,99.27-8.68,88.35,17.38-1.26,3-4.39,2.27-7.92,2.25h0c-3.53,0-7.25-.28-5.76-2.83,12.83-22.05-33.79-20.47-68.5-12.08-4,1-7.24.23-8.55-1.13h0C736.92,889.25,735.46,888.34,740.61,887Z"/><path d="M800,925.62c-6,.24-10-6.89-11.92-6.67s2.87,7.78-.88,8.33-29.65-6.61-32.68-6.11c-2.85.46,20.62,7,15.55,8.1-6,1.35-31.42-4.9-36.94-3.7-4.45,1,5.26,6.51,18.44,8.55,11.12,1.73,24.09-1.15,31.41,1.4,3.77,1.31,3.84,3.3,8.77,3.47,2.18.07,5.3-.21,6.4-.83,2.54-1.45-8.15-3.34-5.92-5.06,1.51-1.17,7.08-.84,14.87-2.17,10.1-1.72,9.54-3.77,21.16-7.12s21.15-3.87,20.77-4.68-12-1.27-20.87.56c-9.62,2-11.73,5.62-13.88,5.53-3.53-.14,2.13-10,.38-10S807,925.33,800,925.62Z"/><path d="M720,909.84c3.61,3.28,10.76,6.26,19.71,8.21,2.61.56,3.13,0,4.13-.71s.91-1.55-1.07-2c-6.53-1.53-12.52-3.71-16-6.09C724.52,909.51,722.27,909.72,720,909.84Z"/></g><path class="cls-12" d="M619,969.91c-4.3,17.14-34.45,5.78-62.57-1.28s-43.57-7.16-39.26-24.3-4.82-26,23.3-18.89S623.33,952.77,619,969.91Z"/><path class="cls-12" d="M383.61,973c5.29,16.86,34.72,3.78,62.39-4.89s43.08-9.66,37.8-26.53,3.31-26.19-24.36-17.51S378.32,956.18,383.61,973Z"/><path class="cls-13" d="M359.26,610.54l38.5-36.08a9,9,0,0,0-12.31-13.14l-44.62,41.83a8.77,8.77,0,0,0-2.07,2.92,9,9,0,0,0,1.5,11.48l45.13,41.28a9,9,0,0,0,12.15-13.28Z"/><path class="cls-13" d="M663.63,604.49a9.18,9.18,0,0,0-2.07-2.92l-44.63-41.82a9,9,0,0,0-12.31,13.13L643.12,609l-38.27,35a9,9,0,0,0-.57,12.72h0a9,9,0,0,0,12.72.56L662.13,616A9.05,9.05,0,0,0,663.63,604.49Z"/><path d="M632.71,658.69c0-50.82-51.26,9.11-123.33,9.11s-137.67-59.93-137.67-9.11c0,32.8,24.32,61.58,60.94,77.88L416.83,942.25h65.6V749.67a185.92,185.92,0,0,0,19.78,1.05q7.43,0,14.65-.58V942.25h63.27L566.64,738.73C606.1,722.91,632.71,693,632.71,658.69Z"/><path class="cls-14" d="M593.11,587l15.54-13.56,15.55-13.57c-14-16-32.24-22.9-40.83-15.4S579.15,571,593.11,587Z"/><path class="cls-14" d="M363.71,669.25h278c0-85.08-62.24-154-139-154S363.71,584.17,363.71,669.25Z"/><rect class="cls-15" x="489.05" y="515.74" width="24.68" height="153.51"/><ellipse class="cls-16" cx="520.59" cy="538.18" rx="3.66" ry="3.59"/><ellipse class="cls-16" cx="520.59" cy="558.83" rx="3.66" ry="3.59"/><ellipse class="cls-16" cx="520.59" cy="579.47" rx="3.66" ry="3.59"/><ellipse class="cls-16" cx="520.59" cy="600.12" rx="3.66" ry="3.59"/><ellipse class="cls-16" cx="520.59" cy="620.77" rx="3.66" ry="3.59"/><ellipse class="cls-16" cx="520.59" cy="641.42" rx="3.66" ry="3.59"/><ellipse class="cls-16" cx="520.59" cy="662.06" rx="3.66" ry="3.59"/><ellipse cx="479.45" cy="537.96" rx="5.03" ry="0.67"/><ellipse cx="479.45" cy="558.15" rx="5.03" ry="0.67"/><ellipse cx="479.45" cy="580.15" rx="5.03" ry="0.67"/><ellipse cx="479.45" cy="600.8" rx="5.03" ry="0.67"/><ellipse cx="479.45" cy="621.44" rx="5.03" ry="0.67"/><ellipse cx="479.45" cy="641.19" rx="5.03" ry="0.67"/><ellipse cx="479.45" cy="661.84" rx="5.03" ry="0.67"/><ellipse class="cls-17" cx="603.31" cy="364.68" rx="13.71" ry="13.47"/><ellipse class="cls-17" cx="401.29" cy="364.68" rx="13.71" ry="13.47"/><ellipse class="cls-17" cx="403.35" cy="376.12" rx="6.63" ry="6.51"/><ellipse class="cls-17" cx="601.26" cy="376.12" rx="6.63" ry="6.51"/><ellipse class="cls-17" cx="596.69" cy="344.03" rx="22.17" ry="24.24"/><ellipse class="cls-17" cx="406.55" cy="348.07" rx="22.17" ry="24.24"/><path class="cls-13" d="M604.27,337.47c3.73,55.11-38.6,150.24-100.65,150.4s-100-84.21-102.3-137.35,36.61-108.18,96.16-109.69c6.66-.17,14.12.49,14.12.49S537.37,244,559.23,258C586.59,275.56,602.48,311,604.27,337.47Z"/><ellipse cx="515.32" cy="381.97" rx="2.02" ry="3.03" transform="translate(-33.63 713.8) rotate(-67.7)"/><path class="cls-18" d="M492.31,453a8.48,8.48,0,0,0,2.84,9.82c3,2.23,7,2,8.49,2s4.89-.24,7.55-2.36c3-2.39,3.83-6.38,2.36-10.22"/><ellipse cx="491.4" cy="382.05" rx="3.03" ry="2.02" transform="translate(-108.22 215.05) rotate(-22.3)"/><ellipse class="cls-13" cx="400.43" cy="367.39" rx="8.68" ry="8.53"/><ellipse class="cls-13" cx="604.28" cy="367.39" rx="8.68" ry="8.53"/><ellipse class="cls-17" cx="500.48" cy="238.1" rx="11.43" ry="9.87"/><ellipse class="cls-17" cx="588.92" cy="277.82" rx="14.4" ry="14.14"/><ellipse class="cls-17" cx="419.8" cy="277.6" rx="16.68" ry="18.85"/><ellipse class="cls-17" cx="426.89" cy="284.33" rx="15.54" ry="13.02"/><ellipse class="cls-17" cx="455" cy="270.42" rx="25.32" ry="4.95" transform="matrix(0.95, -0.3, 0.3, 0.95, -60.07, 148.53)"/><ellipse class="cls-17" cx="569.03" cy="273.56" rx="19.65" ry="19.3"/><ellipse class="cls-17" cx="500.25" cy="254.48" rx="40.91" ry="21.32"/><ellipse class="cls-17" cx="434.66" cy="255.83" rx="16.45" ry="14.14"/><ellipse class="cls-17" cx="521.73" cy="231.59" rx="9.83" ry="9.65"/><ellipse class="cls-17" cx="539.78" cy="263.68" rx="18.74" ry="13.02"/><ellipse class="cls-17" cx="561.95" cy="250.44" rx="15.77" ry="15.49"/><ellipse class="cls-17" cx="537.73" cy="241.69" rx="24" ry="16.16"/><ellipse class="cls-17" cx="482.65" cy="241.02" rx="16" ry="11.45"/><ellipse class="cls-17" cx="464.6" cy="254.26" rx="24" ry="16.16"/><ellipse class="cls-17" cx="441.06" cy="266.83" rx="19.65" ry="19.3"/><ellipse class="cls-17" cx="575.43" cy="263.68" rx="19.65" ry="19.3"/><ellipse class="cls-17" cx="583.43" cy="288.6" rx="15.77" ry="15.49"/><ellipse class="cls-17" cx="596.91" cy="302.73" rx="18.74" ry="20.2"/><ellipse class="cls-17" cx="414.78" cy="299.37" rx="21.35" ry="18.03" transform="translate(15.06 618.56) rotate(-74.43)"/><ellipse class="cls-17" cx="457.97" cy="248.65" rx="23.31" ry="17.28"/><ellipse class="cls-17" cx="406.78" cy="323.83" rx="18.28" ry="21.1"/><ellipse class="cls-17" cx="403.35" cy="347.84" rx="11.2" ry="11"/><ellipse class="cls-17" cx="603.09" cy="348.29" rx="11.2" ry="11"/><ellipse class="cls-17" cx="604.68" cy="327.87" rx="18.28" ry="21.1"/><ellipse class="cls-17" cx="491.33" cy="238.32" rx="32.91" ry="19.08"/><ellipse class="cls-17" cx="466.88" cy="266.6" rx="13.03" ry="10.1"/><path class="cls-18" d="M460.78,431c7.55-14.69,24.68-24.25,43.34-24.19,19.37.05,36.77,10.44,43.48,26"/><path class="cls-18" d="M453.77,431.72a6.6,6.6,0,0,1,8-.1,5.81,5.81,0,0,1,2,6"/><path class="cls-18" d="M555.57,432.55a6.63,6.63,0,0,0-8,.33,5.77,5.77,0,0,0-1.59,6.06"/><rect class="cls-13" x="489.05" y="477.34" width="24.68" height="39.05"/><path class="cls-13" d="M513.73,516.39H489.05c0,7.48,5.52,13.54,12.34,13.54S513.73,523.87,513.73,516.39Z"/><path class="cls-16" d="M484.45,322.1c-.58,2.28-7.11-1.52-16.9-3.94s-19.15-2.53-18.56-4.81,9-2.18,18.79.24S485,319.81,484.45,322.1Z"/><path class="cls-16" d="M522,322.57c.67,2.26,7-1.79,16.72-4.59s19-3.27,18.36-5.53-9.08-1.83-18.77,1S521.27,320.32,522,322.57Z"/><ellipse class="cls-19" cx="466.57" cy="347.85" rx="21.52" ry="20.11"/><ellipse class="cls-20" cx="466.51" cy="347.86" rx="11.74" ry="10.97"/><path class="cls-21" d="M487.65,342.89c-1.67-8.47-9.74-14.87-19.27-15.55-10.53-.75-20.54,5.64-22.78,15a1.88,1.88,0,0,1,.12.45l41.86.34A1,1,0,0,1,487.65,342.89Z"/><path class="cls-21" d="M445.51,352.83c1.81,8.44,10,14.7,19.53,15.23,10.54.58,20.43-6,22.52-15.36a2.13,2.13,0,0,1-.13-.45l-41.85.34A2.17,2.17,0,0,1,445.51,352.83Z"/><ellipse cx="466.85" cy="349.63" rx="2.51" ry="2.47"/><ellipse class="cls-19" cx="539.71" cy="347.69" rx="21.52" ry="20.11"/><ellipse class="cls-20" cx="539.64" cy="347.71" rx="11.74" ry="10.97"/><path class="cls-21" d="M560.79,342.74c-1.67-8.47-9.74-14.87-19.27-15.55-10.53-.76-20.54,5.64-22.78,15a1.76,1.76,0,0,1,.12.45l41.85.34A1.55,1.55,0,0,1,560.79,342.74Z"/><path class="cls-21" d="M518.65,352.67c1.81,8.45,10,14.71,19.53,15.24,10.54.58,20.43-6,22.52-15.36a2.54,2.54,0,0,1-.13-.45l-41.85.34A1.55,1.55,0,0,1,518.65,352.67Z"/><ellipse cx="539.99" cy="349.48" rx="2.51" ry="2.47"/><path class="cls-14" d="M409.36,590.3l-15.54-13.56-15.55-13.57c14-16,32.24-22.9,40.83-15.4S423.32,574.3,409.36,590.3Z"/><ellipse class="cls-10" cx="725.34" cy="852.23" rx="59.91" ry="49.12"/><path class="cls-22" d="M752.65,884.73c-40.45,13.38-86.13,1.87-70.42-40.06,1.82-4.85,4.28-3.21,7.26-2.73h0c3,.47,6.06,1.38,4.17,5.44-16.34,35,23.49,38.28,54.94,28.73,3.65-1.11,6.18.52,6.95,2.95h0C756.32,881.49,757.34,883.18,752.65,884.73Z"/><path class="cls-23" d="M712,813.08c5.14.35,6.75,12.71,8.43,12.59s-.49-13.29,2.81-13.74,23.44,14.74,26.13,14.3c2.52-.42-15.71-14.2-11.15-15.44,5.41-1.48,25.36,12.12,30.34,10.81,4-1.05-2.84-11.47-13.48-16.54-9-4.27-20.66-1.13-26.22-6.29-2.87-2.66-2.43-6-6.56-6.87-1.82-.4-4.53-.33-5.62.57-2.5,2.08,6.06,6.58,3.75,9.16-1.56,1.74-6.2.49-13.11,1.72-9,1.58-9,5.06-19.67,9.16s-18.86,3.76-18.73,5.15,9.8,3.62,17.79,1.71c8.63-2,11.32-7.85,13.11-7.44,2.95.69-4.27,16.32-2.81,16.6S706,812.67,712,813.08Z"/><path class="cls-22" d="M775.73,849.4c-2.24-5.91-7.55-11.77-14.64-16.13-2.06-1.27-2.65-.38-3.67.65a2.08,2.08,0,0,0,.4,3.48c5.15,3.36,9.68,7.76,12.06,12.15A49.86,49.86,0,0,1,775.73,849.4Z"/><g class="cls-24"><path d="M373.9,969.94c-8.58-5.56,26-8.18,55.66-11.6s43.27-6.34,51.85-.77,22.92,6.27-6.77,9.68S382.49,975.51,373.9,969.94Z"/><path d="M577.57,924.1c-16.78-3.66-33.1,5.59-51.05,13.28s-30.73,10.9-13.95,14.56,16,7.88,33.93.19S594.35,927.76,577.57,924.1Z"/><path d="M860.09,1019.8l-7.68,17.35c-.72,1.62,3.24,3.24,8.81,3.6s10.7-.69,11.42-2.32l8.9-20.1a1.08,1.08,0,0,0-.3-1.21c-.58-1.44-4.57-2.69-9.58-2.89l-69.23-2.81c-5.6-.22-10.42.94-10.71,2.59s4.06,3.19,9.66,3.41Z"/><path d="M598.21,1079.63a30.08,30.08,0,0,0,3.92.41l69.17,3c5.6.25,10.47-.89,10.83-2.54s-3.93-3.2-9.53-3.44l-59.68-2.64,8.26-17c.78-1.62-3.12-3.26-8.67-3.63h0c-5.56-.37-10.74.65-11.53,2.27l-9.73,20.05C590.54,1077.61,593.59,1079.07,598.21,1079.63Z"/><path d="M586.2,1058.72c36.62,14.07,38.27-12.32,101.31-26.09s163.61-9.71,127-23.78c-23.63-9.08-65.65-12.4-109.43-9.92L570.7,939l-57.39,12.54,138.78,53.31c-6.14,1-12.18,2.2-18.06,3.49q-6.49,1.41-12.4,3L483.2,958.08l-55.35,12.09,158.46,53.77C563.2,1035.86,561.48,1049.22,586.2,1058.72Z"/><path d="M672.53,1071l-3.82,6.72-3.82,6.73c23.74,1.77,44.7.18,46.81-3.53S696.27,1072.77,672.53,1071Z"/><path d="M813.89,1004.4l-121.52,26.54-121.65,26.57c61.31,23.56,165.44,30.76,232.59,16.09S875.2,1028,813.89,1004.4Z"/><polygon points="682.66 1033.06 704.25 1028.35 814.87 1070.84 793.28 1075.56 682.66 1033.06"/><ellipse cx="771.12" cy="1070.66" rx="1.21" ry="4.11" transform="translate(-316.14 1818.19) rotate(-88.75)"/><ellipse cx="756.24" cy="1064.94" rx="1.21" ry="4.11" transform="translate(-324.98 1797.72) rotate(-88.75)"/><ellipse cx="741.36" cy="1059.22" rx="1.21" ry="4.11" transform="translate(-333.82 1777.26) rotate(-88.75)"/><ellipse cx="726.48" cy="1053.51" rx="1.21" ry="4.11" transform="translate(-342.65 1756.79) rotate(-88.75)"/><ellipse cx="711.6" cy="1047.79" rx="1.21" ry="4.11" transform="translate(-351.49 1736.33) rotate(-88.75)"/><ellipse cx="696.72" cy="1042.08" rx="1.21" ry="4.11" transform="translate(-360.33 1715.86) rotate(-88.75)"/><ellipse cx="681.84" cy="1036.36" rx="1.21" ry="4.11" transform="translate(-369.17 1695.39) rotate(-88.75)"/><ellipse cx="807.26" cy="1062.86" rx="4.52" ry="0.28" transform="translate(-202.93 190.58) rotate(-11.97)"/><ellipse cx="792.7" cy="1057.27" rx="4.52" ry="0.28" transform="translate(-202.08 187.44) rotate(-11.97)"/><ellipse cx="776.85" cy="1051.18" rx="4.52" ry="0.28" transform="matrix(0.98, -0.21, 0.21, 0.98, -201.16, 184.02)"/><ellipse cx="761.98" cy="1045.46" rx="4.52" ry="0.28" transform="translate(-200.3 180.81) rotate(-11.97)"/><ellipse cx="747.1" cy="1039.75" rx="4.52" ry="0.28" transform="translate(-199.44 177.6) rotate(-11.97)"/><ellipse cx="732.87" cy="1034.28" rx="4.52" ry="0.28" transform="translate(-198.61 174.53) rotate(-11.97)"/><ellipse cx="717.99" cy="1028.56" rx="4.52" ry="0.28" transform="translate(-197.75 171.32) rotate(-11.97)"/><path d="M842.55,1142.21c-43-14.54-74.5-49-20.34-60.87s148.14,4.21,188.46,18.48,45.93,37-5.07,48.74c-5.71,1.32-12.7,2.56-12.7,2.56a376.58,376.58,0,0,1-53.68,4.49C902.63,1156,863.21,1149.2,842.55,1142.21Z"/><polygon points="792.82 1075.38 814.4 1070.66 842.54 1081.47 820.96 1086.19 792.82 1075.38"/><path d="M792.81,1075.38,803.6,1073l10.8-2.36c-5.39-2.07-14.59-2.69-20.55-1.39S787.42,1073.31,792.81,1075.38Z"/><path d="M830.85,1035l23.36.78,23.39.79c-.69,7.09-11.71,12.5-24.62,12.06S830.16,1042.07,830.85,1035Z"/></g></svg>