<svg id="Layer_1" data-name="Layer 1" xmlns="http://www.w3.org/2000/svg" width="1920" height="1080" viewBox="0 0 1920 1080"><defs><style>.cls-1{fill:#29abe2;}.cls-2{fill:#ffdf00;}.cls-13,.cls-3{fill:#fff;}.cls-3{opacity:0.64;}.cls-4{fill:#39994a;}.cls-5{fill:#39934a;}.cls-6{fill:#39a94a;}.cls-7{fill:#dbac99;}.cls-8{fill:#42210b;}.cls-9{fill:#42170b;}.cls-10{fill:#ffffd5;}.cls-11{fill:#754c24;}.cls-12{fill:#603813;}.cls-14{fill:#22b573;}.cls-15{fill:#e1916d;}.cls-16,.cls-21{fill:none;}.cls-16{stroke:#000;stroke-miterlimit:10;}.cls-17{fill:#f0f;}.cls-18{fill:#fbc03b;}.cls-19{fill:#c69c6d;}.cls-20{fill:#dba98f;}.cls-22{fill:#a6835b;}.cls-23{fill:#a67c52;}.cls-24{opacity:0.13;}</style></defs><rect class="cls-1" y="1" width="1920" height="712"/><polygon class="cls-2" points="429.21 20 434.43 133.39 467.04 24.89 444.54 136.05 502.48 39.25 453.68 141.19 533.32 62.19 461.29 148.5 557.62 92.25 466.88 157.52 573.86 127.56 470.1 167.67 581 165.88 470.75 178.33 578.61 204.82 468.8 188.82 566.83 241.93 464.36 198.48 546.4 274.88 457.71 206.71 518.61 301.58 449.26 212.99 485.2 320.38 439.56 216.92 448.27 330.08 429.21 218.26 410.15 330.08 418.86 216.92 373.23 320.38 409.16 212.99 339.82 301.58 400.72 206.71 312.03 274.88 394.07 198.48 291.6 241.93 389.63 188.82 279.82 204.82 387.67 178.33 277.43 165.88 388.33 167.67 284.57 127.56 391.55 157.52 300.8 92.25 397.14 148.5 325.1 62.19 404.75 141.19 355.94 39.25 413.89 136.05 391.39 24.89 424 133.39 429.21 20"/><path class="cls-3" d="M416.71,198.27c5.41-5,8.77-11.48,9-18.66.51-16.56-15.87-30.5-36.6-31.14-11.19-.34-21.36,3.27-28.42,9.28-7.77-10-21.42-16.88-37.16-17.36-17.82-.55-33.49,7.24-41.18,19-1.65-.08-3.3-.15-5-.2l-3-.08c-7.57-18.32-28.8-31.92-54.22-32.7-24-.74-45,10.19-54.58,26.46-42.52,1.66-75.45,16.81-76,36.29a18.45,18.45,0,0,0,1.41,7.56c-14.37,2.64-22.93,6.19-23.06,10.32-.17,5.62,15.33,11.14,40,15.29a15.83,15.83,0,0,0-1.82,6.79c-.5,16.18,25.15,30.11,57.28,31.1a102.88,102.88,0,0,0,32.43-3.93A38.88,38.88,0,0,0,216,262.52a39.86,39.86,0,0,0,15.92-2.7c10.31,8.08,25.23,13.41,42,13.92,15.14.47,29-3.09,39.54-9.28,8.74,7.18,20.79,11.81,34.21,12.23,19.42.59,36.5-7.78,45.1-20.5a48.5,48.5,0,0,0,5.31.47c21.43.66,39.22-12.69,39.74-29.8C438.13,214.57,429.52,203.68,416.71,198.27Z"/><path class="cls-4" d="M1920,847V543c-886.06,8.66-1596.18,140-1643,304Z"/><path class="cls-5" d="M0,856H1189C1155.12,738.43,641.22,644.21,0,638Z"/><path class="cls-3" d="M1552.83,64.46A26,26,0,0,0,1559,47.64c0-14.73-12.39-26.66-27.69-26.66a28.08,28.08,0,0,0-20.74,9,33.95,33.95,0,0,0-57.73,3.61c-1.21,0-2.43,0-3.66,0H1447C1441,17.5,1425,6,1406.28,6a43.35,43.35,0,0,0-39.65,25c-31.31,2.64-55.24,17-55.24,34.31A19.43,19.43,0,0,0,1312.6,72c-10.54,2.73-16.77,6.12-16.77,9.79,0,5,11.56,9.48,29.81,12.5a16.44,16.44,0,0,0-1.19,6.07c0,14.4,19.23,26.06,42.94,26.06a64,64,0,0,0,23.82-4.37,25.38,25.38,0,0,0,26.75,2.13c7.79,6.91,18.9,11.23,31.26,11.23a47.82,47.82,0,0,0,28.94-9.33,37.36,37.36,0,0,0,25.5,9.93,36.86,36.86,0,0,0,32.78-19.44,30.08,30.08,0,0,0,3.94.27c15.8,0,28.62-12.34,28.62-27.56A27.49,27.49,0,0,0,1552.83,64.46Z"/><rect class="cls-6" y="831" width="1920" height="249"/><path class="cls-7" d="M741.61,533c1.11-1.55-2.21-4.55-3.33-5.7a41.3,41.3,0,0,0-5-4.88c-1.36-1-2.93-1.59-4.32-2.5a5.3,5.3,0,0,1-1.24-1.09c-.2,0-.41,0-.61,0a3.72,3.72,0,0,1-.77.52,4,4,0,0,0,0,.49V520l-72.93,68.73-49.68-46.23a10.5,10.5,0,1,0-14.31,15.37l56.37,52.45a10.38,10.38,0,0,0,4.54,2.48,9,9,0,0,0,9.39-1.84l80.82-76.16h.31A4.84,4.84,0,0,1,741.61,533Z"/><path class="cls-7" d="M412,551.14a10.54,10.54,0,0,0-14.78-1.51l-52.62,42.86-68.25-73.38a.57.57,0,0,0,0-.13,14.42,14.42,0,0,0-4.24-10.76l0-13.37a3,3,0,0,0-6,0l0,9.73a14.43,14.43,0,0,0-2-.45l-5.52-10.42a3,3,0,0,0-5.31,2.81l4.29,8.08a14,14,0,0,0-3.72,1.76L247,499a3,3,0,0,0-4.24-.15h0a3,3,0,0,0-.15,4.24l7,7.56a14.44,14.44,0,0,0-1.71,3.79l-8.73-3.79a3,3,0,1,0-2.39,5.5l10.74,4.67a14.41,14.41,0,0,0,.84,3l-5.6,0a3,3,0,0,0,0,6l10,0a14.48,14.48,0,0,0,8.34,3.13l75.63,81.31a9,9,0,0,0,9.25,2.46,10.43,10.43,0,0,0,4.69-2.17l59.71-48.63A10.54,10.54,0,0,0,412,551.14Z"/><path class="cls-8" d="M619.43,965.41c-4.3,17.14-34.45,5.78-62.57-1.29s-43.57-7.15-39.26-24.3-4.82-26,23.3-18.89S623.74,948.27,619.43,965.41Z"/><path class="cls-8" d="M384,968.53c5.28,16.87,34.72,3.79,62.39-4.89s43.08-9.66,37.8-26.52,3.31-26.19-24.36-17.52S378.73,951.67,384,968.53Z"/><path d="M633.12,654.19c0-50.83-51.26,9.11-123.33,9.11s-137.67-59.94-137.67-9.11c0,32.79,24.32,61.58,60.94,77.87L417.24,937.74h65.6V745.17a185.92,185.92,0,0,0,19.78,1.05q7.42,0,14.65-.58v192.1h63.27L567.05,734.23C606.5,718.4,633.12,688.49,633.12,654.19Z"/><path class="cls-9" d="M593.52,582.45l15.54-13.56,15.55-13.58c-14-16-32.24-22.89-40.83-15.4S579.56,566.45,593.52,582.45Z"/><path class="cls-9" d="M364.12,664.74h278c0-85.07-62.24-154-139-154S364.12,579.67,364.12,664.74Z"/><rect class="cls-10" x="489.46" y="511.23" width="24.68" height="153.51"/><ellipse class="cls-11" cx="520.99" cy="533.67" rx="3.66" ry="3.59"/><ellipse class="cls-11" cx="520.99" cy="554.32" rx="3.66" ry="3.59"/><ellipse class="cls-11" cx="520.99" cy="574.97" rx="3.66" ry="3.59"/><ellipse class="cls-11" cx="520.99" cy="595.62" rx="3.66" ry="3.59"/><ellipse class="cls-11" cx="520.99" cy="616.26" rx="3.66" ry="3.59"/><ellipse class="cls-11" cx="520.99" cy="636.91" rx="3.66" ry="3.59"/><ellipse class="cls-11" cx="520.99" cy="657.56" rx="3.66" ry="3.59"/><ellipse cx="479.86" cy="533.45" rx="5.03" ry="0.67"/><ellipse cx="479.86" cy="553.65" rx="5.03" ry="0.67"/><ellipse cx="479.86" cy="575.64" rx="5.03" ry="0.67"/><ellipse cx="479.86" cy="596.29" rx="5.03" ry="0.67"/><ellipse cx="479.86" cy="616.94" rx="5.03" ry="0.67"/><ellipse cx="479.86" cy="636.69" rx="5.03" ry="0.67"/><ellipse cx="479.86" cy="657.34" rx="5.03" ry="0.67"/><path class="cls-9" d="M409.77,585.8l-15.54-13.56-15.55-13.58c14-16,32.24-22.89,40.83-15.4S423.73,569.8,409.77,585.8Z"/><ellipse class="cls-12" cx="604.82" cy="365.25" rx="13.83" ry="13.67"/><ellipse class="cls-12" cx="401.04" cy="365.25" rx="13.83" ry="13.67"/><ellipse class="cls-12" cx="403.12" cy="376.87" rx="6.68" ry="6.61"/><ellipse class="cls-12" cx="602.74" cy="376.87" rx="6.68" ry="6.61"/><ellipse class="cls-12" cx="598.13" cy="344.28" rx="22.36" ry="24.61"/><ellipse class="cls-12" cx="406.34" cy="348.39" rx="22.36" ry="24.61"/><path class="cls-7" d="M605.78,337.62c3.77,56-38.93,152.56-101.53,152.72S403.4,404.83,401.07,350.87,438,241,498.07,239.5c6.71-.17,14.24.5,14.24.5s26,2.67,48,16.92C587.94,274.76,604,310.72,605.78,337.62Z"/><ellipse class="cls-13" cx="538.43" cy="338.62" rx="21.71" ry="20.42"/><ellipse class="cls-14" cx="538.37" cy="338.63" rx="11.84" ry="11.14"/><path class="cls-15" d="M516.82,335.83h43.43c0-10.25-9.72-18.57-21.71-18.57S516.82,325.58,516.82,335.83Z"/><ellipse cx="538.73" cy="341.09" rx="2.07" ry="2.05"/><ellipse class="cls-13" cx="467.03" cy="339.17" rx="21.71" ry="20.42"/><ellipse class="cls-14" cx="466.97" cy="339.18" rx="11.84" ry="11.14"/><path class="cls-15" d="M445.43,336.38h43.42c0-10.25-9.72-18.56-21.71-18.56S445.43,326.13,445.43,336.38Z"/><ellipse cx="467.33" cy="341.65" rx="2.07" ry="2.05"/><ellipse cx="516.06" cy="382.81" rx="2.05" ry="3.06" transform="translate(-35.97 711.64) rotate(-67.35)"/><path class="cls-16" d="M492.85,454.92a8.67,8.67,0,0,0,2.86,10c3.07,2.26,7.08,2.06,8.57,2s4.93-.24,7.61-2.39c3-2.43,3.87-6.48,2.38-10.38"/><ellipse cx="491.93" cy="382.89" rx="3.06" ry="2.05" transform="translate(-109.51 218.98) rotate(-22.65)"/><ellipse class="cls-7" cx="400.17" cy="368.01" rx="8.76" ry="8.66"/><ellipse class="cls-7" cx="605.79" cy="368.01" rx="8.76" ry="8.66"/><ellipse class="cls-12" cx="501.09" cy="236.72" rx="11.53" ry="10.03"/><ellipse class="cls-12" cx="590.3" cy="277.06" rx="14.52" ry="14.36"/><ellipse class="cls-12" cx="419.71" cy="276.83" rx="16.83" ry="19.14"/><ellipse class="cls-12" cx="426.86" cy="283.67" rx="15.68" ry="13.22"/><ellipse class="cls-12" cx="455.21" cy="269.54" rx="25.56" ry="5.02" transform="translate(-60.04 149.6) rotate(-17.53)"/><ellipse class="cls-12" cx="570.24" cy="272.73" rx="19.82" ry="19.6"/><ellipse class="cls-12" cx="500.86" cy="253.36" rx="41.26" ry="21.65"/><ellipse class="cls-12" cx="434.7" cy="254.73" rx="16.6" ry="14.36"/><ellipse class="cls-12" cx="522.52" cy="230.11" rx="9.91" ry="9.8"/><ellipse class="cls-12" cx="540.73" cy="262.7" rx="18.9" ry="13.22"/><ellipse class="cls-12" cx="563.09" cy="249.26" rx="15.91" ry="15.72"/><ellipse class="cls-12" cx="538.66" cy="240.37" rx="24.2" ry="16.41"/><ellipse class="cls-12" cx="483.11" cy="239.69" rx="16.14" ry="11.62"/><ellipse class="cls-12" cx="464.89" cy="253.13" rx="24.2" ry="16.41"/><ellipse class="cls-12" cx="441.15" cy="265.89" rx="19.82" ry="19.6"/><ellipse class="cls-12" cx="576.7" cy="262.7" rx="19.82" ry="19.6"/><ellipse class="cls-12" cx="584.76" cy="288" rx="15.91" ry="15.72"/><ellipse class="cls-12" cx="598.36" cy="302.35" rx="18.9" ry="20.51"/><ellipse class="cls-12" cx="414.64" cy="298.94" rx="21.66" ry="18.2" transform="translate(18.56 622.06) rotate(-75)"/><ellipse class="cls-12" cx="458.21" cy="247.43" rx="23.51" ry="17.55"/><ellipse class="cls-12" cx="406.57" cy="323.77" rx="18.44" ry="21.42"/><ellipse class="cls-12" cx="403.12" cy="348.16" rx="11.3" ry="11.17"/><ellipse class="cls-12" cx="604.59" cy="348.61" rx="11.3" ry="11.17"/><ellipse class="cls-12" cx="606.2" cy="327.88" rx="18.44" ry="21.42"/><ellipse class="cls-12" cx="491.87" cy="236.95" rx="33.19" ry="19.37"/><ellipse class="cls-12" cx="467.2" cy="265.66" rx="13.14" ry="10.25"/><path class="cls-16" d="M452.92,400.75C461.7,418.5,481.64,430,503.36,430c22.55-.07,42.81-12.62,50.63-31.42"/><path class="cls-16" d="M444.75,399.91a7.49,7.49,0,0,0,9.32.12,7.14,7.14,0,0,0,2.26-7.2"/><path class="cls-16" d="M563.26,398.9a7.48,7.48,0,0,1-9.31-.4,7.15,7.15,0,0,1-1.85-7.32"/><rect class="cls-7" x="489.56" y="479.65" width="24.9" height="39.65"/><path class="cls-7" d="M514.46,519.3h-24.9c0,7.59,5.57,13.75,12.45,13.75S514.46,526.89,514.46,519.3Z"/><path class="cls-11" d="M485.87,308.51c0,2.39-7.33.22-17.52.22S449,310.9,449,308.51s8.26-4.33,18.44-4.33S485.87,306.12,485.87,308.51Z"/><path class="cls-11" d="M520.15,308.31c0,2.39,7.34.23,17.52.23S557,310.7,557,308.31,548.78,304,538.6,304,520.15,305.92,520.15,308.31Z"/><ellipse class="cls-7" cx="741.61" cy="521.01" rx="13.5" ry="16" transform="translate(183.72 1235.28) rotate(-87.1)"/><path class="cls-17" d="M828.72,450.77l17-22.11-48.2-2.2v0l-50.8-2.57a3.46,3.46,0,0,1,2.72,3.33l-2.14,42.32,38.27,1.94.18.24,58.35,2.67Zm-40.78,3.61c-25.2-1.28-29,4-29,4,.09-1.77,3-3.24,7.59-4.23l2.37-4.61,2.68-5.24,3.87,4.71,3.16,3.84h.26l4.77-10,5-10.36,4.4,10.66,4.4,10.63.37.05,4.19-3.81,4.54-4.12,1.87,5.54,1.73,5.12c4.06,1.41,6.45,3.06,6.37,4.73C816.44,461.31,813.14,455.66,787.94,454.38Z"/><path class="cls-18" d="M810.07,456.58l-1.73-5.12-1.87-5.54L801.93,450l-4.19,3.81-.37-.05L793,443.17l-4.4-10.66-5,10.36-4.77,10h-.26L775.42,449l-3.87-4.71-2.68,5.24-2.37,4.61c-4.63,1-7.5,2.46-7.59,4.23,0,0,3.83-5.29,29-4s28.5,6.93,28.5,6.93C816.52,459.64,814.13,458,810.07,456.58Z"/><path class="cls-19" d="M746.72,423.86a4.36,4.36,0,0,0-1-.18c-2.16-.11-4,1.29-4.1,3.11l-5,97.89c-.09,1.82,1.6,3.4,3.76,3.51s4-1.29,4.09-3.11l2.82-55.57,2.14-42.32A3.46,3.46,0,0,0,746.72,423.86Z"/><rect class="cls-7" x="722.9" y="512.26" width="28" height="6" rx="3" transform="translate(-155.31 626.94) rotate(-42.1)"/><path class="cls-20" d="M747.65,505.54a3.59,3.59,0,0,0-4.94-.25L726.39,520a3.5,3.5,0,0,0,2.17,6.09,3.53,3.53,0,0,0,2.52-.9l16.32-14.75a3.49,3.49,0,0,0,.25-4.94Zm-.92,4.2-16.32,14.75a2.56,2.56,0,0,1-3.53-.18,2.47,2.47,0,0,1-.64-1.8,2.43,2.43,0,0,1,.82-1.73L743.38,506a2.5,2.5,0,0,1,3.53.18,2.5,2.5,0,0,1-.18,3.53Z"/><rect class="cls-7" x="734.31" y="520.7" width="28" height="6" rx="3" transform="translate(-158.02 636.77) rotate(-42.1)"/><path class="cls-20" d="M740,534.57a3.52,3.52,0,0,1-2.42-1.15,3.52,3.52,0,0,1,.25-4.94l16.33-14.75a3.5,3.5,0,1,1,4.69,5.19L742.5,533.67A3.54,3.54,0,0,1,740,534.57Zm16.63-20.74a2.5,2.5,0,0,0-1.8.64l-16.32,14.75a2.5,2.5,0,0,0-.18,3.53,2.56,2.56,0,0,0,3.53.18l16.32-14.75a2.53,2.53,0,0,0,.82-1.73,2.5,2.5,0,0,0-2.37-2.62Z"/><rect class="cls-7" x="728.52" y="516.4" width="28" height="6" rx="3" transform="translate(-156.64 631.78) rotate(-42.1)"/><path class="cls-20" d="M734.18,530.27a3.52,3.52,0,0,1-2.42-1.15,3.48,3.48,0,0,1-.89-2.52,3.44,3.44,0,0,1,1.15-2.42l16.32-14.75a3.5,3.5,0,1,1,4.69,5.19l-16.32,14.75A3.5,3.5,0,0,1,734.18,530.27Zm16.63-20.74a2.5,2.5,0,0,0-1.8.64l-16.32,14.75a2.5,2.5,0,0,0-.18,3.53,2.56,2.56,0,0,0,3.53.18l16.32-14.75a2.51,2.51,0,0,0,.82-1.73,2.5,2.5,0,0,0-2.37-2.62Z"/><rect class="cls-7" x="726.4" y="514.18" width="16.86" height="6" rx="3" transform="translate(899.57 1400.53) rotate(-135.7)"/><path class="cls-20" d="M738.54,524.46a3.5,3.5,0,0,1-2.27-1l-7.77-7.58a3.51,3.51,0,0,1-.06-4.95,3.5,3.5,0,0,1,4.95-.06l7.77,7.58a3.5,3.5,0,0,1-2.62,6Zm-7.47-13.57a2.5,2.5,0,0,0-1.87,4.28l7.77,7.59a2.5,2.5,0,1,0,3.49-3.58l-7.77-7.59A2.48,2.48,0,0,0,731.07,510.89Z"/><path class="cls-21" d="M1147.5,349.07v-12.2a9.82,9.82,0,0,1-1.17,4.56A25.82,25.82,0,0,1,1147.5,349.07Z"/><polygon class="cls-22" points="1646.8 335.94 1147.5 335.94 1147.5 336.87 1147.5 349.07 1147.5 673.71 1646.8 673.71 1646.8 349.07 1646.8 335.94"/><path class="cls-23" d="M1146.33,341.43a9.82,9.82,0,0,0,1.17-4.56c0-10.88-19.21-19.7-42.91-19.7s-42.91,8.82-42.91,19.7a9.74,9.74,0,0,0,1,4.17,25.73,25.73,0,0,0-1.28,8v705.58c0,12.39,8.61,22.52,19.14,22.52h47.86c10.52,0,19.14-10.13,19.14-22.52V349.07A25.82,25.82,0,0,0,1146.33,341.43Z"/><path class="cls-23" d="M1732.94,349.07a25.5,25.5,0,0,0-1.17-7.64,9.82,9.82,0,0,0,1.17-4.56c0-10.88-19.21-19.7-42.91-19.7s-42.91,8.82-42.91,19.7a9.75,9.75,0,0,0,1,4.17,25.73,25.73,0,0,0-1.29,8v705.58c0,12.39,8.61,22.52,19.14,22.52h47.86c10.53,0,19.14-10.13,19.14-22.52Z"/><path d="M1228.77,388.5a2.22,2.22,0,0,1-.72,1.62,7.14,7.14,0,0,1-1.17.88.73.73,0,0,1-.26.08c-.13,0-.18-.1-.14-.29a5.19,5.19,0,0,0,.24-.57,1.85,1.85,0,0,0,.07-.57,2.23,2.23,0,0,0-.2-.93,2.18,2.18,0,0,0-1.11-1.2,4,4,0,0,0-1.81-.4,4.74,4.74,0,0,0-3.23,1.23,3.73,3.73,0,0,0-1.4,2.93,3.92,3.92,0,0,0,.8,2.34,2.7,2.7,0,0,0,.68.67c.14.09.5.29,1.09.61.17.09.26.18.26.27s-.07.14-.2.21l-1.78,1c-.49.29-.78.45-.85.51l-.81.5a.21.21,0,0,1-.2.06c-.17,0-.23-.13-.2-.32s.09-.39.16-.69a3.56,3.56,0,0,0,.1-.8,4.1,4.1,0,0,0-.2-1.17A5.79,5.79,0,0,0,1215,391a11.66,11.66,0,0,0-14.82,3.52,17.32,17.32,0,0,0-3.26,10.52,21.64,21.64,0,0,0,4.09,13.07,14,14,0,0,0,11.83,6.27,13,13,0,0,0,7.41-2.1q3.12-2.1,3.12-4.76a2.22,2.22,0,0,0-.37-1.24,1.14,1.14,0,0,0-1-.57,1.87,1.87,0,0,0-1,.24,2.17,2.17,0,0,0-.46.4c0,.14-.11.21-.22.21s-.18-.12-.18-.37a2.6,2.6,0,0,1,.58-1.54,2.13,2.13,0,0,1,1.83-1,2.52,2.52,0,0,1,2.15,1.06,3.74,3.74,0,0,1,.68,2.26,2.49,2.49,0,0,1,0,.45q-.39,3.91-4.4,6.66a16.35,16.35,0,0,1-9.45,2.75,17.12,17.12,0,0,1-13.6-6.3,21.24,21.24,0,0,1-5.12-14.27,18.64,18.64,0,0,1,4.69-12.68A15.64,15.64,0,0,1,1209.7,388a11.9,11.9,0,0,1,7.85,2.61,7.39,7.39,0,0,1,1.89-3.78,6.11,6.11,0,0,1,4.63-2,5.36,5.36,0,0,1,3.4,1A3.31,3.31,0,0,1,1228.77,388.5Z"/><path d="M1256.94,413.43a12.38,12.38,0,0,1-4.41,9.55,15.4,15.4,0,0,1-20.51-.12,12.79,12.79,0,0,1-4.22-9.69,12.43,12.43,0,0,1,4.3-9.5,14.82,14.82,0,0,1,10.35-3.95,14.36,14.36,0,0,1,10.28,4A12.94,12.94,0,0,1,1256.94,413.43Zm-2.46,1.17q0-4.38-4.36-8.34a14.31,14.31,0,0,0-9.84-4.1,10.16,10.16,0,0,0-7.1,2.66,8.22,8.22,0,0,0-2.92,6.28,12.34,12.34,0,0,0,4.43,9.3,13.91,13.91,0,0,0,9.59,4,10.45,10.45,0,0,0,7-2.5A9.19,9.19,0,0,0,1254.48,414.6Z"/><path d="M1287.05,409.67a19.48,19.48,0,0,1-1.49,7.55,21.46,21.46,0,0,1-4.41,6.66h.31l.58,0a12.34,12.34,0,0,0,1.66-.1,3.77,3.77,0,0,0,1.52-.54l1-.72a.54.54,0,0,1,.17-.08l.12,0c.21,0,.27.15.17.47s-.08.58-.11.95-.06.62-.06.74,0,.54,0,.83,0,.6.08.92,0,.52-.23.52a.46.46,0,0,1-.28-.1c-.57-.29-1-.48-1.2-.57a5.84,5.84,0,0,0-1.25-.31,15.59,15.59,0,0,0-1.82-.08l-1.31,0c-.33,0-.76.07-1.29.14s-.83-.07-.83-.48a.66.66,0,0,1,.08-.32c1-1.49,1.84-2.72,2.41-3.69a22.86,22.86,0,0,0,2-4.31,15.67,15.67,0,0,0,.8-5,10.8,10.8,0,0,0-2-6.78,6.75,6.75,0,0,0-5.67-2.73,7.76,7.76,0,0,0-4.32,1.24,8.62,8.62,0,0,0-2.83,3.11v16.3a1.34,1.34,0,0,0,.63,1q.55.44,1.11.84a.83.83,0,0,1,.32.54c0,.18-.17.27-.49.27l-1.3-.08c-.76,0-1.46-.08-2.09-.08s-1.31,0-1.74.05-.92.08-1.48.11-.69-.1-.69-.3a.78.78,0,0,1,.26-.46,7.47,7.47,0,0,1,.83-.7c.65-.46,1-.85,1-1.17V407.63a4.87,4.87,0,0,0-1.46-3.66,8.78,8.78,0,0,0-2.2-1.38.32.32,0,0,1-.23-.3.48.48,0,0,1,.17-.34c.25-.21.46-.39.63-.52s.39-.32.66-.57.48-.45.63-.61l.43-.48a.37.37,0,0,1,.31-.13.38.38,0,0,1,.26.08,13.21,13.21,0,0,1,2.18,2.15,7.84,7.84,0,0,1,1.83,3.27,14,14,0,0,1,3.06-3.32,8.84,8.84,0,0,1,5.47-2.1,9.45,9.45,0,0,1,7.93,3.59A10.13,10.13,0,0,1,1287.05,409.67Z"/><path d="M1320.77,428.48q0,4.33-5.29,6.94a24.5,24.5,0,0,1-10.85,2.26,17.25,17.25,0,0,1-7.9-1.71q-3.72-1.86-3.72-4.78a3.7,3.7,0,0,1,1.1-2.83,4,4,0,0,1,2.85-1.05,4.67,4.67,0,0,1,2.62.66,2.6,2.6,0,0,1,1.15,1.84,2,2,0,0,1,.06.4,1.64,1.64,0,0,1-.34,1,.47.47,0,0,1-.29.16.23.23,0,0,1-.23-.16,2.38,2.38,0,0,0-1-1.13,3.1,3.1,0,0,0-1.54-.35,1.72,1.72,0,0,0-1.38.65,2.08,2.08,0,0,0-.56,1.42c0,1.42,1,2.53,3,3.35a16.35,16.35,0,0,0,6.26,1.06,14.72,14.72,0,0,0,8-2.21q3.78-2.36,3.78-5.82a5.7,5.7,0,0,0-3-4.94,11.66,11.66,0,0,0-6.47-1.75,14.05,14.05,0,0,0-5.72,1,8,8,0,0,0-2.29,1.54c-.17.16-.37.14-.58-.06-.4-.23-.72-.43-1-.61a5.13,5.13,0,0,1-.63-.5q-.22-.21.06-.48l1.54-.93a14.21,14.21,0,0,0,1.32-.88,15.52,15.52,0,0,0,2.43-1.94,7.09,7.09,0,0,0,1.12-1.41,13.14,13.14,0,0,1-5.9-2.66,7.67,7.67,0,0,1-3.37-6.16,7.49,7.49,0,0,1,3.69-6.41,14.28,14.28,0,0,1,8.16-2.31,23.4,23.4,0,0,1,4.28.33,14,14,0,0,1,3.68,1.32,5.43,5.43,0,0,0,.91-1.23,3.88,3.88,0,0,0,.46-1.86,1.6,1.6,0,0,0-1.89-1.7,1.64,1.64,0,0,0-.86.22,2.64,2.64,0,0,0-.46.37c-.09.09-.17.11-.23.08s-.07-.14,0-.29a3.79,3.79,0,0,1,.63-1.65,2.26,2.26,0,0,1,1.94-1.07,3.08,3.08,0,0,1,2.52,1,3.86,3.86,0,0,1,.75,2.53,5.17,5.17,0,0,1-.78,2.57,5,5,0,0,1-1.46,1.73,9.82,9.82,0,0,1,3,3,7.48,7.48,0,0,1,1,3.88,7.28,7.28,0,0,1-3.72,6.33,15.09,15.09,0,0,1-8.41,2.23c-.31,0-.65,0-1,0l-.87-.06a10.08,10.08,0,0,1-1.66,1.83,14.27,14.27,0,0,1-2,1.57,17.6,17.6,0,0,1,3.07-.63,31.46,31.46,0,0,1,3.29-.17,17.88,17.88,0,0,1,8.47,1.89Q1320.77,424.28,1320.77,428.48ZM1315.39,409a8.17,8.17,0,0,0-.46-2.9,7.12,7.12,0,0,0-1.6-2.41,6.27,6.27,0,0,1-1.33.6,5.52,5.52,0,0,1-1.53.19,3.63,3.63,0,0,1-2.55-.84,1.92,1.92,0,0,1-.72-1.39c0-.19,0-.29.12-.29s.13.05.23.13a3.33,3.33,0,0,0,.68.64,3.06,3.06,0,0,0,1.66.43,4.93,4.93,0,0,0,1.26-.16,4.2,4.2,0,0,0,1-.43,6.86,6.86,0,0,0-2.34-1.3,9.25,9.25,0,0,0-3.15-.55,9.79,9.79,0,0,0-6.36,2.19,6.75,6.75,0,0,0-2.69,5.45,7.88,7.88,0,0,0,1.62,5,8,8,0,0,0,4.57,2.84,3.31,3.31,0,0,0,.17-1,3.07,3.07,0,0,0-.57-1.67c-.14-.22-.06-.37.22-.47l.73-.24c.2-.06.51-.17.91-.33a6.37,6.37,0,0,0,1-.49l.9-.54c.12-.11.21-.13.29-.06a.37.37,0,0,1,.11.32,6.82,6.82,0,0,1-.58,2.1,26.51,26.51,0,0,1-1.13,2.52,7,7,0,0,0,1,.08,8.79,8.79,0,0,0,5.72-2.18A6.65,6.65,0,0,0,1315.39,409Z"/><path d="M1346,403.6a3.53,3.53,0,0,1-.88,2.5,3.1,3.1,0,0,1-2.38,1,5.45,5.45,0,0,1-1.82-.27,1.69,1.69,0,0,1-1-.74.23.23,0,0,1,0-.24.24.24,0,0,1,.25-.14,3.23,3.23,0,0,0,1-.13,1.85,1.85,0,0,0,.79-.48,1.74,1.74,0,0,0,.49-1.25,1.66,1.66,0,0,0-.75-1.41,4.25,4.25,0,0,0-2.46-.61,6.2,6.2,0,0,0-4,1.68,10.1,10.1,0,0,0-2.69,3.58v16.3a1.34,1.34,0,0,0,.63,1c.36.29.73.57,1.09.84a.74.74,0,0,1,.29.49c0,.21-.21.32-.63.32s-.63,0-.86,0c-1.19-.08-2-.13-2.35-.13-.73,0-1.3,0-1.73.05s-.92.08-1.48.11-.63-.1-.63-.3a.91.91,0,0,1,.35-.57l.77-.59c.59-.44.89-.83.89-1.17V407.63a4.4,4.4,0,0,0-1.06-3,8.88,8.88,0,0,0-3.06-1.76c-.08,0-.12-.07-.12-.16a.34.34,0,0,1,.12-.26l1.31-1.17q.38-.35.66-.66c.06-.06.18-.21.37-.46a.52.52,0,0,1,.38-.18.56.56,0,0,1,.25.08,16.32,16.32,0,0,1,2.38,1.78,5.9,5.9,0,0,1,2,3.32,9.62,9.62,0,0,1,3.15-3.69,9.13,9.13,0,0,1,5.38-1.73,6.38,6.38,0,0,1,4,1.13A3.38,3.38,0,0,1,1346,403.6Z"/><path d="M1374.82,425.29a1,1,0,0,1,.2.42c0,.18-.14.27-.43.27l-.95-.08c-.55,0-1.07-.08-1.57-.08a9.81,9.81,0,0,0-1.14.08l-.75.08c-.44,0-.66-.1-.66-.29a.53.53,0,0,1,.15-.29,3.31,3.31,0,0,0,.41-.73,2.21,2.21,0,0,0,.16-.87l-.17-2.55a10,10,0,0,1-3.7,3.8,11.11,11.11,0,0,1-6,1.78,11.56,11.56,0,0,1-7.44-2.42,8.06,8.06,0,0,1-3.21-6.62,8.44,8.44,0,0,1,3.49-6.85,12.48,12.48,0,0,1,8-2.66,11.66,11.66,0,0,1,4.34.82,8.64,8.64,0,0,1,3.16,2,7.74,7.74,0,0,0-1.46-3.49,16.74,16.74,0,0,0-4-4.49,9.77,9.77,0,0,0-6-2.23,6.89,6.89,0,0,0-3.29.74,2.59,2.59,0,0,0-1.57,2.34,2.07,2.07,0,0,0,.47,1.41,1.62,1.62,0,0,0,1.3.56,1.54,1.54,0,0,0,1-.35,1,1,0,0,0,.43-.82,2.24,2.24,0,0,0-.1-.68q-.11-.33-.18-.6c-.06-.12,0-.2,0-.24a2.27,2.27,0,0,1,.38,0,2.45,2.45,0,0,1,1.46.69,1.84,1.84,0,0,1,.65,1.38,2.55,2.55,0,0,1-1.07,2.09,3.89,3.89,0,0,1-2.47.84,3.82,3.82,0,0,1-2.75-1,3.65,3.65,0,0,1-1.09-2.79c0-1.53.87-2.71,2.6-3.56a12.45,12.45,0,0,1,5.53-1.12,12,12,0,0,1,6.27,1.87,14.63,14.63,0,0,1,5,5.09,20.28,20.28,0,0,1,2.14,5.61,53.5,53.5,0,0,1,1,5.84c.3,2.47.56,4.17.77,5.09a4.33,4.33,0,0,0,.54,1.33Zm-4.87-8.51a5.66,5.66,0,0,0-2.39-4.79,10.12,10.12,0,0,0-6.25-1.8,8.44,8.44,0,0,0-5.5,1.92,5.88,5.88,0,0,0-2.35,4.73,6.43,6.43,0,0,0,2.39,5.06,8.46,8.46,0,0,0,5.69,2.06,9,9,0,0,0,6.11-2A6.54,6.54,0,0,0,1370,416.78Z"/><path d="M1391.36,401.85c0,.28-.13.42-.4.42l-1.4,0c-.84,0-1.63-.06-2.38-.06v17.6a4.79,4.79,0,0,0,1.15,3.22,14.06,14.06,0,0,0,1.66,1.41.45.45,0,0,1,.23.37c0,.09-.08.18-.23.28s-.32.2-.51.3l-.58.43a7.49,7.49,0,0,0-1,1,.67.67,0,0,1-.46.21.89.89,0,0,1-.4-.11,5.66,5.66,0,0,1-2.17-2.18,9.64,9.64,0,0,1-1.32-5.15V402.16c-.61,0-1.19,0-1.75,0l-1.68.07a.37.37,0,0,1-.41-.42V401c0-.29.18-.43.52-.43l1.26.05c.74,0,1.43.06,2.06.06v-2c0-1-.24-1.61-.71-1.73l-.66-.08c-.27,0-.4-.12-.4-.37a.41.41,0,0,1,.17-.32q.63-.51,1.29-1.08l1.46-1.31q.91-.88,1.41-1.47l1-1.14a.26.26,0,0,1,.23-.13c.15,0,.23.13.23.4-.06.46-.12.92-.17,1.38a32.23,32.23,0,0,0-.18,3.45v4.42c.63,0,1.25,0,1.87,0s1.25,0,1.91-.08c.27,0,.4.12.4.37Z"/><path d="M1423.94,424.28a7.21,7.21,0,0,1-.72.56,6.86,6.86,0,0,0-.65.56q-.37.35-.66.66l-.37.45a.34.34,0,0,1-.29.19.93.93,0,0,1-.4-.13,9,9,0,0,1-2.09-1.76,4.87,4.87,0,0,1-1.4-3.24,9.73,9.73,0,0,1-3,3.32,9.22,9.22,0,0,1-5.5,1.89q-5.24,0-8.07-3.22a10.26,10.26,0,0,1-2.46-7,16.24,16.24,0,0,1,.66-4.68,18.85,18.85,0,0,1,1.63-3.85c.27-.48.93-1.59,2-3.33.1-.19,0-.4-.4-.63a8.51,8.51,0,0,0-1.31-.59l-1-.48a.27.27,0,0,1-.22-.26c0-.13.15-.23.47-.3l1-.21a15.56,15.56,0,0,0,1.93-.54,17.44,17.44,0,0,0,2-.81l1.8-.91a1.3,1.3,0,0,1,.32-.08.26.26,0,0,1,.2.14.4.4,0,0,1,0,.38,1,1,0,0,1-.2.36,26.24,26.24,0,0,0-3.93,6.19,18.39,18.39,0,0,0-1.63,7.42,11.12,11.12,0,0,0,2.11,7,6.73,6.73,0,0,0,5.62,2.74,8.82,8.82,0,0,0,4.65-1.36,7.22,7.22,0,0,0,3.08-3.27V403.17a1.62,1.62,0,0,0-.72-1.08c-.38-.29-.75-.58-1.11-.88a.43.43,0,0,1-.17-.32c0-.21.19-.32.57-.32.21,0,.76,0,1.66.08l1.6.08c.78,0,1.39,0,1.82,0l1.5-.12c.35,0,.52.12.52.35a.48.48,0,0,1-.17.34c-.44.32-.8.59-1.06.8q-.78.62-.78,1.11v15.69a4.89,4.89,0,0,0,1.24,3.53,9.25,9.25,0,0,0,1.86,1.3.38.38,0,0,1,.2.35A.45.45,0,0,1,1423.94,424.28Z"/><path d="M1438.71,425.14c.23.21.35.39.35.53s-.21.31-.63.31-.63,0-.86,0c-1.19-.1-2-.16-2.35-.16-.69,0-1.25,0-1.68.07l-1.47.12c-.46,0-.69-.11-.69-.32a1,1,0,0,1,.29-.49c.48-.36.83-.64,1.06-.84a1.4,1.4,0,0,0,.66-1V394.93a9.74,9.74,0,0,0-.06-1.22c0-.3-.27-.42-.69-.37a3.84,3.84,0,0,0-1.06.52,5.23,5.23,0,0,1-1,.54c-.28.09-.43,0-.43-.29a.76.76,0,0,1,.17-.37,19.2,19.2,0,0,1,1.58-1.5c.74-.67,1.33-1.22,1.77-1.63.65-.6,1.36-1.32,2.12-2.16a12,12,0,0,1,1-1,.54.54,0,0,1,.17-.08l.15,0c.17,0,.25.14.25.42-.09.57-.17,1.28-.24,2.12s-.1,1.73-.1,2.67V423.4a1.32,1.32,0,0,0,.6.93C1438,424.61,1438.35,424.88,1438.71,425.14Z"/><path d="M1471.92,425.29a1,1,0,0,1,.2.42c0,.18-.15.27-.43.27l-1-.08c-.55,0-1.07-.08-1.57-.08a10,10,0,0,0-1.15.08l-.74.08c-.44,0-.66-.1-.66-.29a.53.53,0,0,1,.15-.29,3.31,3.31,0,0,0,.41-.73,2.21,2.21,0,0,0,.16-.87l-.17-2.55a10,10,0,0,1-3.7,3.8,11.13,11.13,0,0,1-6,1.78,11.56,11.56,0,0,1-7.44-2.42,8.06,8.06,0,0,1-3.21-6.62,8.44,8.44,0,0,1,3.49-6.85,12.48,12.48,0,0,1,8-2.66,11.66,11.66,0,0,1,4.34.82,8.64,8.64,0,0,1,3.16,2,7.74,7.74,0,0,0-1.46-3.49,16.74,16.74,0,0,0-4-4.49,9.77,9.77,0,0,0-6-2.23,6.89,6.89,0,0,0-3.29.74,2.6,2.6,0,0,0-1.58,2.34,2.08,2.08,0,0,0,.48,1.41,1.62,1.62,0,0,0,1.3.56,1.54,1.54,0,0,0,1-.35,1,1,0,0,0,.43-.82,2.24,2.24,0,0,0-.1-.68l-.19-.6q-.08-.18,0-.24a2.27,2.27,0,0,1,.38,0,2.45,2.45,0,0,1,1.46.69,1.87,1.87,0,0,1,.65,1.38,2.55,2.55,0,0,1-1.07,2.09,3.92,3.92,0,0,1-2.48.84,3.81,3.81,0,0,1-2.74-1,3.65,3.65,0,0,1-1.09-2.79c0-1.53.87-2.71,2.6-3.56a12.45,12.45,0,0,1,5.53-1.12,12,12,0,0,1,6.27,1.87,14.63,14.63,0,0,1,5,5.09,20.28,20.28,0,0,1,2.14,5.61,53.5,53.5,0,0,1,1,5.84c.3,2.47.56,4.17.77,5.09a4.33,4.33,0,0,0,.54,1.33Zm-4.87-8.51a5.69,5.69,0,0,0-2.39-4.79,10.12,10.12,0,0,0-6.25-1.8,8.42,8.42,0,0,0-5.5,1.92,5.88,5.88,0,0,0-2.35,4.73,6.43,6.43,0,0,0,2.39,5.06,8.46,8.46,0,0,0,5.69,2.06,9,9,0,0,0,6.11-2A6.54,6.54,0,0,0,1467.05,416.78Z"/><path d="M1488.46,401.85c0,.28-.13.42-.4.42l-1.4,0c-.84,0-1.63-.06-2.38-.06v17.6a4.79,4.79,0,0,0,1.15,3.22,14.06,14.06,0,0,0,1.66,1.41.45.45,0,0,1,.23.37c0,.09-.08.18-.23.28l-.52.3-.57.43a7.49,7.49,0,0,0-1,1,.67.67,0,0,1-.46.21.89.89,0,0,1-.4-.11,5.66,5.66,0,0,1-2.17-2.18,9.64,9.64,0,0,1-1.32-5.15V402.16c-.61,0-1.19,0-1.75,0l-1.69.07a.37.37,0,0,1-.4-.42V401c0-.29.18-.43.52-.43l1.26.05c.74,0,1.43.06,2.06.06v-2c0-1-.24-1.61-.72-1.73l-.65-.08c-.27,0-.4-.12-.4-.37a.41.41,0,0,1,.17-.32q.63-.51,1.29-1.08c.43-.38.92-.82,1.45-1.31a19.69,19.69,0,0,0,1.42-1.47l1-1.14a.26.26,0,0,1,.23-.13c.15,0,.23.13.23.4-.06.46-.12.92-.17,1.38a32.23,32.23,0,0,0-.18,3.45v4.42q.95,0,1.86,0c.62,0,1.25,0,1.92-.08.27,0,.4.12.4.37Z"/><path d="M1502.83,425.14c.23.21.35.39.35.53s-.21.31-.63.31-.63,0-.86,0c-1.18-.08-2-.13-2.35-.13-.69,0-1.24,0-1.67.05s-.92.08-1.48.11-.68-.11-.68-.32a.92.92,0,0,1,.28-.49c.48-.36.83-.64,1.06-.84a1.4,1.4,0,0,0,.66-1V405.51a2,2,0,0,0-.69-1.78l-1.23-.4c-.23-.07-.34-.17-.34-.31s.09-.23.27-.35a9.67,9.67,0,0,1,.93-.51c.65-.31,1.15-.58,1.52-.79.89-.52,1.6-.95,2.1-1.29l1-.65a.65.65,0,0,1,.29-.14c.26,0,.35.16.25.48a17.43,17.43,0,0,0-.27,2c-.08.9-.13,2-.13,3.21V423.4a1.32,1.32,0,0,0,.6.93C1502.12,424.61,1502.47,424.88,1502.83,425.14Zm-.65-32.13a2.06,2.06,0,0,1-.76,1.59,2.63,2.63,0,0,1-1.81.65,2.38,2.38,0,0,1-1.73-.69,2.22,2.22,0,0,1-.71-1.66,2.09,2.09,0,0,1,.76-1.63,2.7,2.7,0,0,1,1.8-.67,2.46,2.46,0,0,1,2.45,2.41Z"/><path d="M1538.9,413.43a12.38,12.38,0,0,1-4.41,9.55,15.4,15.4,0,0,1-20.51-.12,12.82,12.82,0,0,1-4.22-9.69,12.44,12.44,0,0,1,4.31-9.5,14.79,14.79,0,0,1,10.35-3.95,14.34,14.34,0,0,1,10.27,4A12.91,12.91,0,0,1,1538.9,413.43Zm-2.46,1.17q0-4.38-4.35-8.34a14.35,14.35,0,0,0-9.85-4.1,10.2,10.2,0,0,0-7.1,2.66,8.26,8.26,0,0,0-2.92,6.28,12.32,12.32,0,0,0,4.44,9.3,13.89,13.89,0,0,0,9.59,4,10.42,10.42,0,0,0,7-2.5A9.19,9.19,0,0,0,1536.44,414.6Z"/><path d="M1569,409.67a19.66,19.66,0,0,1-1.49,7.55,21.46,21.46,0,0,1-4.41,6.66h.3l.59,0a12.45,12.45,0,0,0,1.66-.1,3.72,3.72,0,0,0,1.51-.54l1-.72a.45.45,0,0,1,.17-.08l.11,0c.21,0,.27.15.18.47s-.08.58-.12.95-.06.62-.06.74,0,.54,0,.83,0,.6.09.92,0,.52-.23.52a.48.48,0,0,1-.29-.1q-.86-.43-1.2-.57a5.76,5.76,0,0,0-1.24-.31,15.71,15.71,0,0,0-1.82-.08l-1.32,0c-.32,0-.75.07-1.29.14s-.83-.07-.83-.48a.57.57,0,0,1,.09-.32q1.54-2.24,2.4-3.69a23,23,0,0,0,2-4.31,16,16,0,0,0,.8-5,10.86,10.86,0,0,0-2-6.78,6.78,6.78,0,0,0-5.67-2.73,7.77,7.77,0,0,0-4.33,1.24,8.8,8.8,0,0,0-2.83,3.11v16.3a1.33,1.33,0,0,0,.64,1c.37.29.73.57,1.1.84a.83.83,0,0,1,.32.54c0,.18-.16.27-.49.27l-1.29-.08c-.77,0-1.47-.08-2.1-.08s-1.3,0-1.74.05-.92.08-1.47.11-.69-.1-.69-.3a.75.75,0,0,1,.25-.46,7.47,7.47,0,0,1,.83-.7c.65-.46,1-.85,1-1.17V407.63a4.87,4.87,0,0,0-1.46-3.66,8.88,8.88,0,0,0-2.21-1.38.33.33,0,0,1-.23-.3.46.46,0,0,1,.18-.34c.24-.21.45-.39.63-.52a7.94,7.94,0,0,0,.65-.57c.27-.25.48-.45.63-.61a6.2,6.2,0,0,0,.43-.48.39.39,0,0,1,.32-.13.4.4,0,0,1,.26.08,13.19,13.19,0,0,1,2.17,2.15,7.73,7.73,0,0,1,1.83,3.27,13.84,13.84,0,0,1,3.07-3.32,8.81,8.81,0,0,1,5.46-2.1,9.43,9.43,0,0,1,7.93,3.59A10.14,10.14,0,0,1,1569,409.67Z"/><path d="M1599,417.42a8.08,8.08,0,0,1-3.92,6.89,15.07,15.07,0,0,1-8.74,2.52,17,17,0,0,1-7.12-1.3q-3.46-1.59-3.47-4.71a5.13,5.13,0,0,1,1.88-4,6.58,6.58,0,0,1,4.48-1.63,9.31,9.31,0,0,1,4.38.9,3.21,3.21,0,0,1,1.92,2.93,2.77,2.77,0,0,1-.94,2.08,3,3,0,0,1-2.21.89,3,3,0,0,1-1.78-.42c-.09-.09-.14-.16-.14-.21s.12-.22.37-.27a1.78,1.78,0,0,0,.82-.56,1.93,1.93,0,0,0,.33-1.25A1.45,1.45,0,0,0,1584,418a3.86,3.86,0,0,0-1.92-.49,6.18,6.18,0,0,0-3.42.9,2.83,2.83,0,0,0-1.39,2.5q0,2.24,3.06,3.46a16.46,16.46,0,0,0,6,1,12.84,12.84,0,0,0,6.36-1.52q3.21-1.78,3.21-4.81a4.93,4.93,0,0,0-2.35-4.49,20.66,20.66,0,0,0-5.56-1.84c-1.56-.32-3.12-.64-4.66-1a9.46,9.46,0,0,1-3.87-1.73,4.86,4.86,0,0,1-1.6-3.88q0-2.83,3.24-4.7a13.37,13.37,0,0,1,6.84-1.73,16,16,0,0,1,5.64.82q2.84,1.09,2.83,3.38a2.82,2.82,0,0,1-1.52,2.42,6,6,0,0,1-3.23.88,6.22,6.22,0,0,1-2.92-.62,2.29,2.29,0,0,1-1.43-2.12,1.75,1.75,0,0,1,.53-1.27,2.74,2.74,0,0,1,1.18-.73l.32-.05c.13,0,.2.09.2.27l-.06.53a1.24,1.24,0,0,0,.4.95,2.4,2.4,0,0,0,1.66.48,1.88,1.88,0,0,0,1.29-.48,1.45,1.45,0,0,0,.55-1.11c0-.8-.62-1.37-1.86-1.7A14,14,0,0,0,1588,401a10.66,10.66,0,0,0-5,1.14c-1.62.85-2.43,1.9-2.43,3.16a3,3,0,0,0,1.6,2.66q1,.62,6.42,1.75a38.87,38.87,0,0,1,5.15,1.39,9.68,9.68,0,0,1,3.78,2.28A5.69,5.69,0,0,1,1599,417.42Z"/><path d="M1194.16,466.64l-1.06.85c-.48.39-.71.73-.71,1v21.37a13.29,13.29,0,0,1-3.55,9.59,11.18,11.18,0,0,1-8.42,3.54,10.16,10.16,0,0,1-3.61-.53,2.35,2.35,0,0,1-1.77-2.23,2.09,2.09,0,0,1,1.31-1.85,4.19,4.19,0,0,1,2.35-.6c.29,0,.43.1.43.29a.49.49,0,0,1-.13.28l-.21.33a1.26,1.26,0,0,0-.17.62,1.53,1.53,0,0,0,.08.45,1.87,1.87,0,0,0,1,1.13,3.46,3.46,0,0,0,1.69.41,6.41,6.41,0,0,0,5.52-2.9,11.55,11.55,0,0,0,1.86-6.78v-4.73a9.85,9.85,0,0,1-2.89,3.32,8.62,8.62,0,0,1-5.3,1.89q-5.23,0-8.07-3.21a10.27,10.27,0,0,1-2.46-7.05,15.45,15.45,0,0,1,.66-4.6,18.72,18.72,0,0,1,1.63-3.69c.06-.11.73-1.19,2-3.24.1-.2,0-.41-.4-.64a9.07,9.07,0,0,0-1.31-.59l-1-.47c-.16-.06-.23-.15-.23-.27s.16-.22.5-.29l1-.22a16,16,0,0,0,2-.55,16.74,16.74,0,0,0,1.93-.81l1.76-.9a.81.81,0,0,1,.32-.07c.23,0,.34.09.34.29a.87.87,0,0,1-.11.28,6.3,6.3,0,0,1-.49.65l-.57.72a24.49,24.49,0,0,0-3.35,5.58,17.1,17.1,0,0,0-1.35,6.64,11.08,11.08,0,0,0,2.11,7,6.72,6.72,0,0,0,5.62,2.74,8.73,8.73,0,0,0,4.61-1.31,8.09,8.09,0,0,0,3.12-3.31V468.5a1.45,1.45,0,0,0-.63-1c-.38-.28-.76-.57-1.14-.88a.5.5,0,0,1-.2-.39q0-.3.48-.3l1.26.08c.75.06,1.43.08,2.06.08s1.33,0,1.76,0,.93-.06,1.51-.12c.38,0,.57.11.57.32A.6.6,0,0,1,1194.16,466.64Z"/><path d="M1229.77,478.76a12.38,12.38,0,0,1-4.41,9.54,15.37,15.37,0,0,1-20.51-.12,12.82,12.82,0,0,1-4.22-9.69,12.44,12.44,0,0,1,4.31-9.5,14.79,14.79,0,0,1,10.35-3.95,14.31,14.31,0,0,1,10.27,4A12.89,12.89,0,0,1,1229.77,478.76Zm-2.46,1.17q0-4.4-4.35-8.35a14.34,14.34,0,0,0-9.85-4.09,10.18,10.18,0,0,0-7.1,2.66,8.2,8.2,0,0,0-2.92,6.27,12.32,12.32,0,0,0,4.44,9.3,13.89,13.89,0,0,0,9.59,4,10.37,10.37,0,0,0,7-2.5A9.16,9.16,0,0,0,1227.31,479.93Z"/><path d="M1261.55,489.6a5.83,5.83,0,0,1-.72.56,8.32,8.32,0,0,0-.66.56q-.37.34-.66.66a4.89,4.89,0,0,1-.37.46.34.34,0,0,1-.29.18.84.84,0,0,1-.4-.13,9.13,9.13,0,0,1-2.09-1.75,5,5,0,0,1-1.4-3.25,9.54,9.54,0,0,1-3,3.32,9.17,9.17,0,0,1-5.49,1.89q-5.23,0-8.07-3.21a10.23,10.23,0,0,1-2.47-7.05,16.29,16.29,0,0,1,.66-4.68,20.31,20.31,0,0,1,1.63-3.85c.27-.48.94-1.59,2-3.32.09-.2,0-.41-.4-.64a9.35,9.35,0,0,0-1.32-.59l-1-.47c-.15-.06-.23-.15-.23-.27s.16-.22.47-.29l1-.21a17.1,17.1,0,0,0,1.93-.55,16.7,16.7,0,0,0,2-.81l1.81-.9a1,1,0,0,1,.31-.08.22.22,0,0,1,.2.13.36.36,0,0,1,0,.38.85.85,0,0,1-.2.36,26.24,26.24,0,0,0-3.92,6.2,18.14,18.14,0,0,0-1.63,7.41,11.14,11.14,0,0,0,2.1,7,6.73,6.73,0,0,0,5.63,2.74,8.92,8.92,0,0,0,4.65-1.35,7.37,7.37,0,0,0,3.08-3.27V468.5c0-.32-.24-.68-.72-1.09s-.75-.58-1.12-.88a.45.45,0,0,1-.17-.32c0-.21.19-.32.57-.32.21,0,.77,0,1.66.08s1.44.08,1.61.08c.78,0,1.39,0,1.82,0s.93-.06,1.5-.12c.34,0,.51.12.51.35a.43.43,0,0,1-.17.34c-.44.32-.79.59-1.06.8-.51.41-.77.78-.77,1.12v15.68a5,5,0,0,0,1.23,3.54,11,11,0,0,0,1.86,1.3.36.36,0,0,1,.2.34A.49.49,0,0,1,1261.55,489.6Z"/><path d="M1315.71,467.54a14.84,14.84,0,0,1-1,4.73c-.49,1.4-1.27,3.2-2.31,5.41q-1,2.19-2.32,4.81-1.54,3.17-2.09,4.33c-.75,1.56-1.4,3-2,4.25l-.34.85c-.12.16-.23.24-.35.24a.46.46,0,0,1-.34-.24l-.4-.75q-1.45-2.66-2.15-4.06c-.59-1.18-1.19-2.54-1.8-4.06-.21-.49-.5-1.23-.86-2.23q-1-2.7-1.32-3.39c0-.13-.11-.25-.17-.39s-.11-.2-.17-.2-.17.18-.34.54c-.61,1.34-1.42,3.43-2.41,6.26-.38,1.08-.88,2.4-1.49,4-.45,1.18-.91,2.37-1.37,3.55a1.36,1.36,0,0,1-.16.41c-.08.17-.15.28-.18.36a.42.42,0,0,1-.32.22.43.43,0,0,1-.29-.15,1.51,1.51,0,0,1-.25-.46l-.18-.43q-.89-2.28-1.71-4.2c-1-2.24-1.53-3.54-1.66-3.87-.61-1.52-1.28-3.37-2-5.53-.4-1.18-.87-2.71-1.43-4.59s-1-3.41-1.37-4.59a1.69,1.69,0,0,0-.77-1c-.39-.25-.76-.51-1.12-.78a.5.5,0,0,1-.26-.39q0-.3.66-.3c.34,0,.63,0,.86,0,1.16.09,1.92.13,2.29.13.59,0,1.25,0,2-.08l1.29-.08q.57,0,.57.3a.41.41,0,0,1-.23.35c-.4.27-.79.55-1.17.82s-.64.74-.54,1.1a31.11,31.11,0,0,0,1.17,3.75c1,2.79,1.51,4.19,1.51,4.21l3.26,9.8c.45-1.35,1-2.93,1.72-4.74.63-1.56,1.09-2.73,1.37-3.51.5-1.24,1-2.55,1.64-3.91l1.36-3.11.26-.55a4.24,4.24,0,0,1,.27-.44c.1-.12.19-.19.26-.19s.21.09.29.27l.34.85c.71,2.18,1.7,4.88,3,8.12q1.2,3.06,2,4.78c.42.91.86,1.75,1.32,2.55q1.6-3.45,2.52-5.58,1.89-4.27,2.8-6.9a19.05,19.05,0,0,0,1.29-5.36,7,7,0,0,0-.45-2.77,1.9,1.9,0,0,0-1.83-1.27,1.64,1.64,0,0,0-1,.22,2.06,2.06,0,0,0-.57.74,1.77,1.77,0,0,0-.18.45,3.32,3.32,0,0,0-.05.61c0,.18-.13.26-.32.26a.52.52,0,0,1-.17,0l-.14-.08a2.83,2.83,0,0,1-.87-.91,2.21,2.21,0,0,1-.38-1.22,2.38,2.38,0,0,1,1.21-2.1,5.24,5.24,0,0,1,2.85-.77,4.09,4.09,0,0,1,3.72,1.89A7.3,7.3,0,0,1,1315.71,467.54Z"/><path d="M1349.37,478.76a12.38,12.38,0,0,1-4.41,9.54,15.37,15.37,0,0,1-20.51-.12,12.82,12.82,0,0,1-4.22-9.69,12.41,12.41,0,0,1,4.31-9.5,14.79,14.79,0,0,1,10.35-3.95,14.31,14.31,0,0,1,10.27,4A12.89,12.89,0,0,1,1349.37,478.76Zm-2.46,1.17q0-4.4-4.35-8.35a14.34,14.34,0,0,0-9.85-4.09,10.18,10.18,0,0,0-7.1,2.66,8.2,8.2,0,0,0-2.92,6.27,12.32,12.32,0,0,0,4.44,9.3,13.89,13.89,0,0,0,9.59,4,10.39,10.39,0,0,0,7-2.5A9.16,9.16,0,0,0,1346.91,479.93Z"/><path d="M1379.48,475a19.62,19.62,0,0,1-1.48,7.55,21.82,21.82,0,0,1-4.41,6.66l.3,0h.59a14.46,14.46,0,0,0,1.66-.09,3.6,3.6,0,0,0,1.51-.55c.5-.37.82-.61,1-.71a.25.25,0,0,1,.17-.08l.11,0c.21,0,.27.16.17.47s-.07.59-.11,1-.06.61-.06.74,0,.54,0,.83,0,.59.09.91,0,.53-.23.53a.5.5,0,0,1-.29-.11q-.85-.44-1.2-.57a6.51,6.51,0,0,0-1.25-.31,15.92,15.92,0,0,0-1.81-.07c-.56,0-1,0-1.32,0s-.75.06-1.29.13-.83-.07-.83-.47a.55.55,0,0,1,.09-.32q1.55-2.24,2.4-3.7a22.89,22.89,0,0,0,2-4.3,16,16,0,0,0,.8-5,10.78,10.78,0,0,0-2-6.78,6.74,6.74,0,0,0-5.67-2.74,7.77,7.77,0,0,0-4.32,1.25,8.68,8.68,0,0,0-2.83,3.1v16.3a1.36,1.36,0,0,0,.64,1c.37.29.73.56,1.1.83a.83.83,0,0,1,.32.54c0,.19-.16.27-.49.27-.09,0-.53,0-1.29-.08s-1.47-.07-2.1-.07-1.31,0-1.74.05l-1.48.1c-.46,0-.69-.09-.69-.29a.75.75,0,0,1,.26-.46,7.34,7.34,0,0,1,.83-.71c.65-.46,1-.85,1-1.17V473a4.84,4.84,0,0,0-1.46-3.67,8.78,8.78,0,0,0-2.2-1.38.33.33,0,0,1-.23-.29.49.49,0,0,1,.17-.35l.63-.51c.17-.14.39-.33.66-.58s.48-.45.63-.61.3-.31.43-.47a.4.4,0,0,1,.32-.14.36.36,0,0,1,.25.08,13.32,13.32,0,0,1,2.18,2.16,7.62,7.62,0,0,1,1.83,3.27,13.86,13.86,0,0,1,3.06-3.33,8.86,8.86,0,0,1,5.47-2.1,9.41,9.41,0,0,1,7.93,3.6A10.09,10.09,0,0,1,1379.48,475Z"/><path d="M1412.46,467.17c0,.28-.13.42-.4.42l-1.4,0c-.84,0-1.63-.05-2.38-.05v17.59a4.73,4.73,0,0,0,1.15,3.22,13.12,13.12,0,0,0,1.66,1.41.47.47,0,0,1,.23.37c0,.09-.08.18-.23.28l-.52.31c-.25.17-.44.32-.57.42a7.49,7.49,0,0,0-1,1,.69.69,0,0,1-.46.21.85.85,0,0,1-.4-.1,5.82,5.82,0,0,1-2.18-2.18,9.79,9.79,0,0,1-1.31-5.16V467.49c-.61,0-1.19,0-1.75,0s-1.11.05-1.69.06a.37.37,0,0,1-.4-.42v-.85c0-.28.17-.43.52-.43l1.26.06c.74,0,1.43.05,2.06.05v-2c0-1-.24-1.6-.72-1.73l-.66-.08c-.26,0-.4-.12-.4-.37a.44.44,0,0,1,.18-.32c.41-.33.84-.69,1.28-1.08s.93-.81,1.46-1.31,1.09-1.07,1.42-1.46l1-1.15a.26.26,0,0,1,.23-.13c.15,0,.23.13.23.4l-.18,1.38c-.11,1.12-.17,2.27-.17,3.46V466q.95,0,1.86,0c.61,0,1.25,0,1.92-.08.27,0,.4.13.4.38Z"/><path d="M1443.09,475a19.44,19.44,0,0,1-1.49,7.55,21.46,21.46,0,0,1-4.41,6.66l.3,0h.59a14.33,14.33,0,0,0,1.66-.09,3.64,3.64,0,0,0,1.52-.55l.93-.69a.56.56,0,0,1,.33-.13c.15,0,.23.12.23.37s-.11.71-.16,1.05a5.79,5.79,0,0,0-.07.76,9.81,9.81,0,0,0,.08,1.14c.06.43.09.68.09.77,0,.27-.08.4-.23.4a.77.77,0,0,1-.34-.13,5.52,5.52,0,0,0-1.23-.63,7.31,7.31,0,0,0-1.21-.28,16.45,16.45,0,0,0-1.83-.07h-1.31c-.33,0-.76,0-1.29.11l-.55,0a.48.48,0,0,1-.37-.1.36.36,0,0,1,0-.35,2.54,2.54,0,0,1,.21-.39c1-1.49,1.84-2.72,2.41-3.69a22.8,22.8,0,0,0,2-4.3,15.61,15.61,0,0,0,.8-5,10.82,10.82,0,0,0-2-6.76A6.75,6.75,0,0,0,1432,468a7.6,7.6,0,0,0-4.32,1.3,9.62,9.62,0,0,0-2.83,3.06v16.35a1.36,1.36,0,0,0,.6.93c.34.28.69.55,1.06.81s.34.38.34.52-.21.31-.63.31-.63,0-.86,0c-1.18-.09-2-.13-2.35-.13-.68,0-1.24,0-1.67.05l-1.48.1c-.45,0-.68-.1-.68-.32a.92.92,0,0,1,.28-.49c.48-.36.83-.63,1.06-.83.44-.36.66-.68.66-1V460.26a9.63,9.63,0,0,0-.06-1.22c0-.31-.26-.43-.68-.38a3.71,3.71,0,0,0-1.06.52,6.72,6.72,0,0,1-1,.55c-.29.09-.43,0-.43-.3a.68.68,0,0,1,.17-.37,17.25,17.25,0,0,1,1.57-1.49l1.78-1.63c.65-.61,1.35-1.33,2.12-2.16a7.89,7.89,0,0,1,1-1,.25.25,0,0,1,.17-.08l.14,0c.17,0,.26.14.26.43a20.87,20.87,0,0,0-.24,2.11c-.07.85-.1,1.74-.1,2.68v12.24a12.66,12.66,0,0,1,2.83-3.13A8.38,8.38,0,0,1,1433,465a9.43,9.43,0,0,1,7.93,3.6A10.09,10.09,0,0,1,1443.09,475Z"/><path d="M1475.67,485.67a8.78,8.78,0,0,1-3.58,4.23,12.41,12.41,0,0,1-7.24,2.31,17.73,17.73,0,0,1-4.47-.51,13.12,13.12,0,0,1-4.24-2,15.1,15.1,0,0,0-1.46,2,4.62,4.62,0,0,0-.83,2,1.17,1.17,0,0,0,.43,1,1.76,1.76,0,0,0,1,.19,1.83,1.83,0,0,0,.4-.05l.34-.11a.18.18,0,0,1,.2,0c.14.07.17.21.09.43a2.64,2.64,0,0,1-.69,1.16,2.16,2.16,0,0,1-1.6.7,2.12,2.12,0,0,1-1.6-.67,2.41,2.41,0,0,1-.63-1.73,4.77,4.77,0,0,1,.63-2.07q.17-.34,2.46-3.77a15.46,15.46,0,0,1-3.27-4.39,12.91,12.91,0,0,1-1.25-5.66,13.47,13.47,0,0,1,3.9-9.65,13,13,0,0,1,9.72-4.07,12.07,12.07,0,0,1,4.75,1l2.69,1.2a3.18,3.18,0,0,0,.75.16c.32,0,.65.05,1,.05l.86-.05c.21,0,.32.08.32.23a.33.33,0,0,1-.21.3,7.62,7.62,0,0,0-1,.71,10.74,10.74,0,0,0-1.29,1.2q-2.77,2.87-6.44,7.52t-6.9,9.33a15.63,15.63,0,0,0,3.44,1.73,12.92,12.92,0,0,0,4.29.72,10.59,10.59,0,0,0,5.1-1.09,12.88,12.88,0,0,0,3.26-2.85c.12-.16.25-.33.4-.51a.52.52,0,0,1,.52-.23.45.45,0,0,1,.37.51A1.82,1.82,0,0,1,1475.67,485.67ZM1467.82,470a2.71,2.71,0,0,0-1.83-2.45,8.6,8.6,0,0,0-3.72-.74,8.3,8.3,0,0,0-6.7,3.21,11.1,11.1,0,0,0-2.46,7.21,10.59,10.59,0,0,0,1.29,4.94,12.15,12.15,0,0,0,2.72,3.56l3-4.17c1.17-1.6,2.16-2.93,3-4l3.15-4.15A7,7,0,0,0,1467.82,470Z"/><path d="M1520.21,493.8q0,4.33-5.3,6.94a24.33,24.33,0,0,1-10.85,2.26,17.44,17.44,0,0,1-7.9-1.7q-3.72-1.86-3.72-4.79a3.75,3.75,0,0,1,1.1-2.83,4,4,0,0,1,2.85-1.05,4.64,4.64,0,0,1,2.62.67,2.54,2.54,0,0,1,1.16,1.83,2,2,0,0,1,.06.4,1.73,1.73,0,0,1-.34,1,.53.53,0,0,1-.29.16.23.23,0,0,1-.23-.16,2.31,2.31,0,0,0-1-1.13,3.09,3.09,0,0,0-1.53-.36,1.77,1.77,0,0,0-1.39.65,2.15,2.15,0,0,0-.56,1.42c0,1.42,1,2.54,2.95,3.35a16.44,16.44,0,0,0,6.27,1.06,14.79,14.79,0,0,0,8-2.2q3.78-2.37,3.78-5.82a5.73,5.73,0,0,0-3-5,11.66,11.66,0,0,0-6.47-1.75,14.31,14.31,0,0,0-5.73,1,8.38,8.38,0,0,0-2.29,1.54c-.17.16-.36.14-.57-.05-.4-.23-.72-.44-1-.61a6.27,6.27,0,0,1-.63-.51c-.15-.14-.14-.3.06-.48l1.54-.93a14.39,14.39,0,0,0,1.32-.87,16.13,16.13,0,0,0,2.43-1.94,7.47,7.47,0,0,0,1.12-1.41,13.2,13.2,0,0,1-5.9-2.66,7.7,7.7,0,0,1-3.38-6.17,7.46,7.46,0,0,1,3.7-6.4,14.19,14.19,0,0,1,8.15-2.32,22.38,22.38,0,0,1,4.28.34,14.23,14.23,0,0,1,3.68,1.31,5.67,5.67,0,0,0,.92-1.22,4.06,4.06,0,0,0,.46-1.86,1.71,1.71,0,0,0-.43-1.22,1.65,1.65,0,0,0-1.46-.48,1.71,1.71,0,0,0-.86.21,2.76,2.76,0,0,0-.46.37c-.1.09-.17.12-.23.08s-.08-.13-.06-.29a4.12,4.12,0,0,1,.63-1.65,2.28,2.28,0,0,1,2-1.06,3.08,3.08,0,0,1,2.52,1,3.87,3.87,0,0,1,.74,2.53,5.21,5.21,0,0,1-.77,2.58,5.14,5.14,0,0,1-1.46,1.73,9.82,9.82,0,0,1,3,3,7.45,7.45,0,0,1,1,3.88,7.28,7.28,0,0,1-3.72,6.32,15.12,15.12,0,0,1-8.42,2.24c-.3,0-.64,0-1,0l-.88-.07a9.37,9.37,0,0,1-1.66,1.83,14.28,14.28,0,0,1-2,1.57,16.44,16.44,0,0,1,3.06-.62,29.07,29.07,0,0,1,3.3-.18,17.91,17.91,0,0,1,8.47,1.89Q1520.21,489.6,1520.21,493.8Zm-5.38-19.52a8.08,8.08,0,0,0-.46-2.89,7.31,7.31,0,0,0-1.6-2.42,5.13,5.13,0,0,1-2.87.8,3.58,3.58,0,0,1-2.54-.85,1.89,1.89,0,0,1-.72-1.38c0-.2,0-.29.12-.29a.37.37,0,0,1,.22.13,4,4,0,0,0,.69.64,3.12,3.12,0,0,0,1.66.42,4.53,4.53,0,0,0,1.26-.16,4.35,4.35,0,0,0,1-.42,6.66,6.66,0,0,0-2.35-1.3,9.25,9.25,0,0,0-3.14-.56,9.75,9.75,0,0,0-6.36,2.19,6.77,6.77,0,0,0-2.69,5.45,7.86,7.86,0,0,0,1.62,5,8,8,0,0,0,4.56,2.84,3,3,0,0,0,.17-1,3.07,3.07,0,0,0-.57-1.67c-.13-.21,0-.37.23-.46l.73-.24c.2-.06.5-.18.9-.33a6.94,6.94,0,0,0,1-.5l.9-.54c.12-.11.21-.12.29-.05a.38.38,0,0,1,.11.32,6.66,6.66,0,0,1-.59,2.09,24.21,24.21,0,0,1-1.13,2.52,6,6,0,0,0,1,.08,8.81,8.81,0,0,0,5.73-2.17A6.7,6.7,0,0,0,1514.83,474.28Z"/><path d="M1550.72,490.61a.94.94,0,0,1,.21.43c0,.18-.15.26-.43.26-.08,0-.4,0-1-.08s-1.08-.07-1.57-.07a9.68,9.68,0,0,0-1.15.07,7.32,7.32,0,0,1-.74.08c-.44,0-.66-.09-.66-.29a.57.57,0,0,1,.14-.29,3.54,3.54,0,0,0,.42-.73,2.39,2.39,0,0,0,.15-.86l-.17-2.56a9.81,9.81,0,0,1-3.69,3.8,11.14,11.14,0,0,1-6,1.79,11.61,11.61,0,0,1-7.45-2.42,8.09,8.09,0,0,1-3.2-6.62,8.42,8.42,0,0,1,3.49-6.86,12.52,12.52,0,0,1,8-2.66,11.62,11.62,0,0,1,4.33.83,8.6,8.6,0,0,1,3.17,2,7.67,7.67,0,0,0-1.46-3.48,16.59,16.59,0,0,0-4-4.49,9.81,9.81,0,0,0-6-2.24,6.75,6.75,0,0,0-3.29.75,2.58,2.58,0,0,0-1.58,2.34,2.11,2.11,0,0,0,.47,1.4,1.61,1.61,0,0,0,1.31.56,1.55,1.55,0,0,0,1-.34,1,1,0,0,0,.43-.83,2.53,2.53,0,0,0-.1-.67c-.07-.23-.13-.43-.19-.6s0-.21,0-.24a1.22,1.22,0,0,1,.37,0,2.55,2.55,0,0,1,1.46.69,1.86,1.86,0,0,1,.66,1.39,2.56,2.56,0,0,1-1.07,2.08,3.92,3.92,0,0,1-2.48.84,3.84,3.84,0,0,1-2.75-1,3.68,3.68,0,0,1-1.08-2.79c0-1.52.86-2.71,2.6-3.56a12.59,12.59,0,0,1,5.53-1.12,12,12,0,0,1,6.26,1.88,14.38,14.38,0,0,1,5,5.09,19.73,19.73,0,0,1,2.15,5.61,53.65,53.65,0,0,1,1,5.83c.31,2.47.57,4.17.78,5.09a3.89,3.89,0,0,0,.54,1.33Zm-4.86-8.5a5.72,5.72,0,0,0-2.39-4.8,10.15,10.15,0,0,0-6.26-1.79,8.38,8.38,0,0,0-5.49,1.91,5.87,5.87,0,0,0-2.35,4.73,6.43,6.43,0,0,0,2.39,5.06,8.38,8.38,0,0,0,5.68,2.06,8.94,8.94,0,0,0,6.11-2A6.54,6.54,0,0,0,1545.86,482.11Z"/><path d="M1592.75,474.89a17,17,0,0,1-1.92,7.42,27.25,27.25,0,0,1-4.84,6.89l.3,0h.59a15.26,15.26,0,0,0,1.69-.09,3.55,3.55,0,0,0,1.57-.6l.95-.72a.27.27,0,0,1,.34-.05c.1.07.13.19.12.37-.06.36-.11.71-.16,1.05a5.79,5.79,0,0,0-.07.76,8.81,8.81,0,0,0,0,1c0,.26.07.55.13.89s0,.45-.2.45a.69.69,0,0,1-.43-.18,5.09,5.09,0,0,0-1.2-.56,8.62,8.62,0,0,0-1.22-.3,15.29,15.29,0,0,0-1.79-.07c-.55,0-1,0-1.32,0s-.75.05-1.28.11a.79.79,0,0,1-.2,0h-.21c-.36,0-.54-.11-.54-.34a1.08,1.08,0,0,1,.2-.48,46.13,46.13,0,0,0,2.49-3.9,28.33,28.33,0,0,0,2.15-4.52,13.7,13.7,0,0,0,.91-4.59,14,14,0,0,0-1.34-6.77,5.36,5.36,0,0,0-5-2.84,6.82,6.82,0,0,0-2.66.52,6.16,6.16,0,0,0-2.26,1.61,13,13,0,0,1,.74,3.16,33,33,0,0,1,.23,4,17.55,17.55,0,0,1-1.32,6.09,34.64,34.64,0,0,1-2.57,5.37,14.91,14.91,0,0,1-1.78,2.63.48.48,0,0,1-.37.1q-.46,0-.54-.15a.31.31,0,0,1,0-.3l.2-.45q2.52-4.83,2.52-12.86a12.76,12.76,0,0,0-1.61-6.6,5.16,5.16,0,0,0-4.52-2.92,5.32,5.32,0,0,0-3.55,1.46,7.47,7.47,0,0,0-2.06,2.9v16.29c0,.31.22.62.66,1s.69.54,1.06.81a.88.88,0,0,1,.34.54c0,.22-.21.32-.63.32-.21,0-.76,0-1.66-.08s-1.43-.07-1.6-.07c-.69,0-1.25,0-1.68.05l-1.47.1c-.44,0-.66-.09-.66-.29a.82.82,0,0,1,.32-.52c.45-.36.8-.63,1-.83a1.43,1.43,0,0,0,.63-1V473a4.78,4.78,0,0,0-1.52-3.67,11.47,11.47,0,0,0-2.21-1.38.37.37,0,0,1-.22-.32c0-.09,0-.17.17-.26a16,16,0,0,0,1.31-1.12c.29-.26.51-.48.66-.64l.42-.43a.38.38,0,0,1,.64,0,15.14,15.14,0,0,1,2.18,2.2,7.69,7.69,0,0,1,1.77,3.17,12,12,0,0,1,2.29-3.19A7.33,7.33,0,0,1,1570,465a7.74,7.74,0,0,1,4.38,1.28,11.08,11.08,0,0,1,2.6,2.55,10.63,10.63,0,0,1,2.61-2.58,7,7,0,0,1,4-1.25,8.31,8.31,0,0,1,7.35,3.54A10.85,10.85,0,0,1,1592.75,474.89Z"/><path d="M1625.38,485.67a8.73,8.73,0,0,1-3.58,4.23,12.39,12.39,0,0,1-7.24,2.31,17.59,17.59,0,0,1-4.46-.51,13,13,0,0,1-4.24-2,14.26,14.26,0,0,0-1.46,2,4.62,4.62,0,0,0-.83,2,1.14,1.14,0,0,0,.43,1,1.72,1.72,0,0,0,.94.19,1.75,1.75,0,0,0,.4-.05l.35-.11a.18.18,0,0,1,.2,0c.13.07.16.21.08.43a2.62,2.62,0,0,1-.68,1.16,2.18,2.18,0,0,1-1.61.7,2.12,2.12,0,0,1-1.6-.67,2.41,2.41,0,0,1-.63-1.73,4.77,4.77,0,0,1,.63-2.07q.17-.34,2.46-3.77a15.24,15.24,0,0,1-3.26-4.39,12.92,12.92,0,0,1-1.26-5.66,13.44,13.44,0,0,1,3.91-9.65,12.92,12.92,0,0,1,9.71-4.07,12.15,12.15,0,0,1,4.76,1c.89.41,1.79.81,2.69,1.2a3.08,3.08,0,0,0,.74.16c.33,0,.65.05,1,.05l.86-.05c.21,0,.32.08.32.23a.33.33,0,0,1-.2.3,6.49,6.49,0,0,0-1,.71,9.41,9.41,0,0,0-1.29,1.2q-2.77,2.87-6.44,7.52t-6.9,9.33a15.35,15.35,0,0,0,3.43,1.73,13,13,0,0,0,4.3.72,10.52,10.52,0,0,0,5.09-1.09,12.9,12.9,0,0,0,3.27-2.85,5.18,5.18,0,0,1,.4-.51.5.5,0,0,1,.51-.23.45.45,0,0,1,.37.51A1.63,1.63,0,0,1,1625.38,485.67ZM1617.54,470a2.71,2.71,0,0,0-1.83-2.45,8.64,8.64,0,0,0-3.73-.74,8.27,8.27,0,0,0-6.69,3.21,11,11,0,0,0-2.47,7.21,10.59,10.59,0,0,0,1.29,4.94,12.33,12.33,0,0,0,2.72,3.56q2-2.69,3-4.17c1.16-1.6,2.15-2.93,3-4l3.15-4.15A7,7,0,0,0,1617.54,470Z"/><path d="M1296.41,571.22q0,2.19-3.05,4a13.06,13.06,0,0,1-6.68,1.77,17.92,17.92,0,0,1-2.33-.13c-.67-.09-1.53-.24-2.59-.46v34.72c0,.37.29.78.88,1.23.78.6,1.19.92,1.23,1a.34.34,0,0,1,.09.17.49.49,0,0,1,0,.15c0,.21-.18.31-.53.31a15.2,15.2,0,0,1-1.74-.07c-1-.07-1.64-.1-2-.1-.63,0-1.56,0-2.81.14a6.18,6.18,0,0,1-1,0c-.33,0-.5-.12-.5-.35a.29.29,0,0,1,.09-.23,16.18,16.18,0,0,1,1.26-1c.61-.47.91-.89.91-1.26V575.79c-1.37-.22-2.46-.38-3.28-.5a31.22,31.22,0,0,0-4.46-.32,7.44,7.44,0,0,0-3.57.64,2.25,2.25,0,0,0-1.11,2.11,1.34,1.34,0,0,0,.35.91,1.26,1.26,0,0,0,.7.47,4.08,4.08,0,0,0,.68.06,2.49,2.49,0,0,0,.76-.09,1.43,1.43,0,0,0,.44-.24c.15-.09.27-.09.35,0a.46.46,0,0,1,.06.41,3,3,0,0,1-.76,1.41,2.67,2.67,0,0,1-2,.82,2.35,2.35,0,0,1-1.89-.85,3.16,3.16,0,0,1-.73-2.14q0-2.78,3.77-4.64a19,19,0,0,1,8.52-1.86,20.91,20.91,0,0,1,4.83.53l4.67,1a23,23,0,0,0,5,.53,7.41,7.41,0,0,0,3.2-.56,1.77,1.77,0,0,0,1.13-1.67c0-.49-.15-.79-.45-.92a3.09,3.09,0,0,0-1.19-.19c-.29,0-.44-.06-.44-.18a.67.67,0,0,1,.09-.29,2,2,0,0,1,.67-.85,2.08,2.08,0,0,1,1.26-.44,2,2,0,0,1,2.23,2.23Z"/><path d="M1318,589.26a4.07,4.07,0,0,1-.91,2.76,3,3,0,0,1-2.43,1.05,5.42,5.42,0,0,1-1.86-.29,1.69,1.69,0,0,1-1-.82.25.25,0,0,1,0-.26.25.25,0,0,1,.26-.15,3.16,3.16,0,0,0,1-.15,1.88,1.88,0,0,0,.8-.52,2,2,0,0,0,.5-1.38,1.87,1.87,0,0,0-.76-1.55,4.09,4.09,0,0,0-2.52-.68,6.12,6.12,0,0,0-4.1,1.84,11.09,11.09,0,0,0-2.76,4v18a1.55,1.55,0,0,0,.65,1.09l1.11.92a.81.81,0,0,1,.29.53c0,.24-.21.36-.64.36s-.65,0-.88,0c-1.21-.1-2-.14-2.4-.14-.75,0-1.34,0-1.78,0l-1.5.12c-.43,0-.65-.11-.65-.33a1,1,0,0,1,.35-.62l.79-.66c.61-.49.91-.92.91-1.29V593.71a5.1,5.1,0,0,0-1.08-3.34,9.15,9.15,0,0,0-3.14-1.93c-.07,0-.11-.08-.11-.18a.44.44,0,0,1,.11-.29l1.35-1.29a8.74,8.74,0,0,0,.67-.73,5.6,5.6,0,0,0,.39-.49.48.48,0,0,1,.38-.21.54.54,0,0,1,.26.09,17,17,0,0,1,2.43,2,6.57,6.57,0,0,1,2,3.66,10.42,10.42,0,0,1,3.23-4.07,8.83,8.83,0,0,1,5.5-1.9,6.17,6.17,0,0,1,4.09,1.24A3.81,3.81,0,0,1,1318,589.26Z"/><path d="M1347.15,586.74l-1.08.94c-.49.43-.74.8-.74,1.11v23.56a15.31,15.31,0,0,1-3.63,10.58,11,11,0,0,1-8.61,3.89,9.63,9.63,0,0,1-3.69-.58,2.57,2.57,0,0,1-1.82-2.46,2.32,2.32,0,0,1,1.35-2,4,4,0,0,1,2.4-.66c.29,0,.44.11.44.32a.59.59,0,0,1-.13.31,3,3,0,0,0-.22.37,1.43,1.43,0,0,0-.18.67,1.56,1.56,0,0,0,.09.5,2,2,0,0,0,1,1.24,3.24,3.24,0,0,0,1.73.46,6.44,6.44,0,0,0,5.65-3.2,13.44,13.44,0,0,0,1.9-7.47v-5.21a10.75,10.75,0,0,1-2.95,3.66,8.43,8.43,0,0,1-5.42,2.08c-3.58,0-6.33-1.18-8.27-3.54a11.87,11.87,0,0,1-2.52-7.77,18.33,18.33,0,0,1,.68-5.07,22.32,22.32,0,0,1,1.67-4.07c.06-.12.74-1.31,2-3.57.1-.22,0-.45-.41-.71a9.36,9.36,0,0,0-1.35-.64l-1-.53c-.16-.06-.24-.15-.24-.29s.17-.24.52-.32l1-.24a15,15,0,0,0,2-.61,15.72,15.72,0,0,0,2-.9l1.81-1a.68.68,0,0,1,.32-.09c.23,0,.35.11.35.33a.74.74,0,0,1-.12.3,5.08,5.08,0,0,1-.49.72l-.59.79a27.91,27.91,0,0,0-3.43,6.16,20.14,20.14,0,0,0-1.38,7.32,12.91,12.91,0,0,0,2.16,7.7,6.7,6.7,0,0,0,5.75,3,8.94,8.94,0,0,0,7.91-5.1V588.79a1.6,1.6,0,0,0-.64-1.14q-.59-.46-1.17-1a.63.63,0,0,1-.21-.44c0-.22.17-.33.5-.33l1.29.09c.76.06,1.47.09,2.11.09s1.36,0,1.8,0l1.54-.14c.39,0,.59.12.59.36A.65.65,0,0,1,1347.15,586.74Z"/><path d="M1395.67,613.17a1.15,1.15,0,0,1,.2.47c0,.19-.14.29-.44.29l-1-.09c-.57-.05-1.11-.08-1.62-.08a10.3,10.3,0,0,0-1.17.08l-.76.09c-.45,0-.67-.11-.67-.32a.64.64,0,0,1,.14-.32,4,4,0,0,0,.43-.81,2.59,2.59,0,0,0,.16-1l-.18-2.81a10.6,10.6,0,0,1-3.78,4.19,10.88,10.88,0,0,1-6.12,2,11.28,11.28,0,0,1-7.62-2.67,9.16,9.16,0,0,1-3.28-7.29,9.52,9.52,0,0,1,3.58-7.56,12.21,12.21,0,0,1,8.2-2.93,11.13,11.13,0,0,1,4.44.91,8.79,8.79,0,0,1,3.24,2.2,8.79,8.79,0,0,0-1.5-3.84,18,18,0,0,0-4.13-5,9.6,9.6,0,0,0-6.15-2.46,6.55,6.55,0,0,0-3.37.82,2.86,2.86,0,0,0-1.61,2.57,2.46,2.46,0,0,0,.48,1.56,1.6,1.6,0,0,0,1.33.61,1.52,1.52,0,0,0,1-.38,1.17,1.17,0,0,0,.44-.91,2.64,2.64,0,0,0-.1-.74c-.07-.25-.13-.47-.19-.66s0-.23,0-.27a1.21,1.21,0,0,1,.38,0,2.49,2.49,0,0,1,1.49.77,2.07,2.07,0,0,1,.67,1.52,2.89,2.89,0,0,1-1.09,2.3,3.87,3.87,0,0,1-2.54.92,3.76,3.76,0,0,1-2.81-1.14,4.23,4.23,0,0,1-1.11-3.08,4.29,4.29,0,0,1,2.66-3.92A12,12,0,0,1,1379,585a11.6,11.6,0,0,1,6.41,2.06,15.62,15.62,0,0,1,5.13,5.61,23.25,23.25,0,0,1,2.2,6.18,64.69,64.69,0,0,1,1,6.43q.48,4.1.79,5.61a4.8,4.8,0,0,0,.56,1.47Zm-5-9.38a6.45,6.45,0,0,0-2.45-5.28,9.85,9.85,0,0,0-6.4-2,8.26,8.26,0,0,0-5.63,2.11,6.65,6.65,0,0,0-2.4,5.21,7.31,7.31,0,0,0,2.45,5.58,8.24,8.24,0,0,0,5.81,2.28,8.76,8.76,0,0,0,6.26-2.22A7.46,7.46,0,0,0,1390.69,603.79Z"/><path d="M1428.36,616.69q0,4.77-5.42,7.64a23.43,23.43,0,0,1-11.1,2.49,16.72,16.72,0,0,1-8.09-1.87q-3.81-2.06-3.81-5.28a4.32,4.32,0,0,1,1.13-3.12,3.9,3.9,0,0,1,2.92-1.15,4.48,4.48,0,0,1,2.68.73,2.85,2.85,0,0,1,1.18,2,2.44,2.44,0,0,1,.06.44,1.88,1.88,0,0,1-.35,1.14c-.12.12-.21.18-.29.18a.24.24,0,0,1-.24-.18,2.48,2.48,0,0,0-1-1.24,2.92,2.92,0,0,0-1.56-.4,1.74,1.74,0,0,0-1.42.72,2.43,2.43,0,0,0-.58,1.57q0,2.34,3,3.69a15.8,15.8,0,0,0,6.42,1.17,14.33,14.33,0,0,0,8.2-2.43q3.87-2.61,3.87-6.42a6.4,6.4,0,0,0-3-5.45,11.29,11.29,0,0,0-6.62-1.93,13.67,13.67,0,0,0-5.86,1.11,8.5,8.5,0,0,0-2.34,1.7c-.18.18-.37.16-.59-.06a11.42,11.42,0,0,1-1-.67,6.24,6.24,0,0,1-.64-.56c-.16-.15-.14-.33.06-.52,0,0,.55-.37,1.58-1a14.62,14.62,0,0,0,1.35-1,17.25,17.25,0,0,0,2.49-2.13,7.65,7.65,0,0,0,1.14-1.56,12.88,12.88,0,0,1-6-2.93,8.64,8.64,0,0,1-3.46-6.79,8.37,8.37,0,0,1,3.78-7.06,13.84,13.84,0,0,1,8.35-2.55,22.45,22.45,0,0,1,4.38.36,14.1,14.1,0,0,1,3.76,1.45,6,6,0,0,0,.94-1.34,4.71,4.71,0,0,0,.47-2.06,2,2,0,0,0-.44-1.34,1.64,1.64,0,0,0-1.49-.53,1.67,1.67,0,0,0-.88.23,3,3,0,0,0-.47.41q-.15.15-.24.09c-.06,0-.08-.14-.06-.32a4.71,4.71,0,0,1,.65-1.82,2.29,2.29,0,0,1,2-1.17,3.07,3.07,0,0,1,2.58,1.14,4.51,4.51,0,0,1,.76,2.79,6.06,6.06,0,0,1-.79,2.84,5.59,5.59,0,0,1-1.49,1.9,10.62,10.62,0,0,1,3,3.34,8.71,8.71,0,0,1,1,4.28,8.14,8.14,0,0,1-3.81,7,14.63,14.63,0,0,1-8.61,2.46c-.32,0-.66,0-1,0l-.9-.07a10.51,10.51,0,0,1-1.7,2,14.35,14.35,0,0,1-2,1.73,15.85,15.85,0,0,1,3.14-.69,28.06,28.06,0,0,1,3.37-.19,17.23,17.23,0,0,1,8.67,2.08Q1428.37,612.06,1428.36,616.69Zm-5.51-21.52a9.81,9.81,0,0,0-.46-3.19,8,8,0,0,0-1.64-2.66,5.5,5.5,0,0,1-1.37.65,5,5,0,0,1-1.56.22,3.53,3.53,0,0,1-2.61-.93,2.16,2.16,0,0,1-.73-1.52c0-.22,0-.33.11-.33a.41.41,0,0,1,.24.15,3.45,3.45,0,0,0,.7.7,3,3,0,0,0,1.7.47,4.74,4.74,0,0,0,1.29-.17,4.58,4.58,0,0,0,1-.47,6.6,6.6,0,0,0-2.4-1.43A8.81,8.81,0,0,0,1414,586a9.61,9.61,0,0,0-6.51,2.41,7.69,7.69,0,0,0-2.75,6,9.1,9.1,0,0,0,1.66,5.47,8.12,8.12,0,0,0,4.67,3.13,3.66,3.66,0,0,0,.17-1.08,3.56,3.56,0,0,0-.58-1.84c-.14-.24-.06-.41.23-.51l.75-.27.92-.36a7.61,7.61,0,0,0,1-.54l.93-.6c.11-.12.21-.14.29-.06a.41.41,0,0,1,.12.35,8,8,0,0,1-.6,2.31c-.41,1.09-.79,2-1.16,2.78a6.2,6.2,0,0,0,1,.09,8.63,8.63,0,0,0,5.86-2.4A7.55,7.55,0,0,0,1422.85,595.17Z"/><path d="M1459.59,613.17a1.07,1.07,0,0,1,.21.47c0,.19-.15.29-.44.29l-1-.09c-.56-.05-1.1-.08-1.61-.08a10.3,10.3,0,0,0-1.17.08l-.76.09c-.45,0-.68-.11-.68-.32a.59.59,0,0,1,.15-.32,3.47,3.47,0,0,0,.42-.81,2.59,2.59,0,0,0,.17-1l-.18-2.81a10.6,10.6,0,0,1-3.78,4.19,10.88,10.88,0,0,1-6.12,2,11.28,11.28,0,0,1-7.62-2.67,9.13,9.13,0,0,1-3.28-7.29,9.54,9.54,0,0,1,3.57-7.56,12.24,12.24,0,0,1,8.21-2.93,11,11,0,0,1,4.43.91,8.62,8.62,0,0,1,3.24,2.2,8.87,8.87,0,0,0-1.49-3.84,18,18,0,0,0-4.13-5,9.64,9.64,0,0,0-6.16-2.46,6.51,6.51,0,0,0-3.36.82,2.86,2.86,0,0,0-1.62,2.57,2.46,2.46,0,0,0,.49,1.56,1.58,1.58,0,0,0,1.33.61,1.56,1.56,0,0,0,1-.38,1.17,1.17,0,0,0,.44-.91,2.65,2.65,0,0,0-.11-.74c-.07-.25-.13-.47-.19-.66s0-.23,0-.27a1.3,1.3,0,0,1,.38,0,2.48,2.48,0,0,1,1.5.77,2.07,2.07,0,0,1,.67,1.52,2.9,2.9,0,0,1-1.1,2.3,3.85,3.85,0,0,1-2.53.92,3.75,3.75,0,0,1-2.81-1.14,4.2,4.2,0,0,1-1.12-3.08,4.3,4.3,0,0,1,2.67-3.92A12,12,0,0,1,1443,585a11.61,11.61,0,0,1,6.42,2.06,15.62,15.62,0,0,1,5.13,5.61,23.26,23.26,0,0,1,2.19,6.18,64.21,64.21,0,0,1,1,6.43q.46,4.1.79,5.61a4.55,4.55,0,0,0,.56,1.47Zm-5-9.38a6.45,6.45,0,0,0-2.44-5.28,9.88,9.88,0,0,0-6.41-2,8.24,8.24,0,0,0-5.62,2.11,6.65,6.65,0,0,0-2.4,5.21,7.3,7.3,0,0,0,2.44,5.58,8.24,8.24,0,0,0,5.82,2.28,8.73,8.73,0,0,0,6.25-2.22A7.42,7.42,0,0,0,1454.61,603.79Z"/><path d="M1473.77,613a.9.9,0,0,1,.35.58c0,.23-.21.34-.64.34s-.65,0-.88,0c-1.21-.1-2-.14-2.4-.14-.7,0-1.28,0-1.72,0l-1.5.12c-.47,0-.71-.12-.71-.36a1.07,1.07,0,0,1,.3-.53c.48-.4.85-.71,1.08-.92a1.58,1.58,0,0,0,.67-1.09V591.37a2.27,2.27,0,0,0-.7-2l-1.26-.44c-.23-.08-.35-.19-.35-.35s.09-.24.28-.38a7.67,7.67,0,0,1,1-.56c.66-.35,1.18-.64,1.55-.88.92-.56,1.64-1,2.16-1.42l1-.72a.65.65,0,0,1,.29-.14c.27,0,.36.17.26.53a18.36,18.36,0,0,0-.27,2.14c-.09,1-.14,2.18-.14,3.54v20.36a1.55,1.55,0,0,0,.62,1C1473,612.42,1473.4,612.72,1473.77,613Zm-.67-35.42a2.31,2.31,0,0,1-.77,1.75,2.62,2.62,0,0,1-1.85.72,2.37,2.37,0,0,1-1.78-.76,2.54,2.54,0,0,1-.73-1.83,2.37,2.37,0,0,1,.79-1.8,2.58,2.58,0,0,1,1.83-.73,2.33,2.33,0,0,1,1.78.79A2.65,2.65,0,0,1,1473.1,577.59Z"/><path d="M1507.11,596a23.14,23.14,0,0,1-1.52,8.31,24.12,24.12,0,0,1-4.51,7.35h.3l.61,0a12.74,12.74,0,0,0,1.69-.11,3.51,3.51,0,0,0,1.56-.6l1-.79a.38.38,0,0,1,.18-.09l.12,0c.21,0,.27.17.17.52s-.08.64-.12,1.05,0,.68,0,.81c0,.29,0,.6,0,.92s0,.66.08,1,0,.58-.23.58a.44.44,0,0,1-.29-.12q-.88-.48-1.23-.63a6.26,6.26,0,0,0-1.28-.34,14.21,14.21,0,0,0-1.86-.08c-.57,0-1,0-1.35,0s-.77.07-1.32.15-.84-.08-.84-.53a.67.67,0,0,1,.08-.35q1.59-2.46,2.46-4.07a25.5,25.5,0,0,0,2-4.75,18.56,18.56,0,0,0,.83-5.47,12.53,12.53,0,0,0-2.06-7.47,6.71,6.71,0,0,0-5.8-3,7.56,7.56,0,0,0-4.42,1.37,9.3,9.3,0,0,0-2.9,3.43v18a1.55,1.55,0,0,0,.65,1.09l1.13.92a.92.92,0,0,1,.33.59c0,.2-.17.3-.5.3l-1.32-.09c-.79-.05-1.5-.08-2.15-.08s-1.34,0-1.78,0l-1.51.12c-.47,0-.71-.11-.71-.33a.86.86,0,0,1,.26-.5,8.1,8.1,0,0,1,.85-.78c.67-.51,1-.94,1-1.29V593.71a5.59,5.59,0,0,0-1.49-4,9.1,9.1,0,0,0-2.26-1.52.36.36,0,0,1-.23-.33.53.53,0,0,1,.17-.38c.25-.23.47-.42.65-.57a8.27,8.27,0,0,0,.67-.63c.27-.27.49-.49.64-.67a5.37,5.37,0,0,0,.44-.53.42.42,0,0,1,.33-.14.36.36,0,0,1,.26.09,14.07,14.07,0,0,1,2.23,2.37A8.87,8.87,0,0,1,1488,591a15.14,15.14,0,0,1,3.14-3.66,8.67,8.67,0,0,1,5.59-2.31,9.4,9.4,0,0,1,8.12,4A11.72,11.72,0,0,1,1507.11,596Z"/><g class="cls-24"><path d="M694,1043.36c4.93.43,11.74-1.1,15.12-3.4l39.77-27.07,89.29,4.83,0,0c1.08,1.33,3.84,2.08,7.37,2.22l4,4.12c.49.51,2.23.57,3.87.14s2.58-1.21,2.09-1.72l-2.88-3c.7-.11,1.39-.23,2.1-.38l8.53,1.78a7.85,7.85,0,0,0,4.39-.68c1.22-.62,1.25-1.33,0-1.58l-6.61-1.38a23.08,23.08,0,0,0,3.18-1.52l9,.49a7.51,7.51,0,0,0,4.26-1.07h0c.87-.66.38-1.27-1.09-1.35l-9.21-.5a2.7,2.7,0,0,0,.59-1.62l9.8-1.12c1.7-.19,3.26-.87,3.47-1.51s-1-1-2.71-.82l-12,1.38a7.33,7.33,0,0,0-1.71-.71l5.56-1.47c1.64-.44,2.58-1.21,2.09-1.72s-2.22-.57-3.86-.14l-10,2.65a41.36,41.36,0,0,0-9.21,1.21l-98.94-5.34a25.22,25.22,0,0,0-9.91,1.67,17,17,0,0,0-4,1.9l-45.12,30.7C687.75,1040.7,689,1042.93,694,1043.36Z"/><path d="M366.63,969.51c-.74-6.44,32.55-10.82,62.56-16s45.4-9.21,46.13-2.77,12.38,6.77-17.64,12S367.36,975.94,366.63,969.51Z"/><path d="M576,917.34c-1.13-1.87-2.38-3.84-3.52-5.89-10.2,3.66-21.84,8.64-33.38,13.24-25,9.94-40,14.29-29.81,18.12s4.37,9,29.33-1c11.67-4.65,28-11.78,41.07-18.44C578.41,921.38,577.2,919.3,576,917.34Z"/><path d="M703.43,1001c-9.59-10.15-42.18-12.68-83.34-8.13l-44.42-67.82-65.2,17.2,56.31,59.62c-6.61,1.47-13.28,3.09-20,4.86q-7.38,1.95-14.39,4l-56.18-59.47-62.88,16.59,72.91,59.46c-34.58,15.25-52.28,31.48-42.25,42.1,14.86,15.74,48.28-16.26,119.91-35.15S718.29,1016.74,703.43,1001Z"/><path d="M708.3,995.65l-138.08,36.42L432,1068.53c24.87,26.34,106.89,31.38,183.19,11.25S733.17,1022,708.3,995.65Z"/><polygon points="559.19 1034.98 583.72 1028.51 628.61 1076.03 604.08 1082.5 559.19 1034.98"/><ellipse cx="590.7" cy="1077.35" rx="3.84" ry="1.31" transform="translate(-185.34 124.79) rotate(-10.43)"/><ellipse cx="584.67" cy="1070.96" rx="3.84" ry="1.31" transform="translate(-184.29 123.59) rotate(-10.43)"/><ellipse cx="578.63" cy="1064.57" rx="3.84" ry="1.31" transform="translate(-183.23 122.39) rotate(-10.43)"/><ellipse cx="572.59" cy="1058.18" rx="3.84" ry="1.31" transform="translate(-182.17 121.2) rotate(-10.43)"/><ellipse cx="566.55" cy="1051.79" rx="3.84" ry="1.31" transform="translate(-181.11 120) rotate(-10.43)"/><ellipse cx="560.52" cy="1045.39" rx="3.84" ry="1.31" transform="matrix(0.98, -0.18, 0.18, 0.98, -180.06, 118.8)"/><ellipse cx="554.48" cy="1039" rx="3.84" ry="1.31" transform="translate(-179 117.6) rotate(-10.43)"/><ellipse cx="631.65" cy="1066.64" rx="5.17" ry="0.25" transform="translate(-250.05 195.26) rotate(-14.7)"/><ellipse cx="625.75" cy="1060.38" rx="5.17" ry="0.25" transform="translate(-248.66 193.56) rotate(-14.7)"/><ellipse cx="619.31" cy="1053.58" rx="5.17" ry="0.25" transform="translate(-247.14 191.7) rotate(-14.7)"/><ellipse cx="613.28" cy="1047.18" rx="5.17" ry="0.25" transform="translate(-245.72 189.96) rotate(-14.7)"/><ellipse cx="607.24" cy="1040.79" rx="5.17" ry="0.25" transform="translate(-244.29 188.22) rotate(-14.7)"/><ellipse cx="601.46" cy="1034.68" rx="5.17" ry="0.25" transform="translate(-242.93 186.55) rotate(-14.7)"/><ellipse cx="595.43" cy="1028.29" rx="5.17" ry="0.25" transform="translate(-241.5 184.81) rotate(-14.7)"/><path d="M686,1032.05l19.41.13,19.42.12c-9.2,8.62-25.35,15.54-36.07,15.48S676.81,1040.67,686,1032.05Z"/><path d="M563.76,1160.28c-20.1-16.34-5.91-57.44,56.25-73.9s125.24,0,143.34,16.12-4.59,43.69-63.84,59.91c-6.63,1.82-14.3,3.58-14.3,3.58s-26.61,6-52.7,7.36C599.87,1175.06,573.42,1168.13,563.76,1160.28Z"/><polygon points="601.4 1080.09 626.15 1073.56 637.74 1085.84 613 1092.36 601.4 1080.09"/><path d="M601.41,1080.09l12.36-3.26,12.38-3.27c-2.22-2.35-9.56-2.79-16.39-1S599.18,1077.74,601.41,1080.09Z"/></g></svg>