<svg id="Layer_1" data-name="Layer 1" xmlns="http://www.w3.org/2000/svg" width="1920" height="1080" viewBox="0 0 1920 1080"><defs><style>.cls-1{fill:#29abe2;}.cls-2{fill:#ffdf00;}.cls-19,.cls-3{fill:#fff;}.cls-3{opacity:0.64;}.cls-4{fill:#39994a;}.cls-5{fill:#39934a;}.cls-6{fill:#39a94a;}.cls-18,.cls-7{fill:none;}.cls-8{fill:#a6835b;}.cls-9{fill:#a67c52;}.cls-10{fill:#ed1c24;}.cls-11{opacity:0.2;}.cls-12{fill:#42210b;}.cls-13{fill:#dbac99;}.cls-14{fill:#42170b;}.cls-15{fill:#ffffd5;}.cls-16{fill:#754c24;}.cls-17{fill:#603813;}.cls-18{stroke:#000;stroke-miterlimit:10;}.cls-20{fill:#22b573;}.cls-21{fill:#e1916d;}.cls-22{fill:#ff3c24;}.cls-23{fill:#006837;}.cls-24{opacity:0.14;}</style></defs><rect class="cls-1" y="1" width="1920" height="712"/><polygon class="cls-2" points="429.21 20 434.43 133.39 467.04 24.89 444.54 136.05 502.48 39.25 453.68 141.19 533.32 62.19 461.29 148.5 557.62 92.25 466.88 157.52 573.86 127.56 470.1 167.67 581 165.88 470.75 178.33 578.61 204.82 468.8 188.82 566.83 241.93 464.36 198.48 546.4 274.88 457.71 206.71 518.61 301.58 449.26 212.99 485.2 320.38 439.56 216.92 448.27 330.08 429.21 218.26 410.15 330.08 418.86 216.92 373.23 320.38 409.16 212.99 339.82 301.58 400.72 206.71 312.03 274.88 394.07 198.48 291.6 241.93 389.63 188.82 279.82 204.82 387.67 178.33 277.43 165.88 388.33 167.67 284.57 127.56 391.55 157.52 300.8 92.25 397.14 148.5 325.1 62.19 404.75 141.19 355.94 39.25 413.89 136.05 391.39 24.89 424 133.39 429.21 20"/><path class="cls-3" d="M416.71,198.27c5.41-5,8.77-11.48,9-18.66.51-16.56-15.87-30.5-36.6-31.14-11.19-.34-21.36,3.27-28.42,9.28-7.77-10-21.42-16.88-37.16-17.36-17.82-.55-33.49,7.24-41.18,19-1.65-.08-3.3-.15-5-.2l-3-.08c-7.57-18.32-28.8-31.92-54.22-32.7-24-.74-45,10.19-54.58,26.46-42.52,1.66-75.45,16.81-76,36.29a18.45,18.45,0,0,0,1.41,7.56c-14.37,2.64-22.93,6.19-23.06,10.32-.17,5.62,15.33,11.14,40,15.29a15.83,15.83,0,0,0-1.82,6.79c-.5,16.18,25.15,30.11,57.28,31.1a102.88,102.88,0,0,0,32.43-3.93A38.88,38.88,0,0,0,216,262.52a39.86,39.86,0,0,0,15.92-2.7c10.31,8.08,25.23,13.41,42,13.92,15.14.47,29-3.09,39.54-9.28,8.74,7.18,20.79,11.81,34.21,12.23,19.42.59,36.5-7.78,45.1-20.5a48.5,48.5,0,0,0,5.31.47c21.43.66,39.22-12.69,39.74-29.8C438.13,214.57,429.52,203.68,416.71,198.27Z"/><path class="cls-4" d="M1920,847V543c-886.06,8.66-1596.18,140-1643,304Z"/><path class="cls-5" d="M0,856H1189C1155.12,738.43,641.22,644.21,0,638Z"/><path class="cls-3" d="M1552.83,64.46A26,26,0,0,0,1559,47.64c0-14.73-12.39-26.66-27.69-26.66a28.08,28.08,0,0,0-20.74,9,33.95,33.95,0,0,0-57.73,3.61c-1.21,0-2.43,0-3.66,0H1447C1441,17.5,1425,6,1406.28,6a43.35,43.35,0,0,0-39.65,25c-31.31,2.64-55.24,17-55.24,34.31A19.43,19.43,0,0,0,1312.6,72c-10.54,2.73-16.77,6.12-16.77,9.79,0,5,11.56,9.48,29.81,12.5a16.44,16.44,0,0,0-1.19,6.07c0,14.4,19.23,26.06,42.94,26.06a64,64,0,0,0,23.82-4.37,25.38,25.38,0,0,0,26.75,2.13c7.79,6.91,18.9,11.23,31.26,11.23a47.82,47.82,0,0,0,28.94-9.33,37.36,37.36,0,0,0,25.5,9.93,36.86,36.86,0,0,0,32.78-19.44,30.08,30.08,0,0,0,3.94.27c15.8,0,28.62-12.34,28.62-27.56A27.49,27.49,0,0,0,1552.83,64.46Z"/><rect class="cls-6" y="831" width="1920" height="249"/><path class="cls-7" d="M1147.5,349.07v-12.2a9.82,9.82,0,0,1-1.17,4.56A25.82,25.82,0,0,1,1147.5,349.07Z"/><polygon class="cls-8" points="1646.8 335.94 1147.5 335.94 1147.5 336.87 1147.5 349.07 1147.5 673.71 1646.8 673.71 1646.8 349.07 1646.8 335.94"/><path class="cls-9" d="M1146.33,341.43a9.82,9.82,0,0,0,1.17-4.56c0-10.88-19.21-19.7-42.91-19.7s-42.91,8.82-42.91,19.7a9.74,9.74,0,0,0,1,4.17,25.73,25.73,0,0,0-1.28,8v705.58c0,12.39,8.61,22.52,19.14,22.52h47.86c10.52,0,19.14-10.13,19.14-22.52V349.07A25.82,25.82,0,0,0,1146.33,341.43Z"/><path class="cls-9" d="M1732.94,349.07a25.5,25.5,0,0,0-1.17-7.64,9.82,9.82,0,0,0,1.17-4.56c0-10.88-19.21-19.7-42.91-19.7s-42.91,8.82-42.91,19.7a9.75,9.75,0,0,0,1,4.17,25.73,25.73,0,0,0-1.29,8v705.58c0,12.39,8.61,22.52,19.14,22.52h47.86c10.53,0,19.14-10.13,19.14-22.52Z"/><path class="cls-10" d="M664.06,952.54c-4.54,8.43-18.17,11.21-31.08,11.58-6.88.2-13.79-.22-20.66.08-2,.09-7.32.21-8.37,1.53-.9,1.12,1.59,3,2.89,3.9,7,4.63,18.94,4.69,26,9.55,8.74,6,7,17.06-3.82,21.7a27.21,27.21,0,0,1-19.89,0c-5.71-2.32-8.67-6.29-11.39-10s-5.29-7.39-12.07-8.36c-8.07-1.16-5.78,4.71-4.19,7.72,4.16,7.89,7.22,17.92-4.35,24.15-8.27,4.46-20.3,3-26.34-2.5a12.59,12.59,0,0,1-4.26-11.12c.63-4.94,5.23-9.62,5.24-14.51a8.61,8.61,0,0,0-6.07-7.59c-2.41-.77-5-.24-7.38.26-6.7,1.38-12.74,3.45-19.8,4.09-5.13.47-12,.91-16-1.64-3.36-2.12-3-5.18-.89-7.64,4.27-5,12.61-8.67,19.36-12.26,4.65-2.46,13-6.62,6.12-10.34-3.48-1.88-8.64-2.38-12.47-3.95-12-4.93-5.9-15.06,3.82-19.58,12-5.58,24.19.12,35.67,3.13l.63-.22a15.69,15.69,0,0,1,7.51-8.8c7.18-4.17,19.32-5.49,26.4-.51,4,2.82,4.59,6.76,3.69,10.35a16.34,16.34,0,0,1-3.17,6.47,2,2,0,0,0-.5.93,14.91,14.91,0,0,0,2.8.31c6.46.4,13-1.11,19.33-1.78,3.9-.41,7.88-.57,11.83-.64,9.85-.17,20.57.12,29.83,2.41C661.45,941.5,667.4,946.34,664.06,952.54Z"/><g class="cls-11"><ellipse cx="777.81" cy="903.75" rx="69.83" ry="29.32" transform="translate(-26.62 23.61) rotate(-1.71)"/><path d="M740.61,887c44.47-11.43,99.27-8.68,88.35,17.38-1.26,3-4.39,2.27-7.92,2.25h0c-3.53,0-7.25-.28-5.76-2.83,12.83-22.05-33.79-20.47-68.5-12.08-4,1-7.24.23-8.55-1.13h0C736.92,889.25,735.46,888.34,740.61,887Z"/><path d="M800,925.62c-6,.24-10-6.89-11.92-6.67s2.87,7.78-.88,8.33-29.65-6.61-32.68-6.11c-2.85.46,20.62,7,15.55,8.1-6,1.35-31.42-4.9-36.94-3.7-4.45,1,5.26,6.51,18.44,8.55,11.12,1.73,24.09-1.15,31.41,1.4,3.77,1.31,3.84,3.3,8.77,3.47,2.18.07,5.3-.21,6.4-.83,2.54-1.45-8.15-3.34-5.92-5.06,1.51-1.17,7.08-.84,14.87-2.17,10.1-1.72,9.54-3.77,21.16-7.12s21.15-3.87,20.77-4.68-12-1.27-20.87.56c-9.62,2-11.73,5.62-13.88,5.53-3.53-.14,2.13-10,.38-10S807,925.33,800,925.62Z"/><path d="M720,909.84c3.61,3.28,10.76,6.26,19.71,8.21,2.61.56,3.13,0,4.13-.71s.91-1.55-1.07-2c-6.53-1.53-12.52-3.71-16-6.09C724.52,909.51,722.27,909.72,720,909.84Z"/></g><path class="cls-12" d="M619,969.91c-4.3,17.14-34.45,5.78-62.57-1.28s-43.57-7.16-39.26-24.3-4.82-26,23.3-18.89S623.33,952.77,619,969.91Z"/><path class="cls-12" d="M383.61,973c5.29,16.86,34.72,3.78,62.39-4.89s43.08-9.66,37.8-26.53,3.31-26.19-24.36-17.51S378.32,956.18,383.61,973Z"/><path class="cls-13" d="M359.26,610.54l38.5-36.08a9,9,0,0,0-12.31-13.14l-44.62,41.83a8.77,8.77,0,0,0-2.07,2.92,9,9,0,0,0,1.5,11.48l45.13,41.28a9,9,0,0,0,12.15-13.28Z"/><path class="cls-13" d="M663.63,604.49a9.18,9.18,0,0,0-2.07-2.92l-44.63-41.82a9,9,0,0,0-12.31,13.13L643.12,609l-38.27,35a9,9,0,0,0-.57,12.72h0a9,9,0,0,0,12.72.56L662.13,616A9.05,9.05,0,0,0,663.63,604.49Z"/><path d="M632.71,658.69c0-50.82-51.26,9.11-123.33,9.11s-137.67-59.93-137.67-9.11c0,32.8,24.32,61.58,60.94,77.88L416.83,942.25h65.6V749.67a185.92,185.92,0,0,0,19.78,1.05q7.43,0,14.65-.58V942.25h63.27L566.64,738.73C606.1,722.91,632.71,693,632.71,658.69Z"/><path class="cls-14" d="M593.11,587l15.54-13.56,15.55-13.57c-14-16-32.24-22.9-40.83-15.4S579.15,571,593.11,587Z"/><path class="cls-14" d="M363.71,669.25h278c0-85.08-62.24-154-139-154S363.71,584.17,363.71,669.25Z"/><rect class="cls-15" x="489.05" y="515.74" width="24.68" height="153.51"/><ellipse class="cls-16" cx="520.59" cy="538.18" rx="3.66" ry="3.59"/><ellipse class="cls-16" cx="520.59" cy="558.83" rx="3.66" ry="3.59"/><ellipse class="cls-16" cx="520.59" cy="579.47" rx="3.66" ry="3.59"/><ellipse class="cls-16" cx="520.59" cy="600.12" rx="3.66" ry="3.59"/><ellipse class="cls-16" cx="520.59" cy="620.77" rx="3.66" ry="3.59"/><ellipse class="cls-16" cx="520.59" cy="641.42" rx="3.66" ry="3.59"/><ellipse class="cls-16" cx="520.59" cy="662.06" rx="3.66" ry="3.59"/><ellipse cx="479.45" cy="537.96" rx="5.03" ry="0.67"/><ellipse cx="479.45" cy="558.15" rx="5.03" ry="0.67"/><ellipse cx="479.45" cy="580.15" rx="5.03" ry="0.67"/><ellipse cx="479.45" cy="600.8" rx="5.03" ry="0.67"/><ellipse cx="479.45" cy="621.44" rx="5.03" ry="0.67"/><ellipse cx="479.45" cy="641.19" rx="5.03" ry="0.67"/><ellipse cx="479.45" cy="661.84" rx="5.03" ry="0.67"/><ellipse class="cls-17" cx="603.31" cy="364.68" rx="13.71" ry="13.47"/><ellipse class="cls-17" cx="401.29" cy="364.68" rx="13.71" ry="13.47"/><ellipse class="cls-17" cx="403.35" cy="376.12" rx="6.63" ry="6.51"/><ellipse class="cls-17" cx="601.26" cy="376.12" rx="6.63" ry="6.51"/><ellipse class="cls-17" cx="596.69" cy="344.03" rx="22.17" ry="24.24"/><ellipse class="cls-17" cx="406.55" cy="348.07" rx="22.17" ry="24.24"/><path class="cls-13" d="M604.27,337.47c3.73,55.11-38.6,150.24-100.65,150.4s-100-84.21-102.3-137.35,36.61-108.18,96.16-109.69c6.66-.17,14.12.49,14.12.49S537.37,244,559.23,258C586.59,275.56,602.48,311,604.27,337.47Z"/><ellipse cx="515.32" cy="381.97" rx="2.02" ry="3.03" transform="translate(-33.63 713.8) rotate(-67.7)"/><path class="cls-18" d="M492.31,453a8.48,8.48,0,0,0,2.84,9.82c3,2.23,7,2,8.49,2s4.89-.24,7.55-2.36c3-2.39,3.83-6.38,2.36-10.22"/><ellipse cx="491.4" cy="382.05" rx="3.03" ry="2.02" transform="translate(-108.22 215.05) rotate(-22.3)"/><ellipse class="cls-13" cx="400.43" cy="367.39" rx="8.68" ry="8.53"/><ellipse class="cls-13" cx="604.28" cy="367.39" rx="8.68" ry="8.53"/><ellipse class="cls-17" cx="500.48" cy="238.1" rx="11.43" ry="9.87"/><ellipse class="cls-17" cx="588.92" cy="277.82" rx="14.4" ry="14.14"/><ellipse class="cls-17" cx="419.8" cy="277.6" rx="16.68" ry="18.85"/><ellipse class="cls-17" cx="426.89" cy="284.33" rx="15.54" ry="13.02"/><ellipse class="cls-17" cx="455" cy="270.42" rx="25.32" ry="4.95" transform="matrix(0.95, -0.3, 0.3, 0.95, -60.07, 148.53)"/><ellipse class="cls-17" cx="569.03" cy="273.56" rx="19.65" ry="19.3"/><ellipse class="cls-17" cx="500.25" cy="254.48" rx="40.91" ry="21.32"/><ellipse class="cls-17" cx="434.66" cy="255.83" rx="16.45" ry="14.14"/><ellipse class="cls-17" cx="521.73" cy="231.59" rx="9.83" ry="9.65"/><ellipse class="cls-17" cx="539.78" cy="263.68" rx="18.74" ry="13.02"/><ellipse class="cls-17" cx="561.95" cy="250.44" rx="15.77" ry="15.49"/><ellipse class="cls-17" cx="537.73" cy="241.69" rx="24" ry="16.16"/><ellipse class="cls-17" cx="482.65" cy="241.02" rx="16" ry="11.45"/><ellipse class="cls-17" cx="464.6" cy="254.26" rx="24" ry="16.16"/><ellipse class="cls-17" cx="441.06" cy="266.83" rx="19.65" ry="19.3"/><ellipse class="cls-17" cx="575.43" cy="263.68" rx="19.65" ry="19.3"/><ellipse class="cls-17" cx="583.43" cy="288.6" rx="15.77" ry="15.49"/><ellipse class="cls-17" cx="596.91" cy="302.73" rx="18.74" ry="20.2"/><ellipse class="cls-17" cx="414.78" cy="299.37" rx="21.35" ry="18.03" transform="translate(15.06 618.56) rotate(-74.43)"/><ellipse class="cls-17" cx="457.97" cy="248.65" rx="23.31" ry="17.28"/><ellipse class="cls-17" cx="406.78" cy="323.83" rx="18.28" ry="21.1"/><ellipse class="cls-17" cx="403.35" cy="347.84" rx="11.2" ry="11"/><ellipse class="cls-17" cx="603.09" cy="348.29" rx="11.2" ry="11"/><ellipse class="cls-17" cx="604.68" cy="327.87" rx="18.28" ry="21.1"/><ellipse class="cls-17" cx="491.33" cy="238.32" rx="32.91" ry="19.08"/><ellipse class="cls-17" cx="466.88" cy="266.6" rx="13.03" ry="10.1"/><path class="cls-18" d="M460.78,431c7.55-14.69,24.68-24.25,43.34-24.19,19.37.05,36.77,10.44,43.48,26"/><path class="cls-18" d="M453.77,431.72a6.6,6.6,0,0,1,8-.1,5.81,5.81,0,0,1,2,6"/><path class="cls-18" d="M555.57,432.55a6.63,6.63,0,0,0-8,.33,5.77,5.77,0,0,0-1.59,6.06"/><rect class="cls-13" x="489.05" y="477.34" width="24.68" height="39.05"/><path class="cls-13" d="M513.73,516.39H489.05c0,7.48,5.52,13.54,12.34,13.54S513.73,523.87,513.73,516.39Z"/><path class="cls-16" d="M484.45,322.1c-.58,2.28-7.11-1.52-16.9-3.94s-19.15-2.53-18.56-4.81,9-2.18,18.79.24S485,319.81,484.45,322.1Z"/><path class="cls-16" d="M522,322.57c.67,2.26,7-1.79,16.72-4.59s19-3.27,18.36-5.53-9.08-1.83-18.77,1S521.27,320.32,522,322.57Z"/><ellipse class="cls-19" cx="466.57" cy="347.85" rx="21.52" ry="20.11"/><ellipse class="cls-20" cx="466.51" cy="347.86" rx="11.74" ry="10.97"/><path class="cls-21" d="M487.65,342.89c-1.67-8.47-9.74-14.87-19.27-15.55-10.53-.75-20.54,5.64-22.78,15a1.88,1.88,0,0,1,.12.45l41.86.34A1,1,0,0,1,487.65,342.89Z"/><path class="cls-21" d="M445.51,352.83c1.81,8.44,10,14.7,19.53,15.23,10.54.58,20.43-6,22.52-15.36a2.13,2.13,0,0,1-.13-.45l-41.85.34A2.17,2.17,0,0,1,445.51,352.83Z"/><ellipse cx="466.85" cy="349.63" rx="2.51" ry="2.47"/><ellipse class="cls-19" cx="539.71" cy="347.69" rx="21.52" ry="20.11"/><ellipse class="cls-20" cx="539.64" cy="347.71" rx="11.74" ry="10.97"/><path class="cls-21" d="M560.79,342.74c-1.67-8.47-9.74-14.87-19.27-15.55-10.53-.76-20.54,5.64-22.78,15a1.76,1.76,0,0,1,.12.45l41.85.34A1.55,1.55,0,0,1,560.79,342.74Z"/><path class="cls-21" d="M518.65,352.67c1.81,8.45,10,14.71,19.53,15.24,10.54.58,20.43-6,22.52-15.36a2.54,2.54,0,0,1-.13-.45l-41.85.34A1.55,1.55,0,0,1,518.65,352.67Z"/><ellipse cx="539.99" cy="349.48" rx="2.51" ry="2.47"/><path class="cls-14" d="M409.36,590.3l-15.54-13.56-15.55-13.57c14-16,32.24-22.9,40.83-15.4S423.32,574.3,409.36,590.3Z"/><ellipse class="cls-10" cx="725.34" cy="852.23" rx="59.91" ry="49.12"/><path class="cls-22" d="M752.65,884.73c-40.45,13.38-86.13,1.87-70.42-40.06,1.82-4.85,4.28-3.21,7.26-2.73h0c3,.47,6.06,1.38,4.17,5.44-16.34,35,23.49,38.28,54.94,28.73,3.65-1.11,6.18.52,6.95,2.95h0C756.32,881.49,757.34,883.18,752.65,884.73Z"/><path class="cls-23" d="M712,813.08c5.14.35,6.75,12.71,8.43,12.59s-.49-13.29,2.81-13.74,23.44,14.74,26.13,14.3c2.52-.42-15.71-14.2-11.15-15.44,5.41-1.48,25.36,12.12,30.34,10.81,4-1.05-2.84-11.47-13.48-16.54-9-4.27-20.66-1.13-26.22-6.29-2.87-2.66-2.43-6-6.56-6.87-1.82-.4-4.53-.33-5.62.57-2.5,2.08,6.06,6.58,3.75,9.16-1.56,1.74-6.2.49-13.11,1.72-9,1.58-9,5.06-19.67,9.16s-18.86,3.76-18.73,5.15,9.8,3.62,17.79,1.71c8.63-2,11.32-7.85,13.11-7.44,2.95.69-4.27,16.32-2.81,16.6S706,812.67,712,813.08Z"/><path class="cls-22" d="M775.73,849.4c-2.24-5.91-7.55-11.77-14.64-16.13-2.06-1.27-2.65-.38-3.67.65a2.08,2.08,0,0,0,.4,3.48c5.15,3.36,9.68,7.76,12.06,12.15A49.86,49.86,0,0,1,775.73,849.4Z"/><g class="cls-24"><path d="M373.9,969.94c-8.58-5.56,26-8.18,55.66-11.6s43.27-6.34,51.85-.77,22.92,6.27-6.77,9.68S382.49,975.51,373.9,969.94Z"/><path d="M577.57,924.1c-16.78-3.66-33.1,5.59-51.05,13.28s-30.73,10.9-13.95,14.56,16,7.88,33.93.19S594.35,927.76,577.57,924.1Z"/><path d="M860.09,1019.8l-7.68,17.35c-.72,1.62,3.24,3.24,8.81,3.6s10.7-.69,11.42-2.32l8.9-20.1a1.08,1.08,0,0,0-.3-1.21c-.58-1.44-4.57-2.69-9.58-2.89l-69.23-2.81c-5.6-.22-10.42.94-10.71,2.59s4.06,3.19,9.66,3.41Z"/><path d="M598.21,1079.63a30.08,30.08,0,0,0,3.92.41l69.17,3c5.6.25,10.47-.89,10.83-2.54s-3.93-3.2-9.53-3.44l-59.68-2.64,8.26-17c.78-1.62-3.12-3.26-8.67-3.63h0c-5.56-.37-10.74.65-11.53,2.27l-9.73,20.05C590.54,1077.61,593.59,1079.07,598.21,1079.63Z"/><path d="M586.2,1058.72c36.62,14.07,38.27-12.32,101.31-26.09s163.61-9.71,127-23.78c-23.63-9.08-65.65-12.4-109.43-9.92L570.7,939l-57.39,12.54,138.78,53.31c-6.14,1-12.18,2.2-18.06,3.49q-6.49,1.41-12.4,3L483.2,958.08l-55.35,12.09,158.46,53.77C563.2,1035.86,561.48,1049.22,586.2,1058.72Z"/><path d="M672.53,1071l-3.82,6.72-3.82,6.73c23.74,1.77,44.7.18,46.81-3.53S696.27,1072.77,672.53,1071Z"/><path d="M813.89,1004.4l-121.52,26.54-121.65,26.57c61.31,23.56,165.44,30.76,232.59,16.09S875.2,1028,813.89,1004.4Z"/><polygon points="682.66 1033.06 704.25 1028.35 814.87 1070.84 793.28 1075.56 682.66 1033.06"/><ellipse cx="771.12" cy="1070.66" rx="1.21" ry="4.11" transform="translate(-316.14 1818.19) rotate(-88.75)"/><ellipse cx="756.24" cy="1064.94" rx="1.21" ry="4.11" transform="translate(-324.98 1797.72) rotate(-88.75)"/><ellipse cx="741.36" cy="1059.22" rx="1.21" ry="4.11" transform="translate(-333.82 1777.26) rotate(-88.75)"/><ellipse cx="726.48" cy="1053.51" rx="1.21" ry="4.11" transform="translate(-342.65 1756.79) rotate(-88.75)"/><ellipse cx="711.6" cy="1047.79" rx="1.21" ry="4.11" transform="translate(-351.49 1736.33) rotate(-88.75)"/><ellipse cx="696.72" cy="1042.08" rx="1.21" ry="4.11" transform="translate(-360.33 1715.86) rotate(-88.75)"/><ellipse cx="681.84" cy="1036.36" rx="1.21" ry="4.11" transform="translate(-369.17 1695.39) rotate(-88.75)"/><ellipse cx="807.26" cy="1062.86" rx="4.52" ry="0.28" transform="translate(-202.93 190.58) rotate(-11.97)"/><ellipse cx="792.7" cy="1057.27" rx="4.52" ry="0.28" transform="translate(-202.08 187.44) rotate(-11.97)"/><ellipse cx="776.85" cy="1051.18" rx="4.52" ry="0.28" transform="matrix(0.98, -0.21, 0.21, 0.98, -201.16, 184.02)"/><ellipse cx="761.98" cy="1045.46" rx="4.52" ry="0.28" transform="translate(-200.3 180.81) rotate(-11.97)"/><ellipse cx="747.1" cy="1039.75" rx="4.52" ry="0.28" transform="translate(-199.44 177.6) rotate(-11.97)"/><ellipse cx="732.87" cy="1034.28" rx="4.52" ry="0.28" transform="translate(-198.61 174.53) rotate(-11.97)"/><ellipse cx="717.99" cy="1028.56" rx="4.52" ry="0.28" transform="translate(-197.75 171.32) rotate(-11.97)"/><path d="M842.55,1142.21c-43-14.54-74.5-49-20.34-60.87s148.14,4.21,188.46,18.48,45.93,37-5.07,48.74c-5.71,1.32-12.7,2.56-12.7,2.56a376.58,376.58,0,0,1-53.68,4.49C902.63,1156,863.21,1149.2,842.55,1142.21Z"/><polygon points="792.82 1075.38 814.4 1070.66 842.54 1081.47 820.96 1086.19 792.82 1075.38"/><path d="M792.81,1075.38,803.6,1073l10.8-2.36c-5.39-2.07-14.59-2.69-20.55-1.39S787.42,1073.31,792.81,1075.38Z"/><path d="M830.85,1035l23.36.78,23.39.79c-.69,7.09-11.71,12.5-24.62,12.06S830.16,1042.07,830.85,1035Z"/></g><path d="M1265.18,396.93a7.2,7.2,0,0,1-1.9,5.14,6,6,0,0,1-4.48,2,13.7,13.7,0,0,1-5.92-1.51q-6.8-3.3-9.33-3.3-8.43,0-14,10.55-5.24,9.94-5.24,23.63,0,16.53,6.53,28.43,6.75,12.28,16.62,12.29a19.61,19.61,0,0,0,2.56-.22,15.19,15.19,0,0,0,3.74-1.18,8.53,8.53,0,0,0,3.19-2.12,10.56,10.56,0,0,1-1.1-1.9c-.2-.48-.46-1.2-.78-2.15a14.06,14.06,0,0,1-.59-3.54c-.07-1.41-.11-3.24-.11-5.47v-25a12.14,12.14,0,0,1-2.66,1.4,8.47,8.47,0,0,1-2.73.39q-1.52,0-4.1-2.29t-4.1-2.29a3.25,3.25,0,0,0-2.14.81,3,3,0,0,0-1,2.43c0,2.31.68,3.35,2,3.13a3.1,3.1,0,0,0,1-.42,1.42,1.42,0,0,0,.51-.59c.07-.18.16-.28.26-.28s.19.14.19.39a6.34,6.34,0,0,1,.19,1.63,10.73,10.73,0,0,1-.07,1.14,3.58,3.58,0,0,1-.91,1.71,2.41,2.41,0,0,1-1.86,1,2.77,2.77,0,0,1-2.56-1.9,10.18,10.18,0,0,1-.9-4.41,8.06,8.06,0,0,1,0-.84,10.38,10.38,0,0,1,2.24-6.15,6,6,0,0,1,4.74-2.35,10.29,10.29,0,0,1,5,1.34q5.28,2.91,8.28,2.91a7,7,0,0,0,3-.73c1.11-.59,2.22-1.21,3.34-1.84.35,0,.45.22.3.67-.38.67-.76,1.32-1.14,2a14.17,14.17,0,0,0-1.67,6.65v23.7a21.06,21.06,0,0,0,1.22,7.6,24.68,24.68,0,0,0,1.82,3.35,1.26,1.26,0,0,1,.19.62,1,1,0,0,1-.27.61c-1,1.16-3.15,2.37-6.34,3.64a28.13,28.13,0,0,1-10.36,2.29q-11.46,0-19.39-12.69-7.78-12.46-7.78-29.79,0-16.49,6.76-27.67Q1232.61,396,1243.7,396a19.33,19.33,0,0,1,8.27,2.18q4.56,2.17,5.47,2.18,3.25,0,3.26-3.47a3.44,3.44,0,0,0-.59-2.18,1.75,1.75,0,0,0-1.38-.73.81.81,0,0,0-.61,0c-.2.1-.36.16-.46.2a.41.41,0,0,1-.38.11c-.1,0-.15-.15-.15-.34a2.53,2.53,0,0,1,.15-.78,4.78,4.78,0,0,1,1.52-2.43,3.48,3.48,0,0,1,2.2-.81,3.35,3.35,0,0,1,3.11,2A10.42,10.42,0,0,1,1265.18,396.93Z"/><path d="M1305.86,474.62a2.66,2.66,0,0,1,.27.9.5.5,0,0,1-.57.56c-.1,0-.52-.06-1.25-.17a14.21,14.21,0,0,0-2.09-.17,7.94,7.94,0,0,0-1.52.17,9.65,9.65,0,0,1-1,.17c-.58,0-.87-.21-.87-.62a1.51,1.51,0,0,1,.19-.61,8.51,8.51,0,0,0,.55-1.54,7.22,7.22,0,0,0,.21-1.82l-.23-5.36a19.8,19.8,0,0,1-4.89,8q-3.8,3.75-7.94,3.75a12.16,12.16,0,0,1-9.86-5.09q-4.26-5.37-4.25-13.92a22.42,22.42,0,0,1,4.63-14.42q4.44-5.58,10.62-5.59a10.66,10.66,0,0,1,5.75,1.73,12.48,12.48,0,0,1,4.2,4.2,22.32,22.32,0,0,0-1.94-7.33,34.6,34.6,0,0,0-5.35-9.44q-3.87-4.69-8-4.7a6.51,6.51,0,0,0-4.37,1.57,6.13,6.13,0,0,0-2.08,4.92,6.33,6.33,0,0,0,.62,3,1.92,1.92,0,0,0,1.73,1.17,1.66,1.66,0,0,0,1.33-.72,2.76,2.76,0,0,0,.57-1.74,8.43,8.43,0,0,0-.13-1.42c-.09-.47-.18-.89-.25-1.26s-.06-.43,0-.5a1.08,1.08,0,0,1,.49-.06,3,3,0,0,1,1.94,1.46,5,5,0,0,1,.87,2.9,6.8,6.8,0,0,1-1.42,4.39,4.18,4.18,0,0,1-3.29,1.76,4.26,4.26,0,0,1-3.64-2.18,10.51,10.51,0,0,1-1.44-5.87,9,9,0,0,1,3.45-7.49,11.65,11.65,0,0,1,7.33-2.35q4.2,0,8.31,3.94a28.61,28.61,0,0,1,6.64,10.71,58.64,58.64,0,0,1,2.84,11.79q.69,4.47,1.29,12.27t1,10.71a11.92,11.92,0,0,0,.72,2.79Zm-6.45-17.88q0-6.32-3.17-10.09a10.29,10.29,0,0,0-8.29-3.77q-4.17,0-7.29,4a15.8,15.8,0,0,0-3.11,10,17.57,17.57,0,0,0,3.17,10.65q3.16,4.33,7.53,4.33a9.52,9.52,0,0,0,8.1-4.22Q1299.41,463.4,1299.41,456.74Z"/><path d="M1361.57,441.56a53.08,53.08,0,0,1-2.54,15.61,65.2,65.2,0,0,1-6.41,14.49l.4,0c.19,0,.45,0,.77,0a12.36,12.36,0,0,0,2.24-.2,4,4,0,0,0,2.09-1.25l1.25-1.51c.15-.23.31-.26.46-.12a1.15,1.15,0,0,1,.15.79c-.08.74-.15,1.48-.21,2.2s-.09,1.26-.09,1.6c0,.82,0,1.5,0,2s.1,1.16.17,1.87,0,.95-.26.95-.37-.13-.57-.39a5.94,5.94,0,0,0-1.59-1.17,6.9,6.9,0,0,0-1.62-.62,11.93,11.93,0,0,0-2.37-.17c-.73,0-1.32,0-1.75,0a14.62,14.62,0,0,0-1.7.26,1.47,1.47,0,0,1-.27,0h-.26a.64.64,0,0,1-.73-.73,3,3,0,0,1,.27-1c1.27-2.87,2.37-5.6,3.3-8.21a80.5,80.5,0,0,0,2.85-9.49,44.05,44.05,0,0,0,1.21-9.66q0-9.15-1.78-14.24-2.13-6-6.64-6a6.32,6.32,0,0,0-3.53,1.09,9.76,9.76,0,0,0-3,3.38,41.57,41.57,0,0,1,1,6.65q.3,3.92.3,8.33A55.88,55.88,0,0,1,1341,459a95.94,95.94,0,0,1-3.41,11.29,35.16,35.16,0,0,1-2.35,5.53.51.51,0,0,1-.5.23c-.4,0-.64-.11-.72-.34a1,1,0,0,1,0-.61c.16-.52.24-.84.27-.95q3.35-10.17,3.34-27.06a39.75,39.75,0,0,0-2.13-13.86q-2.31-6.15-6-6.15-2.51,0-4.71,3.08a17.32,17.32,0,0,0-2.73,6.09v34.27a3.26,3.26,0,0,0,.87,2l1.41,1.7a2.2,2.2,0,0,1,.45,1.14c0,.45-.28.68-.83.68-.28,0-1-.06-2.2-.17s-1.9-.17-2.13-.17a18.76,18.76,0,0,0-2.22.11c-.57.08-1.22.15-2,.23s-.88-.21-.88-.63a2.06,2.06,0,0,1,.42-1.08c.61-.75,1.06-1.34,1.37-1.76a3.56,3.56,0,0,0,.83-2.06V437.49a13.44,13.44,0,0,0-2-7.7,16.31,16.31,0,0,0-2.92-2.91.85.85,0,0,1-.31-.67.88.88,0,0,1,.23-.55,23.11,23.11,0,0,0,1.75-2.35c.38-.56.67-1,.87-1.34s.39-.64.55-.92.31-.42.44-.42.26.11.41.34a28.63,28.63,0,0,1,2.89,4.64,20.3,20.3,0,0,1,2.35,6.65,28.74,28.74,0,0,1,3-6.71q3-4.69,7-4.7a7.82,7.82,0,0,1,5.81,2.69,21.79,21.79,0,0,1,3.45,5.36,19.91,19.91,0,0,1,3.45-5.42,7.25,7.25,0,0,1,5.28-2.63q6.52,0,9.75,7.45A33.21,33.21,0,0,1,1361.57,441.56Z"/><path d="M1404.84,464.23a18.87,18.87,0,0,1-4.75,8.89q-4.39,4.86-9.6,4.86a14.12,14.12,0,0,1-11.53-5.26A34.73,34.73,0,0,0,1377,477a13.43,13.43,0,0,0-1.1,4.14,3.22,3.22,0,0,0,.57,2.18,1.69,1.69,0,0,0,1.25.39,1.4,1.4,0,0,0,.53-.11l.46-.23a.19.19,0,0,1,.26,0q.27.23.12.9a7,7,0,0,1-.91,2.46,2.57,2.57,0,0,1-2.13,1.45,2.42,2.42,0,0,1-2.12-1.4,7,7,0,0,1-.84-3.63,14.54,14.54,0,0,1,.84-4.36q.22-.72,3.26-7.94a35.56,35.56,0,0,1-4.33-9.22,41.14,41.14,0,0,1-1.67-11.9q0-11.74,5.18-20.29t12.89-8.56a11.28,11.28,0,0,1,6.3,2.18q1.79,1.29,3.57,2.52a2.48,2.48,0,0,0,1,.33,7,7,0,0,0,1.29.12l1.14-.12q.42,0,.42.51a.75.75,0,0,1-.27.61,12.77,12.77,0,0,0-1.32,1.51,18.06,18.06,0,0,0-1.71,2.52q-3.69,6-8.54,15.82T1382,466.46a19.22,19.22,0,0,0,4.56,3.64,11.68,11.68,0,0,0,5.69,1.51,10,10,0,0,0,6.75-2.3,22.57,22.57,0,0,0,4.33-6c.15-.33.33-.69.53-1.09s.43-.55.69-.47.49.47.49,1.06A5.35,5.35,0,0,1,1404.84,464.23Zm-10.4-33a6.08,6.08,0,0,0-2.43-5.14,7.9,7.9,0,0,0-4.93-1.57q-5.4,0-8.88,6.77a32.77,32.77,0,0,0-3.27,15.14,33.12,33.12,0,0,0,1.71,10.4,27.91,27.91,0,0,0,3.61,7.49l4-8.78q2.31-5,4-8.44l4.17-8.72Q1394.45,433.71,1394.44,431.25Z"/><path d="M1466.47,449.7q0,11.73-5.84,20.06-5.7,8.12-13.44,8.11-8.16,0-13.75-8.36t-5.6-20.37q0-11.68,5.71-20t13.72-8.3q8,0,13.62,8.44T1466.47,449.7Zm-3.26,2.46a30.34,30.34,0,0,0-5.77-17.56q-6-8.6-13.06-8.6-5.54,0-9.41,5.59a22.57,22.57,0,0,0-3.87,13.19,33.69,33.69,0,0,0,5.88,19.56q5.77,8.39,12.72,8.38,5.5,0,9.33-5.25Q1463.22,461.71,1463.21,452.16Z"/><path d="M1503.13,427.11a44.47,44.47,0,0,1-.72,7.72,75.93,75.93,0,0,1-1.86,7.71c-.6,2.13-1.37,4.57-2.29,7.32s-1.91,5.61-2.94,8.56q-.69,1.95-3,8.27l-3,8.16-.83,2.57c-.15.3-.32.45-.5.45s-.34-.15-.49-.45a18.51,18.51,0,0,1-1-2.35q-1-3-2.27-6.26-1.48-3.8-2-5.25c-.7-2-1.62-4.92-2.73-8.72q-1.52-5.14-2.66-11c-.55-2.75-1.06-5.88-1.51-9.39-.33-2.44-.59-4.62-.76-6.55a3.8,3.8,0,0,0-1.14-2.22l-1.59-1.82a1.38,1.38,0,0,1-.27-.75c0-.34.21-.51.64-.51a12,12,0,0,1,2,.14,23.33,23.33,0,0,0,2.68.2,23.94,23.94,0,0,0,2.73-.2,11.72,11.72,0,0,1,2-.14c.35,0,.53.21.53.62a1.19,1.19,0,0,1-.23.72q-.94,1.06-1.44,1.74a3.62,3.62,0,0,0-.83,2.4c.23,3.73.57,7.19,1,10.4a99,99,0,0,0,2.38,11.75q1.71,6.54,3,10.24,1,2.91,3.14,7.89,1.56-4.53,3.27-9.85,2-6.15,3.35-10.85,1.74-5.88,2.7-10.36a50.62,50.62,0,0,0,1.23-10,9.87,9.87,0,0,0-.75-3.86c-.61-1.41-1.37-2.12-2.27-2.12l-.38.05c-.84.11-1.44.79-1.82,2a3.58,3.58,0,0,0-.15.78,5.38,5.38,0,0,0,0,.61,4.26,4.26,0,0,0,0,.73c.05.6,0,.89-.27.89a.72.72,0,0,1-.41-.22,4.08,4.08,0,0,1-1.07-1.62,7.71,7.71,0,0,1-.6-3,7.12,7.12,0,0,1,1.32-4.36,3.79,3.79,0,0,1,3.08-1.79q3.3,0,5.12,3.69A17.69,17.69,0,0,1,1503.13,427.11Z"/><path d="M1544.65,464.23a18.94,18.94,0,0,1-4.74,8.89q-4.41,4.86-9.6,4.86a14.15,14.15,0,0,1-11.54-5.26,36.3,36.3,0,0,0-1.94,4.25,13.43,13.43,0,0,0-1.1,4.14,3.22,3.22,0,0,0,.57,2.18,1.7,1.7,0,0,0,1.25.39,1.49,1.49,0,0,0,.54-.11l.45-.23a.2.2,0,0,1,.27,0c.17.15.21.45.11.9a6.82,6.82,0,0,1-.91,2.46,2.57,2.57,0,0,1-2.13,1.45,2.43,2.43,0,0,1-2.12-1.4,7,7,0,0,1-.84-3.63,14.54,14.54,0,0,1,.84-4.36q.23-.72,3.26-7.94a35.21,35.21,0,0,1-4.32-9.22,40.8,40.8,0,0,1-1.67-11.9q0-11.74,5.18-20.29t12.88-8.56a11.28,11.28,0,0,1,6.3,2.18q1.78,1.29,3.57,2.52a2.6,2.6,0,0,0,1,.33,7,7,0,0,0,1.29.12l1.13-.12q.42,0,.42.51a.77.77,0,0,1-.26.61,11.9,11.9,0,0,0-1.33,1.51,18.06,18.06,0,0,0-1.71,2.52q-3.67,6-8.54,15.82t-9.14,19.61a19.38,19.38,0,0,0,4.55,3.64,11.68,11.68,0,0,0,5.69,1.51,10,10,0,0,0,6.76-2.3,22.58,22.58,0,0,0,4.32-6c.16-.33.33-.69.54-1.09s.43-.55.68-.47.49.47.49,1.06A5.35,5.35,0,0,1,1544.65,464.23Zm-10.4-33a6.08,6.08,0,0,0-2.43-5.14,7.9,7.9,0,0,0-4.93-1.57q-5.39,0-8.88,6.77a32.77,32.77,0,0,0-3.26,15.14,33.4,33.4,0,0,0,1.7,10.4,28.53,28.53,0,0,0,3.61,7.49l4-8.78q2.33-5,4-8.44l4.17-8.72Q1534.26,433.71,1534.25,431.25Z"/><path d="M1576,429a10.27,10.27,0,0,1-1.18,5.26,3.54,3.54,0,0,1-3.15,2,4.93,4.93,0,0,1-2.41-.56,2.64,2.64,0,0,1-1.31-1.56.73.73,0,0,1,0-.51.33.33,0,0,1,.34-.28,2.88,2.88,0,0,0,1.27-.28,2.53,2.53,0,0,0,1-1,5,5,0,0,0,.65-2.63,4.31,4.31,0,0,0-1-3,4.13,4.13,0,0,0-3.26-1.29c-1.8,0-3.57,1.18-5.32,3.52a23.21,23.21,0,0,0-3.56,7.54v34.28a3.37,3.37,0,0,0,.83,2.06c.48.61,1,1.2,1.44,1.76a1.85,1.85,0,0,1,.38,1c0,.45-.27.68-.83.68a8.9,8.9,0,0,1-1.14-.06c-1.57-.18-2.61-.28-3.11-.28a19.66,19.66,0,0,0-2.3.11c-.57.08-1.22.15-1.95.23q-.84,0-.84-.63a2.19,2.19,0,0,1,.46-1.19q.67-.86,1-1.26a4,4,0,0,0,1.18-2.45V437.49a12.88,12.88,0,0,0-1.41-6.36,12.17,12.17,0,0,0-4.06-3.69q-.15,0-.15-.33a1,1,0,0,1,.15-.56l1.75-2.46c.33-.48.62-.95.87-1.39.08-.11.24-.43.5-.95.15-.26.31-.39.49-.39a.55.55,0,0,1,.34.16,26.62,26.62,0,0,1,3.15,3.75,15.08,15.08,0,0,1,2.62,7,20.61,20.61,0,0,1,4.17-7.77c2.15-2.42,4.53-3.64,7.14-3.64a6.43,6.43,0,0,1,5.29,2.38A8.89,8.89,0,0,1,1576,429Z"/><path d="M1317.3,563.47c0,1.49-1.08,2.84-3.22,4a14.23,14.23,0,0,1-7.06,1.8,20.15,20.15,0,0,1-2.47-.13c-.71-.09-1.62-.24-2.74-.46v35.4c0,.38.31.79.93,1.25a15.83,15.83,0,0,1,1.3,1,.5.5,0,0,1,.1.18.44.44,0,0,1,0,.14c0,.22-.19.33-.56.33a18.41,18.41,0,0,1-1.84-.08c-1-.07-1.73-.1-2.12-.1-.66,0-1.66,0-3,.15a6.8,6.8,0,0,1-1.05,0c-.35,0-.53-.12-.53-.36a.3.3,0,0,1,.1-.24,14.87,14.87,0,0,1,1.33-1c.64-.47,1-.9,1-1.28v-36l-3.47-.51a34.78,34.78,0,0,0-4.71-.33,8.06,8.06,0,0,0-3.77.66,2.27,2.27,0,0,0-1.18,2.15,1.36,1.36,0,0,0,.37.93,1.34,1.34,0,0,0,.74.48,4.51,4.51,0,0,0,.72,0,3.23,3.23,0,0,0,.8-.08,1.48,1.48,0,0,0,.47-.24c.16-.1.28-.1.37,0a.46.46,0,0,1,.06.41,3,3,0,0,1-.8,1.44,2.9,2.9,0,0,1-2.16.83,2.53,2.53,0,0,1-2-.86,3.19,3.19,0,0,1-.77-2.18q0-2.83,4-4.74a20.77,20.77,0,0,1,9-1.89,23.35,23.35,0,0,1,5.11.53l4.93,1.08a25,25,0,0,0,5.25.54,8,8,0,0,0,3.38-.57,1.81,1.81,0,0,0,1.19-1.7c0-.5-.16-.82-.48-1a3.57,3.57,0,0,0-1.25-.19c-.31,0-.46-.06-.46-.18a.71.71,0,0,1,.09-.3,2,2,0,0,1,.71-.86,2.22,2.22,0,0,1,1.33-.45,2.4,2.4,0,0,1,1.75.58A2.25,2.25,0,0,1,1317.3,563.47Z"/><path d="M1340.15,581.87a4.06,4.06,0,0,1-1,2.81,3.27,3.27,0,0,1-2.57,1.08,5.75,5.75,0,0,1-2-.3,1.79,1.79,0,0,1-1.07-.84.26.26,0,0,1,0-.27.27.27,0,0,1,.28-.15,3.49,3.49,0,0,0,1-.15,2,2,0,0,0,.85-.54,2,2,0,0,0,.53-1.4,1.87,1.87,0,0,0-.81-1.58,4.41,4.41,0,0,0-2.66-.69,6.6,6.6,0,0,0-4.34,1.88,11.28,11.28,0,0,0-2.91,4v18.32a1.52,1.52,0,0,0,.68,1.1l1.18,1a.81.81,0,0,1,.31.54c0,.24-.23.37-.68.37s-.68,0-.93,0c-1.28-.1-2.13-.15-2.54-.15-.78,0-1.41,0-1.87.06l-1.6.12c-.45,0-.68-.12-.68-.34a1.05,1.05,0,0,1,.37-.64l.84-.67c.64-.49,1-.93,1-1.31V586.4a5,5,0,0,0-1.15-3.4,9.55,9.55,0,0,0-3.31-2,.16.16,0,0,1-.12-.18.41.41,0,0,1,.12-.3l1.42-1.31q.4-.39.72-.75a4.63,4.63,0,0,0,.4-.5.53.53,0,0,1,.4-.21.57.57,0,0,1,.28.09,17.82,17.82,0,0,1,2.57,2,6.69,6.69,0,0,1,2.14,3.73,10.73,10.73,0,0,1,3.4-4.15,9.64,9.64,0,0,1,5.83-1.94,6.63,6.63,0,0,1,4.31,1.27A3.85,3.85,0,0,1,1340.15,581.87Z"/><path d="M1370.93,579.3l-1.15,1c-.51.44-.77.82-.77,1.13v24a15.27,15.27,0,0,1-3.84,10.79,11.86,11.86,0,0,1-9.11,4,10.43,10.43,0,0,1-3.9-.6,2.62,2.62,0,0,1-1.92-2.51,2.36,2.36,0,0,1,1.43-2.07,4.33,4.33,0,0,1,2.54-.67c.31,0,.46.1.46.32a.64.64,0,0,1-.14.32,3.13,3.13,0,0,0-.23.37,1.56,1.56,0,0,0-.19.69,1.4,1.4,0,0,0,.1.51,2,2,0,0,0,1,1.27,3.68,3.68,0,0,0,1.83.46,6.86,6.86,0,0,0,6-3.26,13.37,13.37,0,0,0,2-7.62v-5.31a11.08,11.08,0,0,1-3.12,3.73,9.09,9.09,0,0,1-5.73,2.12q-5.67,0-8.73-3.61a11.79,11.79,0,0,1-2.67-7.92,17.9,17.9,0,0,1,.72-5.17,22.26,22.26,0,0,1,1.76-4.15c.06-.12.79-1.33,2.17-3.64.1-.22,0-.46-.44-.72a9.14,9.14,0,0,0-1.42-.66l-1.11-.54a.31.31,0,0,1-.25-.3c0-.13.18-.24.54-.32l1.1-.24a16.06,16.06,0,0,0,2.1-.63,16.38,16.38,0,0,0,2.09-.91l1.91-1a.79.79,0,0,1,.34-.09c.25,0,.37.11.37.33a.83.83,0,0,1-.12.31,7.61,7.61,0,0,1-.53.73c-.16.22-.37.49-.62.81a27.93,27.93,0,0,0-3.62,6.27,20,20,0,0,0-1.46,7.47,12.85,12.85,0,0,0,2.28,7.86,7.19,7.19,0,0,0,6.08,3.08,9.17,9.17,0,0,0,5-1.48,8.87,8.87,0,0,0,3.37-3.72V581.39a1.62,1.62,0,0,0-.68-1.16l-1.24-1a.63.63,0,0,1-.21-.45c0-.21.17-.32.52-.32l1.37.09c.8.06,1.55.09,2.23.09s1.44,0,1.9,0,1-.07,1.63-.13c.41,0,.62.12.62.35A.71.71,0,0,1,1370.93,579.3Z"/><path d="M1422.21,606.25a1.09,1.09,0,0,1,.21.48c0,.2-.15.3-.46.3l-1-.09q-.9-.09-1.71-.09a9.37,9.37,0,0,0-1.23.09l-.81.09c-.47,0-.71-.11-.71-.33a.65.65,0,0,1,.15-.33,3.46,3.46,0,0,0,.45-.82,2.5,2.5,0,0,0,.17-1l-.18-2.87a11,11,0,0,1-4,4.27,11.76,11.76,0,0,1-6.47,2,12.16,12.16,0,0,1-8-2.72,9.21,9.21,0,0,1-3.47-7.44,9.59,9.59,0,0,1,3.78-7.7,13.18,13.18,0,0,1,8.67-3,12.15,12.15,0,0,1,4.69.93,9,9,0,0,1,3.42,2.24,8.73,8.73,0,0,0-1.58-3.92,18.62,18.62,0,0,0-4.36-5,10.41,10.41,0,0,0-6.51-2.51,7.13,7.13,0,0,0-3.56.84,2.92,2.92,0,0,0-1.7,2.63,2.4,2.4,0,0,0,.51,1.58,1.71,1.71,0,0,0,1.41.63,1.63,1.63,0,0,0,1.08-.39,1.18,1.18,0,0,0,.47-.92,2.87,2.87,0,0,0-.11-.77l-.2-.67q-.09-.21,0-.27a1.44,1.44,0,0,1,.4,0,2.61,2.61,0,0,1,1.58.78,2.1,2.1,0,0,1,.71,1.55,2.89,2.89,0,0,1-1.16,2.35,4.1,4.1,0,0,1-2.68.94,4.06,4.06,0,0,1-3-1.17,4.22,4.22,0,0,1-1.18-3.13q0-2.57,2.82-4a13.21,13.21,0,0,1,6-1.25,12.56,12.56,0,0,1,6.78,2.11,16,16,0,0,1,5.42,5.72,23.14,23.14,0,0,1,2.32,6.3,63.57,63.57,0,0,1,1,6.56c.33,2.78.61,4.68.84,5.72a4.42,4.42,0,0,0,.59,1.49Zm-5.27-9.56a6.49,6.49,0,0,0-2.58-5.39,10.68,10.68,0,0,0-6.77-2,8.92,8.92,0,0,0-5.94,2.15,6.7,6.7,0,0,0-2.54,5.32,7.34,7.34,0,0,0,2.58,5.69,9,9,0,0,0,6.15,2.32,9.5,9.5,0,0,0,6.61-2.26A7.48,7.48,0,0,0,1416.94,596.69Z"/><path d="M1456.76,609.83q0,4.88-5.72,7.8a25.62,25.62,0,0,1-11.74,2.54,18.27,18.27,0,0,1-8.55-1.91c-2.68-1.39-4-3.19-4-5.38a4.3,4.3,0,0,1,1.19-3.18,4.18,4.18,0,0,1,3.08-1.18,4.81,4.81,0,0,1,2.83.75,2.88,2.88,0,0,1,1.26,2.06,2.53,2.53,0,0,1,.06.45,1.91,1.91,0,0,1-.37,1.16.51.51,0,0,1-.31.18.25.25,0,0,1-.25-.18,2.56,2.56,0,0,0-1.07-1.27,3.2,3.2,0,0,0-1.65-.4,1.89,1.89,0,0,0-1.51.73,2.47,2.47,0,0,0-.6,1.6c0,1.59,1.06,2.85,3.19,3.76a17.13,17.13,0,0,0,6.78,1.2,15.57,15.57,0,0,0,8.67-2.48c2.73-1.77,4.09-4,4.09-6.54a6.45,6.45,0,0,0-3.22-5.56,12.22,12.22,0,0,0-7-2,15,15,0,0,0-6.19,1.13,9,9,0,0,0-2.48,1.74c-.18.17-.39.16-.62-.06q-.64-.39-1-.69a6.16,6.16,0,0,1-.68-.57q-.26-.24.06-.54l1.67-1a16.18,16.18,0,0,0,1.43-1,17.11,17.11,0,0,0,2.63-2.18,8.8,8.8,0,0,0,1.21-1.58,14,14,0,0,1-6.38-3,8.72,8.72,0,0,1-3.66-6.93,8.46,8.46,0,0,1,4-7.2,15,15,0,0,1,8.82-2.6,24.13,24.13,0,0,1,4.63.37,15.15,15.15,0,0,1,4,1.48,6.24,6.24,0,0,0,1-1.37,4.63,4.63,0,0,0,.5-2.09,2,2,0,0,0-.47-1.38,2.3,2.3,0,0,0-2.51-.3,3.56,3.56,0,0,0-.49.42c-.1.1-.19.13-.25.09s-.08-.15-.06-.33a4.57,4.57,0,0,1,.68-1.85,2.44,2.44,0,0,1,2.11-1.19,3.27,3.27,0,0,1,2.72,1.16,4.44,4.44,0,0,1,.81,2.84,6,6,0,0,1-.84,2.9,5.68,5.68,0,0,1-1.58,1.94,10.81,10.81,0,0,1,3.22,3.4,8.73,8.73,0,0,1,1.05,4.37,8.27,8.27,0,0,1-4,7.11,15.91,15.91,0,0,1-9.1,2.51c-.34,0-.7,0-1.1-.05l-1-.07a11.17,11.17,0,0,1-1.79,2.06,16,16,0,0,1-2.17,1.76,17.55,17.55,0,0,1,3.31-.7,31.31,31.31,0,0,1,3.56-.2,18.74,18.74,0,0,1,9.17,2.13Q1456.77,605.12,1456.76,609.83Zm-5.82-21.94a9.58,9.58,0,0,0-.49-3.25,8.2,8.2,0,0,0-1.74-2.72,5.89,5.89,0,0,1-1.44.68,5.54,5.54,0,0,1-1.65.22,3.84,3.84,0,0,1-2.76-1,2.2,2.2,0,0,1-.77-1.56c0-.22,0-.32.12-.32a.4.4,0,0,1,.25.14,4.23,4.23,0,0,0,.74.72,3.27,3.27,0,0,0,1.8.48,4.75,4.75,0,0,0,2.48-.66,7.59,7.59,0,0,0-2.54-1.46,9.6,9.6,0,0,0-3.41-.62,10.3,10.3,0,0,0-6.87,2.46,7.68,7.68,0,0,0-2.92,6.12,9.14,9.14,0,0,0,1.75,5.58,8.65,8.65,0,0,0,4.94,3.19,3.54,3.54,0,0,0,.19-1.1A3.58,3.58,0,0,0,1438,593c-.14-.24-.06-.41.25-.52l.79-.27c.21-.07.54-.19,1-.37a7,7,0,0,0,1.1-.55l1-.62c.12-.12.22-.13.31-.06a.43.43,0,0,1,.12.36,8,8,0,0,1-.63,2.36c-.43,1.11-.84,2.06-1.23,2.83a7,7,0,0,0,1.12.09,9.31,9.31,0,0,0,6.19-2.44A7.62,7.62,0,0,0,1450.94,587.89Z"/><path d="M1489.77,606.25a1,1,0,0,1,.22.48c0,.2-.15.3-.46.3l-1-.09a16.87,16.87,0,0,0-1.7-.09,9.64,9.64,0,0,0-1.24.09l-.8.09c-.48,0-.71-.11-.71-.33a.65.65,0,0,1,.15-.33,3.46,3.46,0,0,0,.45-.82,2.7,2.7,0,0,0,.17-1l-.19-2.87a10.9,10.9,0,0,1-4,4.27,11.79,11.79,0,0,1-6.47,2,12.14,12.14,0,0,1-8.05-2.72,9.18,9.18,0,0,1-3.47-7.44,9.59,9.59,0,0,1,3.78-7.7,13.18,13.18,0,0,1,8.67-3,12.15,12.15,0,0,1,4.69.93,9.2,9.2,0,0,1,3.42,2.24,8.85,8.85,0,0,0-1.58-3.92,18.48,18.48,0,0,0-4.37-5,10.36,10.36,0,0,0-6.5-2.51,7.13,7.13,0,0,0-3.56.84,2.91,2.91,0,0,0-1.7,2.63,2.4,2.4,0,0,0,.51,1.58,1.71,1.71,0,0,0,1.41.63,1.63,1.63,0,0,0,1.08-.39,1.18,1.18,0,0,0,.47-.92,2.87,2.87,0,0,0-.11-.77c-.08-.24-.14-.47-.2-.67s-.06-.23,0-.27a1.38,1.38,0,0,1,.4,0,2.64,2.64,0,0,1,1.58.78,2.13,2.13,0,0,1,.71,1.55,2.92,2.92,0,0,1-1.16,2.35,4.12,4.12,0,0,1-2.68.94,4,4,0,0,1-3-1.17,4.18,4.18,0,0,1-1.18-3.13q0-2.57,2.82-4a13.18,13.18,0,0,1,6-1.25,12.56,12.56,0,0,1,6.78,2.11,16.11,16.11,0,0,1,5.42,5.72,23.14,23.14,0,0,1,2.32,6.3,63.57,63.57,0,0,1,1,6.56c.33,2.78.61,4.68.84,5.72a4.42,4.42,0,0,0,.59,1.49Zm-5.26-9.56a6.47,6.47,0,0,0-2.59-5.39,10.63,10.63,0,0,0-6.76-2,9,9,0,0,0-6,2.15,6.73,6.73,0,0,0-2.54,5.32,7.35,7.35,0,0,0,2.59,5.69,8.92,8.92,0,0,0,6.15,2.32,9.5,9.5,0,0,0,6.61-2.26A7.48,7.48,0,0,0,1484.51,596.69Z"/><path d="M1504.76,606.09a.93.93,0,0,1,.37.58c0,.24-.22.36-.68.36s-.68,0-.93,0c-1.28-.1-2.12-.15-2.54-.15-.74,0-1.34,0-1.81.06l-1.59.12c-.5,0-.75-.13-.75-.37a1.09,1.09,0,0,1,.31-.54c.52-.41.9-.72,1.15-1a1.58,1.58,0,0,0,.71-1.1V584a2.29,2.29,0,0,0-.74-2l-1.33-.45c-.25-.08-.37-.2-.37-.36s.09-.24.29-.38a8.56,8.56,0,0,1,1-.57c.7-.36,1.24-.66,1.64-.9,1-.58,1.73-1.06,2.27-1.45l1-.73a.68.68,0,0,1,.31-.15c.29,0,.38.18.28.54a20,20,0,0,0-.3,2.18c-.09,1-.13,2.23-.13,3.62v20.76a1.47,1.47,0,0,0,.65,1C1504,605.49,1504.37,605.79,1504.76,606.09Zm-.71-36.12a2.32,2.32,0,0,1-.82,1.79,2.8,2.8,0,0,1-2,.73,2.54,2.54,0,0,1-1.88-.78,2.57,2.57,0,0,1-.77-1.86,2.41,2.41,0,0,1,.83-1.84,2.81,2.81,0,0,1,1.94-.75,2.49,2.49,0,0,1,1.88.81A2.71,2.71,0,0,1,1504.05,570Z"/><path d="M1540,588.7a22.77,22.77,0,0,1-1.61,8.47,24.19,24.19,0,0,1-4.77,7.5h.33l.63,0a14.5,14.5,0,0,0,1.8-.11A4,4,0,0,0,1538,604c.53-.42.89-.69,1-.81a.37.37,0,0,1,.19-.09l.12,0c.23,0,.29.18.19.54s-.09.65-.13,1.07-.06.69-.06.83q0,.45,0,.93c0,.33,0,.67.09,1s0,.59-.24.59a.53.53,0,0,1-.31-.11c-.62-.34-1.06-.55-1.3-.65a7.09,7.09,0,0,0-1.35-.35,18.19,18.19,0,0,0-2-.08l-1.42,0c-.35,0-.82.07-1.39.16s-.9-.08-.9-.54a.69.69,0,0,1,.09-.36c1.12-1.67,2-3.06,2.6-4.15a27.16,27.16,0,0,0,2.17-4.84,18.43,18.43,0,0,0,.87-5.59,12.53,12.53,0,0,0-2.17-7.62,7.21,7.21,0,0,0-6.13-3.07,8.11,8.11,0,0,0-4.68,1.4,9.51,9.51,0,0,0-3.06,3.49v18.32a1.51,1.51,0,0,0,.69,1.1c.39.33.79.64,1.19,1a.91.91,0,0,1,.35.6c0,.21-.18.31-.53.31l-1.4-.09c-.83-.06-1.59-.09-2.27-.09s-1.41,0-1.88.06l-1.6.12c-.5,0-.75-.12-.75-.34a.92.92,0,0,1,.28-.52,9.84,9.84,0,0,1,.9-.79c.7-.51,1-1,1-1.31V586.4a5.56,5.56,0,0,0-1.58-4.12,10,10,0,0,0-2.38-1.55.36.36,0,0,1-.25-.33.52.52,0,0,1,.19-.38c.27-.24.49-.44.68-.59s.42-.36.71-.64.52-.5.68-.68.32-.36.47-.54a.47.47,0,0,1,.62-.06,14.76,14.76,0,0,1,2.35,2.42,8.91,8.91,0,0,1,2,3.67,15.53,15.53,0,0,1,3.31-3.73,9.39,9.39,0,0,1,5.92-2.36,10.08,10.08,0,0,1,8.58,4A11.65,11.65,0,0,1,1540,588.7Z"/></svg>