<svg id="Layer_1" data-name="Layer 1" xmlns="http://www.w3.org/2000/svg" width="1920" height="1080" viewBox="0 0 1920 1080"><defs><style>.cls-1{fill:#29abe2;}.cls-2{fill:#ffdf00;}.cls-13,.cls-3{fill:#fff;}.cls-3{opacity:0.64;}.cls-4{fill:#39994a;}.cls-5{fill:#39934a;}.cls-6{fill:#39a94a;}.cls-7{fill:#dbac99;}.cls-8{fill:#42210b;}.cls-9{fill:#42170b;}.cls-10{fill:#ffffd5;}.cls-11{fill:#754c24;}.cls-12{fill:#603813;}.cls-14{fill:#22b573;}.cls-15{fill:#e1916d;}.cls-16,.cls-21{fill:none;}.cls-16{stroke:#000;stroke-miterlimit:10;}.cls-17{fill:#f0f;}.cls-18{fill:#fbc03b;}.cls-19{fill:#c69c6d;}.cls-20{fill:#dba98f;}.cls-22{fill:#a6835b;}.cls-23{fill:#a67c52;}.cls-24{opacity:0.13;}</style></defs><rect class="cls-1" y="1" width="1920" height="712"/><polygon class="cls-2" points="429.21 20 434.43 133.39 467.04 24.89 444.54 136.05 502.48 39.25 453.68 141.19 533.32 62.19 461.29 148.5 557.62 92.25 466.88 157.52 573.86 127.56 470.1 167.67 581 165.88 470.75 178.33 578.61 204.82 468.8 188.82 566.83 241.93 464.36 198.48 546.4 274.88 457.71 206.71 518.61 301.58 449.26 212.99 485.2 320.38 439.56 216.92 448.27 330.08 429.21 218.26 410.15 330.08 418.86 216.92 373.23 320.38 409.16 212.99 339.82 301.58 400.72 206.71 312.03 274.88 394.07 198.48 291.6 241.93 389.63 188.82 279.82 204.82 387.67 178.33 277.43 165.88 388.33 167.67 284.57 127.56 391.55 157.52 300.8 92.25 397.14 148.5 325.1 62.19 404.75 141.19 355.94 39.25 413.89 136.05 391.39 24.89 424 133.39 429.21 20"/><path class="cls-3" d="M416.71,198.27c5.41-5,8.77-11.48,9-18.66.51-16.56-15.87-30.5-36.6-31.14-11.19-.34-21.36,3.27-28.42,9.28-7.77-10-21.42-16.88-37.16-17.36-17.82-.55-33.49,7.24-41.18,19-1.65-.08-3.3-.15-5-.2l-3-.08c-7.57-18.32-28.8-31.92-54.22-32.7-24-.74-45,10.19-54.58,26.46-42.52,1.66-75.45,16.81-76,36.29a18.45,18.45,0,0,0,1.41,7.56c-14.37,2.64-22.93,6.19-23.06,10.32-.17,5.62,15.33,11.14,40,15.29a15.83,15.83,0,0,0-1.82,6.79c-.5,16.18,25.15,30.11,57.28,31.1a102.88,102.88,0,0,0,32.43-3.93A38.88,38.88,0,0,0,216,262.52a39.86,39.86,0,0,0,15.92-2.7c10.31,8.08,25.23,13.41,42,13.92,15.14.47,29-3.09,39.54-9.28,8.74,7.18,20.79,11.81,34.21,12.23,19.42.59,36.5-7.78,45.1-20.5a48.5,48.5,0,0,0,5.31.47c21.43.66,39.22-12.69,39.74-29.8C438.13,214.57,429.52,203.68,416.71,198.27Z"/><path class="cls-4" d="M1920,847V543c-886.06,8.66-1596.18,140-1643,304Z"/><path class="cls-5" d="M0,856H1189C1155.12,738.43,641.22,644.21,0,638Z"/><path class="cls-3" d="M1552.83,64.46A26,26,0,0,0,1559,47.64c0-14.73-12.39-26.66-27.69-26.66a28.08,28.08,0,0,0-20.74,9,33.95,33.95,0,0,0-57.73,3.61c-1.21,0-2.43,0-3.66,0H1447C1441,17.5,1425,6,1406.28,6a43.35,43.35,0,0,0-39.65,25c-31.31,2.64-55.24,17-55.24,34.31A19.43,19.43,0,0,0,1312.6,72c-10.54,2.73-16.77,6.12-16.77,9.79,0,5,11.56,9.48,29.81,12.5a16.44,16.44,0,0,0-1.19,6.07c0,14.4,19.23,26.06,42.94,26.06a64,64,0,0,0,23.82-4.37,25.38,25.38,0,0,0,26.75,2.13c7.79,6.91,18.9,11.23,31.26,11.23a47.82,47.82,0,0,0,28.94-9.33,37.36,37.36,0,0,0,25.5,9.93,36.86,36.86,0,0,0,32.78-19.44,30.08,30.08,0,0,0,3.94.27c15.8,0,28.62-12.34,28.62-27.56A27.49,27.49,0,0,0,1552.83,64.46Z"/><rect class="cls-6" y="831" width="1920" height="249"/><path class="cls-7" d="M741.61,533c1.11-1.55-2.21-4.55-3.33-5.7a41.3,41.3,0,0,0-5-4.88c-1.36-1-2.93-1.59-4.32-2.5a5.3,5.3,0,0,1-1.24-1.09c-.2,0-.41,0-.61,0a3.72,3.72,0,0,1-.77.52,4,4,0,0,0,0,.49V520l-72.93,68.73-49.68-46.23a10.5,10.5,0,1,0-14.31,15.37l56.37,52.45a10.38,10.38,0,0,0,4.54,2.48,9,9,0,0,0,9.39-1.84l80.82-76.16h.31A4.84,4.84,0,0,1,741.61,533Z"/><path class="cls-7" d="M412,551.14a10.54,10.54,0,0,0-14.78-1.51l-52.62,42.86-68.25-73.38a.57.57,0,0,0,0-.13,14.42,14.42,0,0,0-4.24-10.76l0-13.37a3,3,0,0,0-6,0l0,9.73a14.43,14.43,0,0,0-2-.45l-5.52-10.42a3,3,0,0,0-5.31,2.81l4.29,8.08a14,14,0,0,0-3.72,1.76L247,499a3,3,0,0,0-4.24-.15h0a3,3,0,0,0-.15,4.24l7,7.56a14.44,14.44,0,0,0-1.71,3.79l-8.73-3.79a3,3,0,1,0-2.39,5.5l10.74,4.67a14.41,14.41,0,0,0,.84,3l-5.6,0a3,3,0,0,0,0,6l10,0a14.48,14.48,0,0,0,8.34,3.13l75.63,81.31a9,9,0,0,0,9.25,2.46,10.43,10.43,0,0,0,4.69-2.17l59.71-48.63A10.54,10.54,0,0,0,412,551.14Z"/><path class="cls-8" d="M619.43,965.41c-4.3,17.14-34.45,5.78-62.57-1.29s-43.57-7.15-39.26-24.3-4.82-26,23.3-18.89S623.74,948.27,619.43,965.41Z"/><path class="cls-8" d="M384,968.53c5.28,16.87,34.72,3.79,62.39-4.89s43.08-9.66,37.8-26.52,3.31-26.19-24.36-17.52S378.73,951.67,384,968.53Z"/><path d="M633.12,654.19c0-50.83-51.26,9.11-123.33,9.11s-137.67-59.94-137.67-9.11c0,32.79,24.32,61.58,60.94,77.87L417.24,937.74h65.6V745.17a185.92,185.92,0,0,0,19.78,1.05q7.42,0,14.65-.58v192.1h63.27L567.05,734.23C606.5,718.4,633.12,688.49,633.12,654.19Z"/><path class="cls-9" d="M593.52,582.45l15.54-13.56,15.55-13.58c-14-16-32.24-22.89-40.83-15.4S579.56,566.45,593.52,582.45Z"/><path class="cls-9" d="M364.12,664.74h278c0-85.07-62.24-154-139-154S364.12,579.67,364.12,664.74Z"/><rect class="cls-10" x="489.46" y="511.23" width="24.68" height="153.51"/><ellipse class="cls-11" cx="520.99" cy="533.67" rx="3.66" ry="3.59"/><ellipse class="cls-11" cx="520.99" cy="554.32" rx="3.66" ry="3.59"/><ellipse class="cls-11" cx="520.99" cy="574.97" rx="3.66" ry="3.59"/><ellipse class="cls-11" cx="520.99" cy="595.62" rx="3.66" ry="3.59"/><ellipse class="cls-11" cx="520.99" cy="616.26" rx="3.66" ry="3.59"/><ellipse class="cls-11" cx="520.99" cy="636.91" rx="3.66" ry="3.59"/><ellipse class="cls-11" cx="520.99" cy="657.56" rx="3.66" ry="3.59"/><ellipse cx="479.86" cy="533.45" rx="5.03" ry="0.67"/><ellipse cx="479.86" cy="553.65" rx="5.03" ry="0.67"/><ellipse cx="479.86" cy="575.64" rx="5.03" ry="0.67"/><ellipse cx="479.86" cy="596.29" rx="5.03" ry="0.67"/><ellipse cx="479.86" cy="616.94" rx="5.03" ry="0.67"/><ellipse cx="479.86" cy="636.69" rx="5.03" ry="0.67"/><ellipse cx="479.86" cy="657.34" rx="5.03" ry="0.67"/><path class="cls-9" d="M409.77,585.8l-15.54-13.56-15.55-13.58c14-16,32.24-22.89,40.83-15.4S423.73,569.8,409.77,585.8Z"/><ellipse class="cls-12" cx="604.82" cy="365.25" rx="13.83" ry="13.67"/><ellipse class="cls-12" cx="401.04" cy="365.25" rx="13.83" ry="13.67"/><ellipse class="cls-12" cx="403.12" cy="376.87" rx="6.68" ry="6.61"/><ellipse class="cls-12" cx="602.74" cy="376.87" rx="6.68" ry="6.61"/><ellipse class="cls-12" cx="598.13" cy="344.28" rx="22.36" ry="24.61"/><ellipse class="cls-12" cx="406.34" cy="348.39" rx="22.36" ry="24.61"/><path class="cls-7" d="M605.78,337.62c3.77,56-38.93,152.56-101.53,152.72S403.4,404.83,401.07,350.87,438,241,498.07,239.5c6.71-.17,14.24.5,14.24.5s26,2.67,48,16.92C587.94,274.76,604,310.72,605.78,337.62Z"/><ellipse class="cls-13" cx="538.43" cy="338.62" rx="21.71" ry="20.42"/><ellipse class="cls-14" cx="538.37" cy="338.63" rx="11.84" ry="11.14"/><path class="cls-15" d="M516.82,335.83h43.43c0-10.25-9.72-18.57-21.71-18.57S516.82,325.58,516.82,335.83Z"/><ellipse cx="538.73" cy="341.09" rx="2.07" ry="2.05"/><ellipse class="cls-13" cx="467.03" cy="339.17" rx="21.71" ry="20.42"/><ellipse class="cls-14" cx="466.97" cy="339.18" rx="11.84" ry="11.14"/><path class="cls-15" d="M445.43,336.38h43.42c0-10.25-9.72-18.56-21.71-18.56S445.43,326.13,445.43,336.38Z"/><ellipse cx="467.33" cy="341.65" rx="2.07" ry="2.05"/><ellipse cx="516.06" cy="382.81" rx="2.05" ry="3.06" transform="translate(-35.97 711.64) rotate(-67.35)"/><path class="cls-16" d="M492.85,454.92a8.67,8.67,0,0,0,2.86,10c3.07,2.26,7.08,2.06,8.57,2s4.93-.24,7.61-2.39c3-2.43,3.87-6.48,2.38-10.38"/><ellipse cx="491.93" cy="382.89" rx="3.06" ry="2.05" transform="translate(-109.51 218.98) rotate(-22.65)"/><ellipse class="cls-7" cx="400.17" cy="368.01" rx="8.76" ry="8.66"/><ellipse class="cls-7" cx="605.79" cy="368.01" rx="8.76" ry="8.66"/><ellipse class="cls-12" cx="501.09" cy="236.72" rx="11.53" ry="10.03"/><ellipse class="cls-12" cx="590.3" cy="277.06" rx="14.52" ry="14.36"/><ellipse class="cls-12" cx="419.71" cy="276.83" rx="16.83" ry="19.14"/><ellipse class="cls-12" cx="426.86" cy="283.67" rx="15.68" ry="13.22"/><ellipse class="cls-12" cx="455.21" cy="269.54" rx="25.56" ry="5.02" transform="translate(-60.04 149.6) rotate(-17.53)"/><ellipse class="cls-12" cx="570.24" cy="272.73" rx="19.82" ry="19.6"/><ellipse class="cls-12" cx="500.86" cy="253.36" rx="41.26" ry="21.65"/><ellipse class="cls-12" cx="434.7" cy="254.73" rx="16.6" ry="14.36"/><ellipse class="cls-12" cx="522.52" cy="230.11" rx="9.91" ry="9.8"/><ellipse class="cls-12" cx="540.73" cy="262.7" rx="18.9" ry="13.22"/><ellipse class="cls-12" cx="563.09" cy="249.26" rx="15.91" ry="15.72"/><ellipse class="cls-12" cx="538.66" cy="240.37" rx="24.2" ry="16.41"/><ellipse class="cls-12" cx="483.11" cy="239.69" rx="16.14" ry="11.62"/><ellipse class="cls-12" cx="464.89" cy="253.13" rx="24.2" ry="16.41"/><ellipse class="cls-12" cx="441.15" cy="265.89" rx="19.82" ry="19.6"/><ellipse class="cls-12" cx="576.7" cy="262.7" rx="19.82" ry="19.6"/><ellipse class="cls-12" cx="584.76" cy="288" rx="15.91" ry="15.72"/><ellipse class="cls-12" cx="598.36" cy="302.35" rx="18.9" ry="20.51"/><ellipse class="cls-12" cx="414.64" cy="298.94" rx="21.66" ry="18.2" transform="translate(18.56 622.06) rotate(-75)"/><ellipse class="cls-12" cx="458.21" cy="247.43" rx="23.51" ry="17.55"/><ellipse class="cls-12" cx="406.57" cy="323.77" rx="18.44" ry="21.42"/><ellipse class="cls-12" cx="403.12" cy="348.16" rx="11.3" ry="11.17"/><ellipse class="cls-12" cx="604.59" cy="348.61" rx="11.3" ry="11.17"/><ellipse class="cls-12" cx="606.2" cy="327.88" rx="18.44" ry="21.42"/><ellipse class="cls-12" cx="491.87" cy="236.95" rx="33.19" ry="19.37"/><ellipse class="cls-12" cx="467.2" cy="265.66" rx="13.14" ry="10.25"/><path class="cls-16" d="M452.92,400.75C461.7,418.5,481.64,430,503.36,430c22.55-.07,42.81-12.62,50.63-31.42"/><path class="cls-16" d="M444.75,399.91a7.49,7.49,0,0,0,9.32.12,7.14,7.14,0,0,0,2.26-7.2"/><path class="cls-16" d="M563.26,398.9a7.48,7.48,0,0,1-9.31-.4,7.15,7.15,0,0,1-1.85-7.32"/><rect class="cls-7" x="489.56" y="479.65" width="24.9" height="39.65"/><path class="cls-7" d="M514.46,519.3h-24.9c0,7.59,5.57,13.75,12.45,13.75S514.46,526.89,514.46,519.3Z"/><path class="cls-11" d="M485.87,308.51c0,2.39-7.33.22-17.52.22S449,310.9,449,308.51s8.26-4.33,18.44-4.33S485.87,306.12,485.87,308.51Z"/><path class="cls-11" d="M520.15,308.31c0,2.39,7.34.23,17.52.23S557,310.7,557,308.31,548.78,304,538.6,304,520.15,305.92,520.15,308.31Z"/><ellipse class="cls-7" cx="741.61" cy="521.01" rx="13.5" ry="16" transform="translate(183.72 1235.28) rotate(-87.1)"/><path class="cls-17" d="M828.72,450.77l17-22.11-48.2-2.2v0l-50.8-2.57a3.46,3.46,0,0,1,2.72,3.33l-2.14,42.32,38.27,1.94.18.24,58.35,2.67Zm-40.78,3.61c-25.2-1.28-29,4-29,4,.09-1.77,3-3.24,7.59-4.23l2.37-4.61,2.68-5.24,3.87,4.71,3.16,3.84h.26l4.77-10,5-10.36,4.4,10.66,4.4,10.63.37.05,4.19-3.81,4.54-4.12,1.87,5.54,1.73,5.12c4.06,1.41,6.45,3.06,6.37,4.73C816.44,461.31,813.14,455.66,787.94,454.38Z"/><path class="cls-18" d="M810.07,456.58l-1.73-5.12-1.87-5.54L801.93,450l-4.19,3.81-.37-.05L793,443.17l-4.4-10.66-5,10.36-4.77,10h-.26L775.42,449l-3.87-4.71-2.68,5.24-2.37,4.61c-4.63,1-7.5,2.46-7.59,4.23,0,0,3.83-5.29,29-4s28.5,6.93,28.5,6.93C816.52,459.64,814.13,458,810.07,456.58Z"/><path class="cls-19" d="M746.72,423.86a4.36,4.36,0,0,0-1-.18c-2.16-.11-4,1.29-4.1,3.11l-5,97.89c-.09,1.82,1.6,3.4,3.76,3.51s4-1.29,4.09-3.11l2.82-55.57,2.14-42.32A3.46,3.46,0,0,0,746.72,423.86Z"/><rect class="cls-7" x="722.9" y="512.26" width="28" height="6" rx="3" transform="translate(-155.31 626.94) rotate(-42.1)"/><path class="cls-20" d="M747.65,505.54a3.59,3.59,0,0,0-4.94-.25L726.39,520a3.5,3.5,0,0,0,2.17,6.09,3.53,3.53,0,0,0,2.52-.9l16.32-14.75a3.49,3.49,0,0,0,.25-4.94Zm-.92,4.2-16.32,14.75a2.56,2.56,0,0,1-3.53-.18,2.47,2.47,0,0,1-.64-1.8,2.43,2.43,0,0,1,.82-1.73L743.38,506a2.5,2.5,0,0,1,3.53.18,2.5,2.5,0,0,1-.18,3.53Z"/><rect class="cls-7" x="734.31" y="520.7" width="28" height="6" rx="3" transform="translate(-158.02 636.77) rotate(-42.1)"/><path class="cls-20" d="M740,534.57a3.52,3.52,0,0,1-2.42-1.15,3.52,3.52,0,0,1,.25-4.94l16.33-14.75a3.5,3.5,0,1,1,4.69,5.19L742.5,533.67A3.54,3.54,0,0,1,740,534.57Zm16.63-20.74a2.5,2.5,0,0,0-1.8.64l-16.32,14.75a2.5,2.5,0,0,0-.18,3.53,2.56,2.56,0,0,0,3.53.18l16.32-14.75a2.53,2.53,0,0,0,.82-1.73,2.5,2.5,0,0,0-2.37-2.62Z"/><rect class="cls-7" x="728.52" y="516.4" width="28" height="6" rx="3" transform="translate(-156.64 631.78) rotate(-42.1)"/><path class="cls-20" d="M734.18,530.27a3.52,3.52,0,0,1-2.42-1.15,3.48,3.48,0,0,1-.89-2.52,3.44,3.44,0,0,1,1.15-2.42l16.32-14.75a3.5,3.5,0,1,1,4.69,5.19l-16.32,14.75A3.5,3.5,0,0,1,734.18,530.27Zm16.63-20.74a2.5,2.5,0,0,0-1.8.64l-16.32,14.75a2.5,2.5,0,0,0-.18,3.53,2.56,2.56,0,0,0,3.53.18l16.32-14.75a2.51,2.51,0,0,0,.82-1.73,2.5,2.5,0,0,0-2.37-2.62Z"/><rect class="cls-7" x="726.4" y="514.18" width="16.86" height="6" rx="3" transform="translate(899.57 1400.53) rotate(-135.7)"/><path class="cls-20" d="M738.54,524.46a3.5,3.5,0,0,1-2.27-1l-7.77-7.58a3.51,3.51,0,0,1-.06-4.95,3.5,3.5,0,0,1,4.95-.06l7.77,7.58a3.5,3.5,0,0,1-2.62,6Zm-7.47-13.57a2.5,2.5,0,0,0-1.87,4.28l7.77,7.59a2.5,2.5,0,1,0,3.49-3.58l-7.77-7.59A2.48,2.48,0,0,0,731.07,510.89Z"/><path class="cls-21" d="M1147.5,349.07v-12.2a9.82,9.82,0,0,1-1.17,4.56A25.82,25.82,0,0,1,1147.5,349.07Z"/><polygon class="cls-22" points="1646.8 335.94 1147.5 335.94 1147.5 336.87 1147.5 349.07 1147.5 673.71 1646.8 673.71 1646.8 349.07 1646.8 335.94"/><path class="cls-23" d="M1146.33,341.43a9.82,9.82,0,0,0,1.17-4.56c0-10.88-19.21-19.7-42.91-19.7s-42.91,8.82-42.91,19.7a9.74,9.74,0,0,0,1,4.17,25.73,25.73,0,0,0-1.28,8v705.58c0,12.39,8.61,22.52,19.14,22.52h47.86c10.52,0,19.14-10.13,19.14-22.52V349.07A25.82,25.82,0,0,0,1146.33,341.43Z"/><path class="cls-23" d="M1732.94,349.07a25.5,25.5,0,0,0-1.17-7.64,9.82,9.82,0,0,0,1.17-4.56c0-10.88-19.21-19.7-42.91-19.7s-42.91,8.82-42.91,19.7a9.75,9.75,0,0,0,1,4.17,25.73,25.73,0,0,0-1.29,8v705.58c0,12.39,8.61,22.52,19.14,22.52h47.86c10.53,0,19.14-10.13,19.14-22.52Z"/><g class="cls-24"><path d="M694,1043.36c4.93.43,11.74-1.1,15.12-3.4l39.77-27.07,89.29,4.83,0,0c1.08,1.33,3.84,2.08,7.37,2.22l4,4.12c.49.51,2.23.57,3.87.14s2.58-1.21,2.09-1.72l-2.88-3c.7-.11,1.39-.23,2.1-.38l8.53,1.78a7.85,7.85,0,0,0,4.39-.68c1.22-.62,1.25-1.33,0-1.58l-6.61-1.38a23.08,23.08,0,0,0,3.18-1.52l9,.49a7.51,7.51,0,0,0,4.26-1.07h0c.87-.66.38-1.27-1.09-1.35l-9.21-.5a2.7,2.7,0,0,0,.59-1.62l9.8-1.12c1.7-.19,3.26-.87,3.47-1.51s-1-1-2.71-.82l-12,1.38a7.33,7.33,0,0,0-1.71-.71l5.56-1.47c1.64-.44,2.58-1.21,2.09-1.72s-2.22-.57-3.86-.14l-10,2.65a41.36,41.36,0,0,0-9.21,1.21l-98.94-5.34a25.22,25.22,0,0,0-9.91,1.67,17,17,0,0,0-4,1.9l-45.12,30.7C687.75,1040.7,689,1042.93,694,1043.36Z"/><path d="M366.63,969.51c-.74-6.44,32.55-10.82,62.56-16s45.4-9.21,46.13-2.77,12.38,6.77-17.64,12S367.36,975.94,366.63,969.51Z"/><path d="M576,917.34c-1.13-1.87-2.38-3.84-3.52-5.89-10.2,3.66-21.84,8.64-33.38,13.24-25,9.94-40,14.29-29.81,18.12s4.37,9,29.33-1c11.67-4.65,28-11.78,41.07-18.44C578.41,921.38,577.2,919.3,576,917.34Z"/><path d="M703.43,1001c-9.59-10.15-42.18-12.68-83.34-8.13l-44.42-67.82-65.2,17.2,56.31,59.62c-6.61,1.47-13.28,3.09-20,4.86q-7.38,1.95-14.39,4l-56.18-59.47-62.88,16.59,72.91,59.46c-34.58,15.25-52.28,31.48-42.25,42.1,14.86,15.74,48.28-16.26,119.91-35.15S718.29,1016.74,703.43,1001Z"/><path d="M708.3,995.65l-138.08,36.42L432,1068.53c24.87,26.34,106.89,31.38,183.19,11.25S733.17,1022,708.3,995.65Z"/><polygon points="559.19 1034.98 583.72 1028.51 628.61 1076.03 604.08 1082.5 559.19 1034.98"/><ellipse cx="590.7" cy="1077.35" rx="3.84" ry="1.31" transform="translate(-185.34 124.79) rotate(-10.43)"/><ellipse cx="584.67" cy="1070.96" rx="3.84" ry="1.31" transform="matrix(0.98, -0.18, 0.18, 0.98, -184.29, 123.59)"/><ellipse cx="578.63" cy="1064.57" rx="3.84" ry="1.31" transform="translate(-183.23 122.39) rotate(-10.43)"/><ellipse cx="572.59" cy="1058.18" rx="3.84" ry="1.31" transform="translate(-182.17 121.2) rotate(-10.43)"/><ellipse cx="566.55" cy="1051.79" rx="3.84" ry="1.31" transform="translate(-181.11 120) rotate(-10.43)"/><ellipse cx="560.52" cy="1045.39" rx="3.84" ry="1.31" transform="matrix(0.98, -0.18, 0.18, 0.98, -180.06, 118.8)"/><ellipse cx="554.48" cy="1039" rx="3.84" ry="1.31" transform="translate(-179 117.6) rotate(-10.43)"/><ellipse cx="631.65" cy="1066.64" rx="5.17" ry="0.25" transform="translate(-250.05 195.26) rotate(-14.7)"/><ellipse cx="625.75" cy="1060.38" rx="5.17" ry="0.25" transform="translate(-248.66 193.56) rotate(-14.7)"/><ellipse cx="619.31" cy="1053.58" rx="5.17" ry="0.25" transform="translate(-247.14 191.7) rotate(-14.7)"/><ellipse cx="613.28" cy="1047.18" rx="5.17" ry="0.25" transform="matrix(0.97, -0.25, 0.25, 0.97, -245.72, 189.96)"/><ellipse cx="607.24" cy="1040.79" rx="5.17" ry="0.25" transform="translate(-244.29 188.22) rotate(-14.7)"/><ellipse cx="601.46" cy="1034.68" rx="5.17" ry="0.25" transform="translate(-242.93 186.55) rotate(-14.7)"/><ellipse cx="595.43" cy="1028.29" rx="5.17" ry="0.25" transform="translate(-241.5 184.81) rotate(-14.7)"/><path d="M686,1032.05l19.41.13,19.42.12c-9.2,8.62-25.35,15.54-36.07,15.48S676.81,1040.67,686,1032.05Z"/><path d="M563.76,1160.28c-20.1-16.34-5.91-57.44,56.25-73.9s125.24,0,143.34,16.12-4.59,43.69-63.84,59.91c-6.63,1.82-14.3,3.58-14.3,3.58s-26.61,6-52.7,7.36C599.87,1175.06,573.42,1168.13,563.76,1160.28Z"/><polygon points="601.4 1080.09 626.15 1073.56 637.74 1085.84 613 1092.36 601.4 1080.09"/><path d="M601.41,1080.09l12.36-3.26,12.38-3.27c-2.22-2.35-9.56-2.79-16.39-1S599.18,1077.74,601.41,1080.09Z"/></g></svg>