<svg id="Layer_1" data-name="Layer 1" xmlns="http://www.w3.org/2000/svg" width="140" height="130" viewBox="0 0 140 130"><defs><style>.cls-1{fill:#ed1c24;}.cls-2{fill:#ff3c24;}</style></defs><path class="cls-1" d="M133.8,46.32c-3.56,10.52-14.21,14-24.31,14.46-5.38.24-10.79-.28-16.16.1-1.6.11-5.73.26-6.55,1.9-.7,1.4,1.24,3.79,2.26,4.87,5.45,5.79,14.82,5.86,20.35,11.92,6.83,7.5,5.46,21.29-3,27.08a14,14,0,0,1-15.55,0c-4.47-2.9-6.78-7.85-8.91-12.52-2.06-4.51-4.14-9.22-9.44-10.43-6.31-1.45-4.52,5.88-3.28,9.63,3.25,9.85,5.65,22.37-3.41,30.14-6.47,5.56-15.87,3.69-20.59-3.12a21.49,21.49,0,0,1-3.34-13.87c.49-6.17,4.09-12,4.1-18.11,0-3.27-1.62-7.89-4.74-9.47-1.9-1-3.88-.3-5.78.32-5.24,1.73-10,4.3-15.49,5.11C16,85,10.59,85.5,7.42,82.31c-2.63-2.64-2.34-6.46-.69-9.53C10.06,66.56,16.59,62,21.87,57.49c3.64-3.08,10.18-8.27,4.79-12.91-2.72-2.35-6.76-3-9.75-4.93-9.39-6.16-4.62-18.79,3-24.43,9.38-7,18.93.15,27.91,3.9a3.84,3.84,0,0,1,.49-.27,19.91,19.91,0,0,1,5.87-11C59.78,2.66,69.27,1,74.81,7.22,78,10.74,78.4,15.67,77.7,20.14a26.61,26.61,0,0,1-2.49,8.08,3.22,3.22,0,0,0-.38,1.16,7.57,7.57,0,0,0,2.19.39c5,.5,10.2-1.38,15.12-2.22a65.12,65.12,0,0,1,9.25-.8c7.71-.22,16.09.14,23.34,3C131.76,32.55,136.41,38.59,133.8,46.32Z"/><path class="cls-2" d="M116,30.67c10.34,4.1,15.51,15.06,2.51,22.19-1.5.82-1.53,0-1.93-.66h0c-.41-.65-.73-1.42.6-2,11.42-5.38,5.25-13.32-2.58-16.71a1.23,1.23,0,0,1-.5-2h0C114.58,30.78,114.82,30.19,116,30.67Z"/><path class="cls-2" d="M26,15.55c-4.62,3.76-8.36,10.21-10.3,17.77-.56,2.21.38,2.45,1.56,3a2,2,0,0,0,3-1.41c1.58-5.55,4.24-10.86,7.48-14.29A43.15,43.15,0,0,1,26,15.55Z"/><path class="cls-2" d="M66.31,104.58c-1.09-1.07-2.43-1.14-3.14.66A41.44,41.44,0,0,1,57,116.11a14.58,14.58,0,0,0,2.45,2.23c.68.48,1.34,1,2,1.47a41.82,41.82,0,0,0,6-11.19C68.3,106.25,67.4,105.65,66.31,104.58Z"/></svg>